{
.appVersion = "983";
DisplayStrings = (
"HNHTIHLHEHDHFHOHHSHWHU\012CGSJ\012Hynnhnooongn\012HHQHOQOOHH\012n.n:n;n,HNM\012BPR\012h(h[{ho-oh}])(p)\012JOZEFg\012HheAVH}\012HMHWH\012HXHKH",
"ABCDEFGHIJKLMNOPQRSTUVWXYZ\012Hnnopka \012nnknokonv\012HHZHOZOOH\012CGJS \012FIGHT\012OHVINA\012MUZEUM\012WHOM",
"nnCnocoon\012Hnnohsrny\012HHZHOVOOH \012A4HARGH2C 0DHB8\0120124653807\012HOH0H1H2H3H\012H4H5H7H6H9H8H\U00EBae  /dotaccentcomb  /acutecomb   /caroncomb   /circumflexcomb   /dieresiscomb \U00E4\U00EB Hh/ecaron p\U00E1\U00EA \012HIllnos \012Hlbdfhklta\012Hlgjpqy",
acenorsuyz
);
copyright = "Copyright © 2017 by William Montrose, Slava Jevcinova. All rights reserved.";
date = "2017-08-07 19:41:56 +0000";
designer = "William Montrose, Slava Jevcinova";
familyName = "Universal Text B";
features = (
{
code = "sub y by y.001;";
name = ss01;
}
);
fontMaster = (
{
alignmentZones = (
"{750, 15}",
"{710, 15}",
"{514, 15}",
"{-15, 15}",
"{-210, 15}"
);
ascender = 750;
capHeight = 710;
descender = -195;
id = "0A1AFE58-107D-4787-BDA0-D82FB635C3A6";
verticalStems = (
55
);
weight = Light;
weightValue = 55;
xHeight = 514;
},
{
alignmentZones = (
"{750, 15}",
"{710, 15}",
"{525, 15}",
"{-15, 15}",
"{-210, 15}"
);
ascender = 750;
capHeight = 710;
customParameters = (
{
name = paramArea;
value = "385";
},
{
name = paramDepth;
value = "14";
},
{
name = paramOver;
value = "3";
}
);
descender = -195;
guideLines = (
{
position = "{44, -210}";
}
);
id = "C76CAC8E-7AD6-478C-8F7E-02FEF6F1EA84";
userData = {
GSOffsetHorizontal = 19;
GSOffsetMakeStroke = 1;
GSOffsetVertical = 16;
};
verticalStems = (
140
);
weightValue = 140;
xHeight = 525;
},
{
alignmentZones = (
"{750, 15}",
"{710, 15}",
"{534, 15}",
"{-15, 15}",
"{-210, 15}"
);
ascender = 750;
capHeight = 710;
descender = -195;
id = "84435905-EDCB-4949-A8A3-0E53308A2F50";
verticalStems = (
205
);
weight = Bold;
weightValue = 205;
xHeight = 534;
}
);
glyphs = (
{
color = 4;
glyphname = A;
lastChange = "2017-07-25 09:50:53 +0000";
layers = (
{
background = {
paths = (
{
closed = 1;
nodes = (
"548 122 LINE",
"548 237 LINE",
"140 237 LINE",
"140 122 LINE"
);
},
{
closed = 1;
nodes = (
"449 670 LINE",
"242 670 LINE",
"5 0 LINE",
"160 0 LINE",
"342 559 LINE",
"349 559 LINE",
"531 0 LINE",
"686 0 LINE"
);
}
);
};
layerId = "C76CAC8E-7AD6-478C-8F7E-02FEF6F1EA84";
paths = (
{
closed = 1;
nodes = (
"574 136 LINE",
"574 251 LINE",
"145 251 LINE",
"145 136 LINE"
);
},
{
closed = 1;
nodes = (
"465 710 LINE",
"258 710 LINE",
"5 0 LINE",
"160 0 LINE",
"358 599 LINE",
"364 599 LINE",
"563 0 LINE",
"718 0 LINE"
);
}
);
width = 723;
},
{
background = {
paths = (
{
closed = 1;
nodes = (
"518 171 LINE",
"518 220 LINE",
"101 220 LINE",
"101 171 LINE"
);
},
{
closed = 1;
nodes = (
"341 670 LINE",
"269 670 LINE",
"-5 0 LINE",
"59 0 LINE",
"300 611 LINE",
"304 611 LINE",
"551 0 LINE",
"615 0 LINE"
);
}
);
};
layerId = "0A1AFE58-107D-4787-BDA0-D82FB635C3A6";
paths = (
{
closed = 1;
nodes = (
"523 172 LINE",
"523 223 LINE",
"115 223 LINE",
"115 172 LINE"
);
},
{
closed = 1;
nodes = (
"356 710 LINE",
"285 710 LINE",
"5 0 LINE",
"69 0 LINE",
"315 650 LINE",
"319 650 LINE",
"571 0 LINE",
"635 0 LINE"
);
}
);
width = 640;
userData = {
RMXScaler = {
height = 97.3000;
width = 97.3000;
};
};
},
{
background = {
paths = (
{
closed = 1;
nodes = (
"558 100 LINE",
"558 250 LINE",
"164 250 LINE",
"164 100 LINE"
);
},
{
closed = 1;
nodes = (
"517 670 LINE",
"206 670 LINE",
"5 0 LINE",
"229 0 LINE",
"358 529 LINE",
"365 529 LINE",
"494 0 LINE",
"718 0 LINE"
);
}
);
};
layerId = "84435905-EDCB-4949-A8A3-0E53308A2F50";
paths = (
{
closed = 1;
nodes = (
"589 111 LINE",
"589 263 LINE",
"170 263 LINE",
"170 111 LINE"
);
},
{
closed = 1;
nodes = (
"537 710 LINE",
"222 710 LINE",
"5 0 LINE",
"228 0 LINE",
"375 566 LINE",
"383 566 LINE",
"531 0 LINE",
"754 0 LINE"
);
}
);
width = 759;
}
);
unicode = 0041;
userData = {
RMXScaler = {
source = A;
};
};
},
{
color = 4;
glyphname = B;
lastChange = "2017-07-20 12:53:51 +0000";
layers = (
{
background = {
paths = (
{
closed = 1;
nodes = (
"228 0 LINE",
"228 670 LINE",
"83 670 LINE",
"83 0 LINE"
);
},
{
closed = 1;
nodes = (
"531 340 LINE",
"606 362 OFFCURVE",
"640 409 OFFCURVE",
"640 499 CURVE SMOOTH",
"640 603 OFFCURVE",
"589 670 OFFCURVE",
"424 670 CURVE SMOOTH",
"210 670 LINE",
"210 552 LINE",
"393 552 LINE SMOOTH",
"460 552 OFFCURVE",
"492 537 OFFCURVE",
"492 469 CURVE SMOOTH",
"492 408 OFFCURVE",
"460 388 OFFCURVE",
"393 388 CURVE SMOOTH",
"210 388 LINE",
"210 282 LINE",
"410 282 LINE SMOOTH",
"477 282 OFFCURVE",
"509 262 OFFCURVE",
"509 201 CURVE SMOOTH",
"509 133 OFFCURVE",
"477 118 OFFCURVE",
"410 118 CURVE SMOOTH",
"210 118 LINE",
"210 0 LINE",
"431 0 LINE SMOOTH",
"596 0 OFFCURVE",
"657 67 OFFCURVE",
"657 175 CURVE SMOOTH",
"657 270 OFFCURVE",
"621 316 OFFCURVE",
"531 334 CURVE"
);
}
);
};
layerId = "C76CAC8E-7AD6-478C-8F7E-02FEF6F1EA84";
paths = (
{
closed = 1;
nodes = (
"235 0 LINE",
"235 710 LINE",
"90 710 LINE",
"90 0 LINE"
);
},
{
closed = 1;
nodes = (
"557 361 LINE",
"638 382 OFFCURVE",
"675 433 OFFCURVE",
"675 529 CURVE SMOOTH",
"675 640 OFFCURVE",
"618 710 OFFCURVE",
"445 710 CURVE SMOOTH",
"217 710 LINE",
"217 593 LINE",
"417 593 LINE SMOOTH",
"491 593 OFFCURVE",
"527 574 OFFCURVE",
"527 499 CURVE SMOOTH",
"527 433 OFFCURVE",
"491 407 OFFCURVE",
"417 407 CURVE SMOOTH",
"217 407 LINE",
"217 304 LINE",
"431 304 LINE SMOOTH",
"508 304 OFFCURVE",
"546 279 OFFCURVE",
"546 211 CURVE SMOOTH",
"546 138 OFFCURVE",
"508 117 OFFCURVE",
"431 117 CURVE SMOOTH",
"217 117 LINE",
"217 0 LINE",
"451 0 LINE SMOOTH",
"625 0 OFFCURVE",
"693 72 OFFCURVE",
"693 186 CURVE SMOOTH",
"693 288 OFFCURVE",
"651 336 OFFCURVE",
"557 355 CURVE"
);
}
);
width = 738;
},
{
background = {
paths = (
{
closed = 1;
nodes = (
"161 0 LINE",
"161 670 LINE",
"102 670 LINE",
"102 0 LINE"
);
},
{
closed = 1;
nodes = (
"495 338 LINE",
"572 354 OFFCURVE",
"615 404 OFFCURVE",
"615 499 CURVE SMOOTH",
"615 603 OFFCURVE",
"555 670 OFFCURVE",
"398 670 CURVE SMOOTH",
"149 670 LINE",
"149 618 LINE",
"405 618 LINE SMOOTH",
"510 618 OFFCURVE",
"556 572 OFFCURVE",
"556 491 CURVE SMOOTH",
"556 408 OFFCURVE",
"510 359 OFFCURVE",
"405 359 CURVE SMOOTH",
"149 359 LINE",
"149 311 LINE",
"403 311 LINE SMOOTH",
"515 311 OFFCURVE",
"572 272 OFFCURVE",
"572 181 CURVE SMOOTH",
"572 90 OFFCURVE",
"515 52 OFFCURVE",
"403 52 CURVE SMOOTH",
"149 52 LINE",
"149 0 LINE",
"396 0 LINE SMOOTH",
"553 0 OFFCURVE",
"631 64 OFFCURVE",
"631 175 CURVE SMOOTH",
"631 282 OFFCURVE",
"572 321 OFFCURVE",
"495 334 CURVE"
);
}
);
};
layerId = "0A1AFE58-107D-4787-BDA0-D82FB635C3A6";
paths = (
{
closed = 1;
nodes = (
"170 0 LINE",
"170 710 LINE",
"110 710 LINE",
"110 0 LINE"
);
},
{
closed = 1;
nodes = (
"506 358 LINE",
"588 375 OFFCURVE",
"633 428 OFFCURVE",
"633 528 CURVE SMOOTH",
"633 639 OFFCURVE",
"569 710 OFFCURVE",
"405 710 CURVE SMOOTH",
"158 710 LINE",
"158 657 LINE",
"413 657 LINE SMOOTH",
"525 657 OFFCURVE",
"574 607 OFFCURVE",
"574 521 CURVE SMOOTH",
"574 433 OFFCURVE",
"525 379 OFFCURVE",
"413 379 CURVE SMOOTH",
"158 379 LINE",
"158 330 LINE",
"410 330 LINE SMOOTH",
"530 330 OFFCURVE",
"591 289 OFFCURVE",
"591 190 CURVE SMOOTH",
"591 93 OFFCURVE",
"530 53 OFFCURVE",
"410 53 CURVE SMOOTH",
"158 53 LINE",
"158 0 LINE",
"402 0 LINE SMOOTH",
"567 0 OFFCURVE",
"650 67 OFFCURVE",
"650 185 CURVE SMOOTH",
"650 299 OFFCURVE",
"587 339 OFFCURVE",
"506 353 CURVE"
);
}
);
width = 716;
userData = {
RMXScaler = {
height = 97.3000;
width = 97.3000;
};
};
},
{
background = {
paths = (
{
closed = 1;
nodes = (
"273 0 LINE",
"273 670 LINE",
"68 670 LINE",
"68 0 LINE"
);
},
{
closed = 1;
nodes = (
"553 340 LINE",
"627 362 OFFCURVE",
"660 409 OFFCURVE",
"660 499 CURVE SMOOTH",
"660 603 OFFCURVE",
"583 670 OFFCURVE",
"420 670 CURVE SMOOTH",
"255 670 LINE",
"255 513 LINE",
"384 513 LINE SMOOTH",
"430 513 OFFCURVE",
"452 502 OFFCURVE",
"452 452 CURVE SMOOTH",
"452 408 OFFCURVE",
"430 391 OFFCURVE",
"384 391 CURVE SMOOTH",
"255 391 LINE",
"255 279 LINE",
"400 279 LINE SMOOTH",
"447 279 OFFCURVE",
"469 262 OFFCURVE",
"469 218 CURVE SMOOTH",
"469 168 OFFCURVE",
"447 157 OFFCURVE",
"400 157 CURVE SMOOTH",
"255 157 LINE",
"255 0 LINE",
"436 0 LINE SMOOTH",
"600 0 OFFCURVE",
"677 67 OFFCURVE",
"677 175 CURVE SMOOTH",
"677 270 OFFCURVE",
"638 316 OFFCURVE",
"553 334 CURVE"
);
}
);
};
layerId = "84435905-EDCB-4949-A8A3-0E53308A2F50";
paths = (
{
closed = 1;
nodes = (
"283 0 LINE",
"283 710 LINE",
"73 710 LINE",
"73 0 LINE"
);
},
{
closed = 1;
nodes = (
"585 360 LINE",
"663 383 OFFCURVE",
"698 434 OFFCURVE",
"698 529 CURVE SMOOTH",
"698 639 OFFCURVE",
"620 710 OFFCURVE",
"447 710 CURVE SMOOTH",
"264 710 LINE",
"264 552 LINE",
"406 552 LINE SMOOTH",
"460 552 OFFCURVE",
"484 539 OFFCURVE",
"484 482 CURVE SMOOTH",
"484 433 OFFCURVE",
"460 413 OFFCURVE",
"406 413 CURVE SMOOTH",
"264 413 LINE",
"264 297 LINE",
"423 297 LINE SMOOTH",
"477 297 OFFCURVE",
"503 278 OFFCURVE",
"503 228 CURVE SMOOTH",
"503 171 OFFCURVE",
"477 158 OFFCURVE",
"423 158 CURVE SMOOTH",
"264 158 LINE",
"264 0 LINE",
"463 0 LINE SMOOTH",
"637 0 OFFCURVE",
"716 71 OFFCURVE",
"716 186 CURVE SMOOTH",
"716 287 OFFCURVE",
"675 336 OFFCURVE",
"585 354 CURVE"
);
}
);
width = 751;
}
);
leftMetricsKey = H;
unicode = 0042;
userData = {
RMXScaler = {
source = B;
};
};
},
{
color = 4;
glyphname = C;
lastChange = "2017-07-26 12:07:11 +0000";
layers = (
{
background = {
paths = (
{
closed = 1;
nodes = (
"598 -16 OFFCURVE",
"704 88 OFFCURVE",
"726 231 CURVE SMOOTH",
"728 244 LINE",
"576 244 LINE",
"573 232 LINE SMOOTH",
"556 165 OFFCURVE",
"510 109 OFFCURVE",
"401 109 CURVE SMOOTH",
"284 109 OFFCURVE",
"203 185 OFFCURVE",
"203 357 CURVE SMOOTH",
"203 527 OFFCURVE",
"284 602 OFFCURVE",
"396 602 CURVE SMOOTH",
"511 602 OFFCURVE",
"559 541 OFFCURVE",
"574 475 CURVE SMOOTH",
"576 466 LINE",
"728 466 LINE",
"726 481 LINE SMOOTH",
"706 632 OFFCURVE",
"591 727 OFFCURVE",
"396 727 CURVE SMOOTH",
"202 727 OFFCURVE",
"50 607 OFFCURVE",
"50 357 CURVE SMOOTH",
"50 105 OFFCURVE",
"202 -16 OFFCURVE",
"401 -16 CURVE SMOOTH"
);
}
);
};
layerId = "C76CAC8E-7AD6-478C-8F7E-02FEF6F1EA84";
paths = (
{
closed = 1;
nodes = (
"584 -15 OFFCURVE",
"699 72 OFFCURVE",
"728 230 CURVE",
"576 245 LINE",
"558 160 OFFCURVE",
"504 110 OFFCURVE",
"401 110 CURVE SMOOTH",
"284 110 OFFCURVE",
"203 185 OFFCURVE",
"203 357 CURVE SMOOTH",
"203 527 OFFCURVE",
"284 600 OFFCURVE",
"396 600 CURVE SMOOTH",
"495 600 OFFCURVE",
"548 555 OFFCURVE",
"576 464 CURVE",
"728 479 LINE",
"696 634 OFFCURVE",
"589 725 OFFCURVE",
"396 725 CURVE SMOOTH",
"202 725 OFFCURVE",
"50 607 OFFCURVE",
"50 357 CURVE SMOOTH",
"50 105 OFFCURVE",
"202 -15 OFFCURVE",
"401 -15 CURVE SMOOTH"
);
}
);
width = 778;
},
{
background = {
paths = (
{
closed = 1;
nodes = (
"545 -15 OFFCURVE",
"638 75 OFFCURVE",
"676 202 CURVE SMOOTH",
"680 215 LINE",
"619 215 LINE",
"615 204 LINE SMOOTH",
"575 93 OFFCURVE",
"511 36 OFFCURVE",
"384 36 CURVE SMOOTH",
"257 36 OFFCURVE",
"122 119 OFFCURVE",
"122 354 CURVE SMOOTH",
"122 591 OFFCURVE",
"257 674 OFFCURVE",
"381 674 CURVE SMOOTH",
"502 674 OFFCURVE",
"580 611 OFFCURVE",
"616 501 CURVE SMOOTH",
"619 492 LINE",
"680 492 LINE",
"678 501 LINE SMOOTH",
"649 629 OFFCURVE",
"541 725 OFFCURVE",
"382 725 CURVE SMOOTH",
"223 725 OFFCURVE",
"60 617 OFFCURVE",
"60 354 CURVE SMOOTH",
"60 92 OFFCURVE",
"223 -15 OFFCURVE",
"385 -15 CURVE SMOOTH"
);
}
);
};
layerId = "0A1AFE58-107D-4787-BDA0-D82FB635C3A6";
paths = (
{
closed = 1;
nodes = (
"533 -15 OFFCURVE",
"620 56 OFFCURVE",
"676 205 CURVE",
"619 215 LINE",
"571 91 OFFCURVE",
"506 36 OFFCURVE",
"384 36 CURVE SMOOTH",
"257 36 OFFCURVE",
"122 119 OFFCURVE",
"122 354 CURVE SMOOTH",
"122 591 OFFCURVE",
"257 674 OFFCURVE",
"381 674 CURVE SMOOTH",
"511 674 OFFCURVE",
"572 613 OFFCURVE",
"619 492 CURVE",
"676 502 LINE",
"631 635 OFFCURVE",
"551 725 OFFCURVE",
"382 725 CURVE SMOOTH",
"223 725 OFFCURVE",
"60 617 OFFCURVE",
"60 354 CURVE SMOOTH",
"60 92 OFFCURVE",
"223 -15 OFFCURVE",
"385 -15 CURVE SMOOTH"
);
}
);
width = 736;
userData = {
RMXScaler = {
height = 97.3000;
width = 97.3000;
};
};
},
{
background = {
paths = (
{
closed = 1;
nodes = (
"609 -15 OFFCURVE",
"714 86 OFFCURVE",
"721 244 CURVE SMOOTH",
"722 265 LINE",
"516 265 LINE",
"513 253 LINE SMOOTH",
"501 206 OFFCURVE",
"479 158 OFFCURVE",
"394 158 CURVE SMOOTH",
"303 158 OFFCURVE",
"263 215 OFFCURVE",
"263 353 CURVE SMOOTH",
"263 489 OFFCURVE",
"304 553 OFFCURVE",
"394 553 CURVE SMOOTH",
"480 553 OFFCURVE",
"500 503 OFFCURVE",
"513 456 CURVE SMOOTH",
"516 445 LINE",
"722 445 LINE",
"721 466 LINE SMOOTH",
"714 618 OFFCURVE",
"607 725 OFFCURVE",
"394 725 CURVE SMOOTH",
"167 725 OFFCURVE",
"40 592 OFFCURVE",
"40 353 CURVE SMOOTH",
"40 120 OFFCURVE",
"167 -15 OFFCURVE",
"394 -15 CURVE SMOOTH"
);
}
);
};
layerId = "84435905-EDCB-4949-A8A3-0E53308A2F50";
paths = (
{
closed = 1;
nodes = (
"609 -15 OFFCURVE",
"691 85 OFFCURVE",
"722 255 CURVE",
"516 275 LINE",
"499 202 OFFCURVE",
"469 158 OFFCURVE",
"394 158 CURVE SMOOTH",
"303 158 OFFCURVE",
"263 215 OFFCURVE",
"263 353 CURVE SMOOTH",
"263 489 OFFCURVE",
"304 553 OFFCURVE",
"394 553 CURVE SMOOTH",
"466 553 OFFCURVE",
"497 512 OFFCURVE",
"516 435 CURVE",
"722 455 LINE",
"700 626 OFFCURVE",
"601 725 OFFCURVE",
"394 725 CURVE SMOOTH",
"167 725 OFFCURVE",
"40 592 OFFCURVE",
"40 353 CURVE SMOOTH",
"40 120 OFFCURVE",
"167 -15 OFFCURVE",
"394 -15 CURVE SMOOTH"
);
}
);
width = 762;
}
);
leftMetricsKey = O;
rightMetricsKey = O;
unicode = 0043;
userData = {
RMXScaler = {
source = C;
};
};
},
{
color = 4;
glyphname = D;
lastChange = "2017-07-20 08:17:56 +0000";
layers = (
{
background = {
paths = (
{
closed = 1;
nodes = (
"231 0 LINE",
"231 670 LINE",
"83 670 LINE",
"83 0 LINE"
);
},
{
closed = 1;
nodes = (
"198 125 LINE",
"198 0 LINE",
"345 0 LINE SMOOTH",
"562 0 OFFCURVE",
"682 111 OFFCURVE",
"682 335 CURVE SMOOTH",
"682 561 OFFCURVE",
"561 670 OFFCURVE",
"355 670 CURVE SMOOTH",
"198 670 LINE",
"198 545 LINE",
"342 545 LINE SMOOTH",
"456 545 OFFCURVE",
"529 497 OFFCURVE",
"529 335 CURVE SMOOTH",
"529 173 OFFCURVE",
"456 125 OFFCURVE",
"342 125 CURVE SMOOTH"
);
}
);
};
layerId = "C76CAC8E-7AD6-478C-8F7E-02FEF6F1EA84";
paths = (
{
closed = 1;
nodes = (
"238 0 LINE",
"238 710 LINE",
"90 710 LINE",
"90 0 LINE"
);
},
{
closed = 1;
nodes = (
"203 124 LINE",
"203 0 LINE",
"358 0 LINE SMOOTH",
"589 0 OFFCURVE",
"717 116 OFFCURVE",
"717 356 CURVE SMOOTH",
"717 597 OFFCURVE",
"588 710 OFFCURVE",
"368 710 CURVE SMOOTH",
"203 710 LINE",
"203 586 LINE",
"357 586 LINE SMOOTH",
"483 586 OFFCURVE",
"564 533 OFFCURVE",
"564 356 CURVE SMOOTH",
"564 177 OFFCURVE",
"483 124 OFFCURVE",
"357 124 CURVE SMOOTH"
);
}
);
width = 767;
},
{
background = {
paths = (
{
closed = 1;
nodes = (
"162 0 LINE",
"162 670 LINE",
"102 670 LINE",
"102 0 LINE"
);
},
{
closed = 1;
nodes = (
"129 51 LINE",
"129 0 LINE",
"288 0 LINE SMOOTH",
"516 0 OFFCURVE",
"643 100 OFFCURVE",
"643 335 CURVE SMOOTH",
"643 572 OFFCURVE",
"515 670 OFFCURVE",
"298 670 CURVE SMOOTH",
"129 670 LINE",
"129 619 LINE",
"305 619 LINE SMOOTH",
"469 619 OFFCURVE",
"581 554 OFFCURVE",
"581 335 CURVE SMOOTH",
"581 116 OFFCURVE",
"469 51 OFFCURVE",
"305 51 CURVE SMOOTH"
);
}
);
};
layerId = "0A1AFE58-107D-4787-BDA0-D82FB635C3A6";
paths = (
{
closed = 1;
nodes = (
"170 0 LINE",
"170 710 LINE",
"110 710 LINE",
"110 0 LINE"
);
},
{
closed = 1;
nodes = (
"135 51 LINE",
"135 0 LINE",
"288 0 LINE SMOOTH",
"528 0 OFFCURVE",
"662 105 OFFCURVE",
"662 353 CURVE SMOOTH",
"662 607 OFFCURVE",
"527 710 OFFCURVE",
"297 710 CURVE SMOOTH",
"135 710 LINE",
"135 659 LINE",
"306 659 LINE SMOOTH",
"481 659 OFFCURVE",
"600 589 OFFCURVE",
"600 353 CURVE SMOOTH",
"600 121 OFFCURVE",
"481 51 OFFCURVE",
"306 51 CURVE SMOOTH"
);
}
);
width = 722;
userData = {
RMXScaler = {
height = 97.3000;
width = 97.3000;
};
};
},
{
background = {
paths = (
{
closed = 1;
nodes = (
"282 0 LINE",
"282 670 LINE",
"68 670 LINE",
"68 0 LINE"
);
},
{
closed = 1;
nodes = (
"250 168 LINE",
"250 0 LINE",
"378 0 LINE SMOOTH",
"590 0 OFFCURVE",
"714 111 OFFCURVE",
"714 335 CURVE SMOOTH",
"714 561 OFFCURVE",
"589 670 OFFCURVE",
"388 670 CURVE SMOOTH",
"250 670 LINE",
"250 502 LINE",
"360 502 LINE SMOOTH",
"453 502 OFFCURVE",
"496 454 OFFCURVE",
"496 335 CURVE SMOOTH",
"496 216 OFFCURVE",
"453 168 OFFCURVE",
"360 168 CURVE SMOOTH"
);
}
);
};
layerId = "84435905-EDCB-4949-A8A3-0E53308A2F50";
paths = (
{
closed = 1;
nodes = (
"291 0 LINE",
"291 710 LINE",
"73 710 LINE",
"73 0 LINE"
);
},
{
closed = 1;
nodes = (
"252 167 LINE",
"252 0 LINE",
"389 0 LINE SMOOTH",
"615 0 OFFCURVE",
"746 118 OFFCURVE",
"746 355 CURVE SMOOTH",
"746 595 OFFCURVE",
"614 710 OFFCURVE",
"400 710 CURVE SMOOTH",
"252 710 LINE",
"252 543 LINE",
"372 543 LINE SMOOTH",
"476 543 OFFCURVE",
"523 491 OFFCURVE",
"523 355 CURVE SMOOTH",
"523 219 OFFCURVE",
"476 167 OFFCURVE",
"372 167 CURVE SMOOTH"
);
}
);
width = 786;
}
);
leftMetricsKey = H;
rightMetricsKey = O;
unicode = 0044;
userData = {
RMXScaler = {
source = D;
};
};
},
{
color = 4;
glyphname = E;
lastChange = "2017-07-20 12:55:40 +0000";
layers = (
{
background = {
paths = (
{
closed = 1;
nodes = (
"226 0 LINE",
"226 670 LINE",
"83 670 LINE",
"83 0 LINE"
);
},
{
closed = 1;
nodes = (
"598 0 LINE",
"598 125 LINE",
"178 125 LINE",
"178 0 LINE"
);
},
{
closed = 1;
nodes = (
"598 545 LINE",
"598 670 LINE",
"178 670 LINE",
"178 545 LINE"
);
},
{
closed = 1;
nodes = (
"538 275 LINE",
"538 390 LINE",
"178 390 LINE",
"178 275 LINE"
);
}
);
};
layerId = "C76CAC8E-7AD6-478C-8F7E-02FEF6F1EA84";
paths = (
{
closed = 1;
nodes = (
"235 0 LINE",
"235 710 LINE",
"90 710 LINE",
"90 0 LINE"
);
},
{
closed = 1;
nodes = (
"628 0 LINE",
"628 125 LINE",
"187 125 LINE",
"187 0 LINE"
);
},
{
closed = 1;
nodes = (
"628 585 LINE",
"628 710 LINE",
"187 710 LINE",
"187 585 LINE"
);
},
{
closed = 1;
nodes = (
"565 297 LINE",
"565 412 LINE",
"187 412 LINE",
"187 297 LINE"
);
}
);
width = 678;
},
{
background = {
paths = (
{
closed = 1;
nodes = (
"161 0 LINE",
"161 670 LINE",
"102 670 LINE",
"102 0 LINE"
);
},
{
closed = 1;
nodes = (
"550 0 LINE",
"550 54 LINE",
"147 54 LINE",
"147 0 LINE"
);
},
{
closed = 1;
nodes = (
"550 616 LINE",
"550 670 LINE",
"147 670 LINE",
"147 616 LINE"
);
},
{
closed = 1;
nodes = (
"487 317 LINE",
"487 367 LINE",
"147 367 LINE",
"147 317 LINE"
);
}
);
};
layerId = "0A1AFE58-107D-4787-BDA0-D82FB635C3A6";
paths = (
{
closed = 1;
nodes = (
"170 0 LINE",
"170 710 LINE",
"110 710 LINE",
"110 0 LINE"
);
},
{
closed = 1;
nodes = (
"580 0 LINE",
"580 53 LINE",
"157 53 LINE",
"157 0 LINE"
);
},
{
closed = 1;
nodes = (
"580 657 LINE",
"580 710 LINE",
"157 710 LINE",
"157 657 LINE"
);
},
{
closed = 1;
nodes = (
"514 336 LINE",
"514 387 LINE",
"157 387 LINE",
"157 336 LINE"
);
}
);
width = 653;
userData = {
RMXScaler = {
height = 97.3000;
width = 97.3000;
};
};
},
{
background = {
paths = (
{
closed = 1;
nodes = (
"282 0 LINE",
"282 670 LINE",
"68 670 LINE",
"68 0 LINE"
);
},
{
closed = 1;
nodes = (
"615 0 LINE",
"615 168 LINE",
"183 168 LINE",
"183 0 LINE"
);
},
{
closed = 1;
nodes = (
"615 502 LINE",
"615 670 LINE",
"183 670 LINE",
"183 502 LINE"
);
},
{
closed = 1;
nodes = (
"556 262 LINE",
"556 407 LINE",
"183 407 LINE",
"183 262 LINE"
);
}
);
};
layerId = "84435905-EDCB-4949-A8A3-0E53308A2F50";
paths = (
{
closed = 1;
nodes = (
"287 0 LINE",
"287 710 LINE",
"73 710 LINE",
"73 0 LINE"
);
},
{
closed = 1;
nodes = (
"646 0 LINE",
"646 169 LINE",
"191 169 LINE",
"191 0 LINE"
);
},
{
closed = 1;
nodes = (
"646 541 LINE",
"646 710 LINE",
"191 710 LINE",
"191 541 LINE"
);
},
{
closed = 1;
nodes = (
"584 281 LINE",
"584 428 LINE",
"191 428 LINE",
"191 281 LINE"
);
}
);
width = 695;
}
);
leftMetricsKey = "=H";
unicode = 0045;
userData = {
RMXScaler = {
source = E;
};
};
},
{
color = 4;
glyphname = F;
lastChange = "2017-07-24 09:16:44 +0000";
layers = (
{
background = {
paths = (
{
closed = 1;
nodes = (
"226 0 LINE",
"226 670 LINE",
"83 670 LINE",
"83 0 LINE"
);
},
{
closed = 1;
nodes = (
"573 545 LINE",
"573 670 LINE",
"178 670 LINE",
"178 545 LINE"
);
},
{
closed = 1;
nodes = (
"513 253 LINE",
"513 370 LINE",
"178 370 LINE",
"178 253 LINE"
);
}
);
};
layerId = "C76CAC8E-7AD6-478C-8F7E-02FEF6F1EA84";
paths = (
{
closed = 1;
nodes = (
"238 0 LINE",
"238 710 LINE",
"90 710 LINE",
"90 0 LINE"
);
},
{
closed = 1;
nodes = (
"604 585 LINE",
"604 710 LINE",
"190 710 LINE",
"190 585 LINE"
);
},
{
closed = 1;
nodes = (
"541 275 LINE",
"541 392 LINE",
"190 392 LINE",
"190 275 LINE"
);
}
);
width = 624;
},
{
background = {
paths = (
{
closed = 1;
nodes = (
"161 0 LINE",
"161 670 LINE",
"102 670 LINE",
"102 0 LINE"
);
},
{
closed = 1;
nodes = (
"547 616 LINE",
"547 670 LINE",
"147 670 LINE",
"147 616 LINE"
);
},
{
closed = 1;
nodes = (
"484 309 LINE",
"484 359 LINE",
"147 359 LINE",
"147 309 LINE"
);
}
);
};
layerId = "0A1AFE58-107D-4787-BDA0-D82FB635C3A6";
paths = (
{
closed = 1;
nodes = (
"170 0 LINE",
"170 710 LINE",
"110 710 LINE",
"110 0 LINE"
);
},
{
closed = 1;
nodes = (
"567 657 LINE",
"567 710 LINE",
"157 710 LINE",
"157 657 LINE"
);
},
{
closed = 1;
nodes = (
"500 331 LINE",
"500 381 LINE",
"157 381 LINE",
"157 331 LINE"
);
}
);
width = 586;
userData = {
RMXScaler = {
height = 97.3000;
width = 97.3000;
};
};
},
{
background = {
paths = (
{
closed = 1;
nodes = (
"277 0 LINE",
"277 670 LINE",
"68 670 LINE",
"68 0 LINE"
);
},
{
closed = 1;
nodes = (
"600 497 LINE",
"600 670 LINE",
"183 670 LINE",
"183 497 LINE"
);
},
{
closed = 1;
nodes = (
"541 229 LINE",
"541 379 LINE",
"183 379 LINE",
"183 229 LINE"
);
}
);
};
layerId = "84435905-EDCB-4949-A8A3-0E53308A2F50";
paths = (
{
closed = 1;
nodes = (
"291 0 LINE",
"291 710 LINE",
"73 710 LINE",
"73 0 LINE"
);
},
{
closed = 1;
nodes = (
"629 538 LINE",
"629 710 LINE",
"191 710 LINE",
"191 538 LINE"
);
},
{
closed = 1;
nodes = (
"566 248 LINE",
"566 401 LINE",
"191 401 LINE",
"191 248 LINE"
);
}
);
width = 649;
}
);
leftMetricsKey = H;
unicode = 0046;
userData = {
RMXScaler = {
source = F;
};
};
},
{
color = 4;
glyphname = G;
lastChange = "2017-07-26 11:58:21 +0000";
layers = (
{
background = {
paths = (
{
closed = 1;
nodes = (
"492 -16 OFFCURVE",
"564 45 OFFCURVE",
"598 111 CURVE",
"635 111 LINE",
"635 269 LINE",
"600 269 LINE",
"578 179 OFFCURVE",
"516 106 OFFCURVE",
"403 106 CURVE SMOOTH",
"280 106 OFFCURVE",
"201 185 OFFCURVE",
"201 357 CURVE SMOOTH",
"201 527 OFFCURVE",
"284 602 OFFCURVE",
"402 602 CURVE SMOOTH",
"499 602 OFFCURVE",
"551 558 OFFCURVE",
"575 497 CURVE SMOOTH",
"579 487 LINE",
"731 487 LINE",
"727 505 LINE SMOOTH",
"700 627 OFFCURVE",
"597 727 OFFCURVE",
"403 727 CURVE SMOOTH",
"202 727 OFFCURVE",
"50 607 OFFCURVE",
"50 357 CURVE SMOOTH",
"50 105 OFFCURVE",
"197 -16 OFFCURVE",
"370 -16 CURVE SMOOTH"
);
},
{
closed = 1;
nodes = (
"738 260 LINE",
"738 371 LINE",
"431 371 LINE",
"431 260 LINE"
);
},
{
closed = 1;
nodes = (
"738 0 LINE",
"738 288 LINE",
"600 288 LINE",
"600 136 LINE",
"620 0 LINE"
);
}
);
};
layerId = "C76CAC8E-7AD6-478C-8F7E-02FEF6F1EA84";
paths = (
{
closed = 1;
nodes = (
"492 -15 OFFCURVE",
"564 45 OFFCURVE",
"598 111 CURVE",
"635 111 LINE",
"635 269 LINE",
"600 269 LINE",
"578 179 OFFCURVE",
"516 107 OFFCURVE",
"403 107 CURVE SMOOTH",
"280 107 OFFCURVE",
"201 185 OFFCURVE",
"201 357 CURVE SMOOTH",
"201 527 OFFCURVE",
"284 600 OFFCURVE",
"402 600 CURVE SMOOTH",
"495 600 OFFCURVE",
"553 560 OFFCURVE",
"579 485 CURVE",
"731 500 LINE",
"699 643 OFFCURVE",
"582 725 OFFCURVE",
"403 725 CURVE SMOOTH",
"202 725 OFFCURVE",
"50 607 OFFCURVE",
"50 357 CURVE SMOOTH",
"50 105 OFFCURVE",
"197 -15 OFFCURVE",
"370 -15 CURVE SMOOTH"
);
},
{
closed = 1;
nodes = (
"738 260 LINE",
"738 371 LINE",
"431 371 LINE",
"431 260 LINE"
);
},
{
closed = 1;
nodes = (
"738 0 LINE",
"738 288 LINE",
"600 288 LINE",
"600 136 LINE",
"620 0 LINE"
);
}
);
width = 803;
},
{
background = {
paths = (
{
closed = 1;
nodes = (
"528 -15 OFFCURVE",
"603 82 OFFCURVE",
"631 140 CURVE",
"666 140 LINE",
"666 272 LINE",
"636 272 LINE",
"608 134 OFFCURVE",
"520 35 OFFCURVE",
"378 35 CURVE SMOOTH",
"257 35 OFFCURVE",
"122 119 OFFCURVE",
"122 353 CURVE SMOOTH",
"122 591 OFFCURVE",
"257 674 OFFCURVE",
"379 674 CURVE SMOOTH",
"499 674 OFFCURVE",
"581 617 OFFCURVE",
"616 511 CURVE SMOOTH",
"619 502 LINE",
"680 502 LINE",
"677 514 LINE SMOOTH",
"644 648 OFFCURVE",
"534 725 OFFCURVE",
"381 725 CURVE SMOOTH",
"223 725 OFFCURVE",
"60 617 OFFCURVE",
"60 353 CURVE SMOOTH",
"60 91 OFFCURVE",
"223 -15 OFFCURVE",
"379 -15 CURVE SMOOTH"
);
},
{
closed = 1;
nodes = (
"689 289 LINE",
"689 336 LINE",
"435 336 LINE",
"435 289 LINE"
);
},
{
closed = 1;
nodes = (
"689 0 LINE",
"689 300 LINE",
"636 300 LINE",
"636 138 LINE",
"644 0 LINE"
);
}
);
};
layerId = "0A1AFE58-107D-4787-BDA0-D82FB635C3A6";
paths = (
{
closed = 1;
nodes = (
"528 -15 OFFCURVE",
"603 82 OFFCURVE",
"631 140 CURVE",
"666 140 LINE",
"666 272 LINE",
"636 272 LINE",
"608 134 OFFCURVE",
"520 35 OFFCURVE",
"378 35 CURVE SMOOTH",
"257 35 OFFCURVE",
"122 119 OFFCURVE",
"122 353 CURVE SMOOTH",
"122 591 OFFCURVE",
"257 674 OFFCURVE",
"379 674 CURVE SMOOTH",
"502 674 OFFCURVE",
"574 615 OFFCURVE",
"619 502 CURVE",
"676 512 LINE",
"632 644 OFFCURVE",
"537 725 OFFCURVE",
"381 725 CURVE SMOOTH",
"223 725 OFFCURVE",
"60 617 OFFCURVE",
"60 353 CURVE SMOOTH",
"60 91 OFFCURVE",
"223 -15 OFFCURVE",
"379 -15 CURVE SMOOTH"
);
},
{
closed = 1;
nodes = (
"689 289 LINE",
"689 336 LINE",
"435 336 LINE",
"435 289 LINE"
);
},
{
closed = 1;
nodes = (
"689 0 LINE",
"689 300 LINE",
"636 300 LINE",
"636 138 LINE",
"644 0 LINE"
);
}
);
width = 776;
userData = {
RMXScaler = {
height = 97.3000;
width = 97.3000;
};
};
},
{
background = {
paths = (
{
closed = 1;
nodes = (
"472 -15 OFFCURVE",
"532 40 OFFCURVE",
"559 101 CURVE",
"603 101 LINE",
"603 271 LINE",
"558 271 LINE",
"544 198 OFFCURVE",
"495 150 OFFCURVE",
"410 150 CURVE SMOOTH",
"302 150 OFFCURVE",
"263 218 OFFCURVE",
"263 353 CURVE SMOOTH",
"263 489 OFFCURVE",
"304 553 OFFCURVE",
"403 553 CURVE SMOOTH",
"484 553 OFFCURVE",
"514 520 OFFCURVE",
"530 482 CURVE SMOOTH",
"533 475 LINE",
"738 475 LINE",
"736 492 LINE SMOOTH",
"721 620 OFFCURVE",
"625 725 OFFCURVE",
"403 725 CURVE SMOOTH",
"167 725 OFFCURVE",
"40 592 OFFCURVE",
"40 353 CURVE SMOOTH",
"40 120 OFFCURVE",
"158 -15 OFFCURVE",
"362 -15 CURVE SMOOTH"
);
},
{
closed = 1;
nodes = (
"748 253 LINE",
"748 390 LINE",
"417 390 LINE",
"417 253 LINE"
);
},
{
closed = 1;
nodes = (
"748 0 LINE",
"748 287 LINE",
"558 287 LINE",
"558 135 LINE",
"592 0 LINE"
);
}
);
};
layerId = "84435905-EDCB-4949-A8A3-0E53308A2F50";
paths = (
{
closed = 1;
nodes = (
"472 -15 OFFCURVE",
"532 40 OFFCURVE",
"559 101 CURVE",
"603 101 LINE",
"603 271 LINE",
"558 271 LINE",
"544 198 OFFCURVE",
"495 150 OFFCURVE",
"410 150 CURVE SMOOTH",
"302 150 OFFCURVE",
"263 218 OFFCURVE",
"263 353 CURVE SMOOTH",
"263 489 OFFCURVE",
"304 553 OFFCURVE",
"403 553 CURVE SMOOTH",
"474 553 OFFCURVE",
"513 519 OFFCURVE",
"533 465 CURVE",
"738 485 LINE",
"715 633 OFFCURVE",
"612 725 OFFCURVE",
"403 725 CURVE SMOOTH",
"167 725 OFFCURVE",
"40 592 OFFCURVE",
"40 353 CURVE SMOOTH",
"40 120 OFFCURVE",
"158 -15 OFFCURVE",
"362 -15 CURVE SMOOTH"
);
},
{
closed = 1;
nodes = (
"748 253 LINE",
"748 390 LINE",
"417 390 LINE",
"417 253 LINE"
);
},
{
closed = 1;
nodes = (
"748 0 LINE",
"748 287 LINE",
"558 287 LINE",
"558 135 LINE",
"592 0 LINE"
);
}
);
width = 811;
}
);
leftMetricsKey = O;
unicode = 0047;
userData = {
RMXScaler = {
source = G;
};
};
},
{
color = 4;
glyphname = H;
lastChange = "2017-07-25 14:20:23 +0000";
layers = (
{
background = {
paths = (
{
closed = 1;
nodes = (
"729 0 LINE",
"729 730 LINE",
"581 730 LINE",
"581 0 LINE"
);
},
{
closed = 1;
nodes = (
"242 0 LINE",
"242 730 LINE",
"94 730 LINE",
"94 0 LINE"
);
},
{
closed = 1;
nodes = (
"664 304 LINE",
"664 429 LINE",
"154 429 LINE",
"154 304 LINE"
);
}
);
};
layerId = "C76CAC8E-7AD6-478C-8F7E-02FEF6F1EA84";
paths = (
{
closed = 1;
nodes = (
"711 0 LINE",
"711 710 LINE",
"563 710 LINE",
"563 0 LINE"
);
},
{
closed = 1;
nodes = (
"238 0 LINE",
"238 710 LINE",
"90 710 LINE",
"90 0 LINE"
);
},
{
closed = 1;
nodes = (
"645 295 LINE",
"645 419 LINE",
"153 419 LINE",
"153 295 LINE"
);
}
);
width = 801;
},
{
background = {
paths = (
{
closed = 1;
nodes = (
"623 0 LINE",
"623 670 LINE",
"563 670 LINE",
"563 0 LINE"
);
},
{
closed = 1;
nodes = (
"162 0 LINE",
"162 670 LINE",
"102 670 LINE",
"102 0 LINE"
);
},
{
closed = 1;
nodes = (
"591 317 LINE",
"591 369 LINE",
"138 369 LINE",
"138 317 LINE"
);
}
);
};
layerId = "0A1AFE58-107D-4787-BDA0-D82FB635C3A6";
paths = (
{
closed = 1;
nodes = (
"657 0 LINE",
"657 710 LINE",
"597 710 LINE",
"597 0 LINE"
);
},
{
closed = 1;
nodes = (
"170 0 LINE",
"170 710 LINE",
"110 710 LINE",
"110 0 LINE"
);
},
{
closed = 1;
nodes = (
"624 336 LINE",
"624 389 LINE",
"147 389 LINE",
"147 336 LINE"
);
}
);
width = 767;
userData = {
RMXScaler = {
height = 97.3000;
width = 97.3000;
};
};
},
{
background = {
paths = (
{
closed = 1;
nodes = (
"707 0 LINE",
"707 670 LINE",
"487 670 LINE",
"487 0 LINE"
);
},
{
closed = 1;
nodes = (
"287 0 LINE",
"287 670 LINE",
"68 670 LINE",
"68 0 LINE"
);
},
{
closed = 1;
nodes = (
"592 250 LINE",
"592 419 LINE",
"206 419 LINE",
"206 250 LINE"
);
}
);
};
layerId = "84435905-EDCB-4949-A8A3-0E53308A2F50";
paths = (
{
closed = 1;
nodes = (
"741 0 LINE",
"741 710 LINE",
"521 710 LINE",
"521 0 LINE"
);
},
{
closed = 1;
nodes = (
"293 0 LINE",
"293 710 LINE",
"73 710 LINE",
"73 0 LINE"
);
},
{
closed = 1;
nodes = (
"628 270 LINE",
"628 440 LINE",
"205 440 LINE",
"205 270 LINE"
);
}
);
width = 814;
}
);
unicode = 0048;
userData = {
RMXScaler = {
source = H;
};
};
},
{
color = 4;
glyphname = I;
lastChange = "2017-07-25 14:20:23 +0000";
layers = (
{
layerId = "C76CAC8E-7AD6-478C-8F7E-02FEF6F1EA84";
paths = (
{
closed = 1;
nodes = (
"238 0 LINE",
"238 710 LINE",
"90 710 LINE",
"90 0 LINE"
);
}
);
width = 328;
},
{
background = {
paths = (
{
closed = 1;
nodes = (
"170 0 LINE",
"170 670 LINE",
"110 670 LINE",
"110 0 LINE"
);
}
);
};
layerId = "0A1AFE58-107D-4787-BDA0-D82FB635C3A6";
paths = (
{
closed = 1;
nodes = (
"170 0 LINE",
"170 710 LINE",
"110 710 LINE",
"110 0 LINE"
);
}
);
width = 280;
},
{
background = {
paths = (
{
closed = 1;
nodes = (
"292 0 LINE",
"292 670 LINE",
"73 670 LINE",
"73 0 LINE"
);
}
);
};
layerId = "84435905-EDCB-4949-A8A3-0E53308A2F50";
paths = (
{
closed = 1;
nodes = (
"292 0 LINE",
"292 710 LINE",
"73 710 LINE",
"73 0 LINE"
);
}
);
width = 365;
}
);
leftMetricsKey = "=H";
rightMetricsKey = "=H";
unicode = 0049;
userData = {
RMXScaler = {
source = I;
};
};
},
{
color = 4;
glyphname = J;
lastChange = "2017-07-26 12:00:42 +0000";
layers = (
{
background = {
paths = (
{
closed = 1;
nodes = (
"209 109 OFFCURVE",
"174 151 OFFCURVE",
"165 233 CURVE SMOOTH",
"164 242 LINE",
"15 242 LINE",
"16 224 LINE SMOOTH",
"25 69 OFFCURVE",
"120 -16 OFFCURVE",
"289 -16 CURVE SMOOTH",
"469 -16 OFFCURVE",
"566 67 OFFCURVE",
"566 279 CURVE SMOOTH",
"566 710 LINE",
"418 710 LINE",
"418 277 LINE SMOOTH",
"418 157 OFFCURVE",
"381 109 OFFCURVE",
"292 109 CURVE SMOOTH"
);
}
);
};
layerId = "C76CAC8E-7AD6-478C-8F7E-02FEF6F1EA84";
paths = (
{
closed = 1;
nodes = (
"210 110 OFFCURVE",
"177 154 OFFCURVE",
"164 242 CURVE",
"15 227 LINE",
"24 75 OFFCURVE",
"109 -15 OFFCURVE",
"289 -15 CURVE SMOOTH",
"469 -15 OFFCURVE",
"566 67 OFFCURVE",
"566 279 CURVE SMOOTH",
"566 710 LINE",
"418 710 LINE",
"418 277 LINE SMOOTH",
"418 157 OFFCURVE",
"381 110 OFFCURVE",
"292 110 CURVE SMOOTH"
);
}
);
width = 646;
},
{
background = {
paths = (
{
closed = 1;
nodes = (
"145 35 OFFCURVE",
"94 99 OFFCURVE",
"79 188 CURVE SMOOTH",
"76 206 LINE",
"14 206 LINE",
"17 187 LINE SMOOTH",
"36 68 OFFCURVE",
"109 -16 OFFCURVE",
"253 -16 CURVE SMOOTH",
"403 -16 OFFCURVE",
"497 74 OFFCURVE",
"497 285 CURVE SMOOTH",
"497 710 LINE",
"437 710 LINE",
"437 283 LINE SMOOTH",
"437 93 OFFCURVE",
"366 35 OFFCURVE",
"252 35 CURVE SMOOTH"
);
}
);
};
layerId = "0A1AFE58-107D-4787-BDA0-D82FB635C3A6";
paths = (
{
closed = 1;
nodes = (
"147 36 OFFCURVE",
"100 96 OFFCURVE",
"76 206 CURVE",
"16 196 LINE",
"44 65 OFFCURVE",
"110 -15 OFFCURVE",
"253 -15 CURVE SMOOTH",
"403 -15 OFFCURVE",
"497 74 OFFCURVE",
"497 285 CURVE SMOOTH",
"497 710 LINE",
"437 710 LINE",
"437 283 LINE SMOOTH",
"437 93 OFFCURVE",
"366 36 OFFCURVE",
"252 36 CURVE SMOOTH"
);
}
);
width = 597;
userData = {
RMXScaler = {
height = 97.3000;
width = 97.3000;
};
};
},
{
background = {
paths = (
{
closed = 1;
nodes = (
"239 157 OFFCURVE",
"222 193 OFFCURVE",
"216 262 CURVE SMOOTH",
"215 274 LINE",
"4 274 LINE",
"5 249 LINE SMOOTH",
"12 75 OFFCURVE",
"94 -16 OFFCURVE",
"310 -16 CURVE SMOOTH",
"495 -16 OFFCURVE",
"605 72 OFFCURVE",
"605 284 CURVE SMOOTH",
"605 710 LINE",
"385 710 LINE",
"385 283 LINE SMOOTH",
"385 196 OFFCURVE",
"364 157 OFFCURVE",
"302 157 CURVE SMOOTH"
);
}
);
};
layerId = "84435905-EDCB-4949-A8A3-0E53308A2F50";
paths = (
{
closed = 1;
nodes = (
"240 158 OFFCURVE",
"232 200 OFFCURVE",
"215 284 CURVE",
"4 264 LINE",
"17 85 OFFCURVE",
"91 -15 OFFCURVE",
"310 -15 CURVE SMOOTH",
"495 -15 OFFCURVE",
"605 72 OFFCURVE",
"605 284 CURVE SMOOTH",
"605 710 LINE",
"385 710 LINE",
"385 283 LINE SMOOTH",
"385 196 OFFCURVE",
"369 158 OFFCURVE",
"307 158 CURVE SMOOTH"
);
}
);
width = 668;
}
);
rightMetricsKey = U;
unicode = 004A;
userData = {
RMXScaler = {
source = J;
};
};
},
{
color = 4;
glyphname = K;
lastChange = "2017-07-24 09:17:55 +0000";
layers = (
{
background = {
paths = (
{
closed = 1;
nodes = (
"284 272 LINE",
"666 670 LINE",
"491 670 LINE",
"237 393 LINE",
"214 393 LINE",
"214 272 LINE"
);
},
{
closed = 1;
nodes = (
"231 0 LINE",
"231 670 LINE",
"83 670 LINE",
"83 0 LINE"
);
},
{
closed = 1;
nodes = (
"671 0 LINE",
"357 380 LINE",
"243 314 LINE",
"498 0 LINE"
);
}
);
};
layerId = "C76CAC8E-7AD6-478C-8F7E-02FEF6F1EA84";
paths = (
{
closed = 1;
nodes = (
"296 294 LINE",
"697 710 LINE",
"523 710 LINE",
"244 412 LINE",
"219 412 LINE",
"219 294 LINE"
);
},
{
closed = 1;
nodes = (
"238 0 LINE",
"238 710 LINE",
"90 710 LINE",
"90 0 LINE"
);
},
{
closed = 1;
nodes = (
"703 0 LINE",
"365 412 LINE",
"251 336 LINE",
"533 0 LINE"
);
}
);
width = 708;
},
{
background = {
paths = (
{
closed = 1;
nodes = (
"196 317 LINE",
"596 670 LINE",
"518 670 LINE",
"165 358 LINE",
"141 358 LINE",
"141 317 LINE"
);
},
{
closed = 1;
nodes = (
"162 0 LINE",
"162 670 LINE",
"102 670 LINE",
"102 0 LINE"
);
},
{
closed = 1;
nodes = (
"606 0 LINE",
"208 371 LINE",
"169 331 LINE",
"527 0 LINE"
);
}
);
};
layerId = "0A1AFE58-107D-4787-BDA0-D82FB635C3A6";
paths = (
{
closed = 1;
nodes = (
"192 336 LINE",
"612 710 LINE",
"534 710 LINE",
"173 386 LINE",
"148 386 LINE",
"148 336 LINE"
);
},
{
closed = 1;
nodes = (
"170 0 LINE",
"170 710 LINE",
"110 710 LINE",
"110 0 LINE"
);
},
{
closed = 1;
nodes = (
"622 0 LINE",
"214 391 LINE",
"176 350 LINE",
"544 0 LINE"
);
}
);
width = 627;
userData = {
RMXScaler = {
height = 97.3000;
width = 97.3000;
};
};
},
{
background = {
paths = (
{
closed = 1;
nodes = (
"407 250 LINE",
"714 670 LINE",
"480 670 LINE",
"288 400 LINE",
"248 400 LINE",
"248 250 LINE"
);
},
{
closed = 1;
nodes = (
"281 0 LINE",
"281 670 LINE",
"67 670 LINE",
"67 0 LINE"
);
},
{
closed = 1;
nodes = (
"719 0 LINE",
"483 405 LINE",
"306 301 LINE",
"480 0 LINE"
);
}
);
};
layerId = "84435905-EDCB-4949-A8A3-0E53308A2F50";
paths = (
{
closed = 1;
nodes = (
"413 269 LINE",
"745 710 LINE",
"513 710 LINE",
"301 422 LINE",
"259 422 LINE",
"259 269 LINE"
);
},
{
closed = 1;
nodes = (
"292 0 LINE",
"292 710 LINE",
"73 710 LINE",
"73 0 LINE"
);
},
{
closed = 1;
nodes = (
"751 0 LINE",
"491 425 LINE",
"316 322 LINE",
"517 0 LINE"
);
}
);
width = 756;
}
);
leftMetricsKey = H;
unicode = 004B;
userData = {
RMXScaler = {
source = K;
};
};
},
{
color = 4;
glyphname = L;
lastChange = "2017-07-20 08:18:11 +0000";
layers = (
{
background = {
paths = (
{
closed = 1;
nodes = (
"231 0 LINE",
"231 670 LINE",
"83 670 LINE",
"83 0 LINE"
);
},
{
closed = 1;
nodes = (
"536 0 LINE",
"536 125 LINE",
"178 125 LINE",
"178 0 LINE"
);
}
);
};
layerId = "C76CAC8E-7AD6-478C-8F7E-02FEF6F1EA84";
paths = (
{
closed = 1;
nodes = (
"238 0 LINE",
"238 710 LINE",
"90 710 LINE",
"90 0 LINE"
);
},
{
closed = 1;
nodes = (
"563 0 LINE",
"563 125 LINE",
"187 125 LINE",
"187 0 LINE"
);
}
);
width = 583;
},
{
background = {
paths = (
{
closed = 1;
nodes = (
"162 0 LINE",
"162 670 LINE",
"102 670 LINE",
"102 0 LINE"
);
},
{
closed = 1;
nodes = (
"502 0 LINE",
"502 54 LINE",
"157 54 LINE",
"157 0 LINE"
);
}
);
};
layerId = "0A1AFE58-107D-4787-BDA0-D82FB635C3A6";
paths = (
{
closed = 1;
nodes = (
"170 0 LINE",
"170 710 LINE",
"110 710 LINE",
"110 0 LINE"
);
},
{
closed = 1;
nodes = (
"514 0 LINE",
"514 53 LINE",
"157 53 LINE",
"157 0 LINE"
);
}
);
width = 524;
userData = {
RMXScaler = {
height = 97.3000;
width = 97.3000;
};
};
},
{
background = {
paths = (
{
closed = 1;
nodes = (
"282 0 LINE",
"282 670 LINE",
"68 670 LINE",
"68 0 LINE"
);
},
{
closed = 1;
nodes = (
"556 0 LINE",
"556 173 LINE",
"183 173 LINE",
"183 0 LINE"
);
}
);
};
layerId = "84435905-EDCB-4949-A8A3-0E53308A2F50";
paths = (
{
closed = 1;
nodes = (
"293 0 LINE",
"293 710 LINE",
"73 710 LINE",
"73 0 LINE"
);
},
{
closed = 1;
nodes = (
"583 0 LINE",
"583 174 LINE",
"191 174 LINE",
"191 0 LINE"
);
}
);
width = 597;
}
);
leftMetricsKey = "=H";
unicode = 004C;
userData = {
RMXScaler = {
source = L;
};
};
},
{
color = 4;
glyphname = M;
lastChange = "2017-07-20 08:18:12 +0000";
layers = (
{
background = {
paths = (
{
closed = 1;
nodes = (
"636 670 LINE",
"472 175 LINE",
"464 175 LINE",
"300 670 LINE",
"83 670 LINE",
"83 0 LINE",
"219 0 LINE",
"219 539 LINE",
"204 516 LINE",
"226 516 LINE",
"401 0 LINE",
"535 0 LINE",
"710 516 LINE",
"732 516 LINE",
"717 539 LINE",
"717 0 LINE",
"853 0 LINE",
"853 670 LINE"
);
}
);
};
layerId = "C76CAC8E-7AD6-478C-8F7E-02FEF6F1EA84";
paths = (
{
closed = 1;
nodes = (
"679 710 LINE",
"497 175 LINE",
"489 175 LINE",
"307 710 LINE",
"90 710 LINE",
"90 0 LINE",
"226 0 LINE",
"226 580 LINE",
"211 557 LINE",
"234 557 LINE",
"426 0 LINE",
"560 0 LINE",
"753 557 LINE",
"776 557 LINE",
"760 580 LINE",
"760 0 LINE",
"896 0 LINE",
"896 710 LINE"
);
}
);
width = 986;
},
{
background = {
paths = (
{
closed = 1;
nodes = (
"683 670 LINE",
"438 68 LINE",
"432 68 LINE",
"185 670 LINE",
"91 670 LINE",
"91 0 LINE",
"146 0 LINE",
"146 614 LINE",
"136 606 LINE",
"153 606 LINE",
"403 0 LINE",
"465 0 LINE",
"715 606 LINE",
"734 606 LINE",
"722 625 LINE",
"722 0 LINE",
"777 0 LINE",
"777 670 LINE"
);
}
);
};
layerId = "0A1AFE58-107D-4787-BDA0-D82FB635C3A6";
paths = (
{
closed = 1;
nodes = (
"712 710 LINE",
"463 68 LINE",
"456 68 LINE",
"206 710 LINE",
"110 710 LINE",
"110 0 LINE",
"166 0 LINE",
"166 653 LINE",
"156 645 LINE",
"174 645 LINE",
"427 0 LINE",
"490 0 LINE",
"745 645 LINE",
"764 645 LINE",
"751 666 LINE",
"751 0 LINE",
"807 0 LINE",
"807 710 LINE"
);
}
);
width = 917;
userData = {
RMXScaler = {
height = 97.3000;
width = 97.3000;
};
};
},
{
background = {
paths = (
{
closed = 1;
nodes = (
"623 670 LINE",
"494 235 LINE",
"486 235 LINE",
"357 670 LINE",
"68 670 LINE",
"68 0 LINE",
"254 0 LINE",
"254 487 LINE",
"236 461 LINE",
"261 461 LINE",
"406 0 LINE",
"573 0 LINE",
"719 461 LINE",
"744 461 LINE",
"726 478 LINE",
"726 0 LINE",
"912 0 LINE",
"912 670 LINE"
);
}
);
};
layerId = "84435905-EDCB-4949-A8A3-0E53308A2F50";
paths = (
{
closed = 1;
nodes = (
"656 710 LINE",
"518 246 LINE",
"509 246 LINE",
"370 710 LINE",
"73 710 LINE",
"73 0 LINE",
"265 0 LINE",
"265 526 LINE",
"247 500 LINE",
"272 500 LINE",
"428 0 LINE",
"598 0 LINE",
"754 500 LINE",
"780 500 LINE",
"761 518 LINE",
"761 0 LINE",
"953 0 LINE",
"953 710 LINE"
);
}
);
width = 1026;
}
);
leftMetricsKey = H;
rightMetricsKey = H;
unicode = 004D;
userData = {
RMXScaler = {
source = M;
};
};
},
{
color = 4;
glyphname = N;
lastChange = "2017-07-20 08:18:14 +0000";
layers = (
{
background = {
paths = (
{
closed = 1;
nodes = (
"543 219 LINE",
"231 670 LINE",
"83 670 LINE",
"83 0 LINE",
"219 0 LINE",
"219 469 LINE",
"206 451 LINE",
"225 451 LINE",
"538 0 LINE",
"686 0 LINE",
"686 670 LINE",
"550 670 LINE",
"550 190 LINE",
"572 219 LINE"
);
}
);
};
layerId = "C76CAC8E-7AD6-478C-8F7E-02FEF6F1EA84";
paths = (
{
closed = 1;
nodes = (
"580 218 LINE",
"237 710 LINE",
"90 710 LINE",
"90 0 LINE",
"226 0 LINE",
"226 512 LINE",
"213 492 LINE",
"232 492 LINE",
"574 0 LINE",
"722 0 LINE",
"722 710 LINE",
"586 710 LINE",
"586 189 LINE",
"608 218 LINE"
);
}
);
width = 812;
},
{
background = {
paths = (
{
closed = 1;
nodes = (
"585 102 LINE",
"150 670 LINE",
"102 670 LINE",
"102 0 LINE",
"156 0 LINE",
"156 587 LINE",
"148 568 LINE",
"160 568 LINE",
"595 0 LINE",
"643 0 LINE",
"643 670 LINE",
"589 670 LINE",
"589 75 LINE",
"609 102 LINE"
);
}
);
};
layerId = "0A1AFE58-107D-4787-BDA0-D82FB635C3A6";
paths = (
{
closed = 1;
nodes = (
"602 106 LINE",
"159 710 LINE",
"110 710 LINE",
"110 0 LINE",
"166 0 LINE",
"166 623 LINE",
"158 604 LINE",
"170 604 LINE",
"613 0 LINE",
"662 0 LINE",
"662 710 LINE",
"606 710 LINE",
"606 78 LINE",
"627 106 LINE"
);
}
);
width = 772;
userData = {
RMXScaler = {
height = 97.3000;
width = 97.3000;
};
};
},
{
background = {
paths = (
{
closed = 1;
nodes = (
"523 273 LINE",
"291 670 LINE",
"68 670 LINE",
"68 0 LINE",
"263 0 LINE",
"263 424 LINE",
"240 398 LINE",
"269 398 LINE",
"502 0 LINE",
"725 0 LINE",
"725 670 LINE",
"530 670 LINE",
"530 251 LINE",
"551 273 LINE"
);
}
);
};
layerId = "84435905-EDCB-4949-A8A3-0E53308A2F50";
paths = (
{
closed = 1;
nodes = (
"554 279 LINE",
"302 710 LINE",
"73 710 LINE",
"73 0 LINE",
"271 0 LINE",
"271 459 LINE",
"249 433 LINE",
"278 433 LINE",
"530 0 LINE",
"758 0 LINE",
"758 710 LINE",
"561 710 LINE",
"561 254 LINE",
"583 279 LINE"
);
}
);
width = 831;
}
);
leftMetricsKey = "=H";
rightMetricsKey = "=H";
unicode = 004E;
userData = {
RMXScaler = {
source = N;
};
};
},
{
color = 4;
glyphname = O;
lastChange = "2017-07-25 14:20:23 +0000";
layers = (
{
background = {
paths = (
{
closed = 1;
nodes = (
"648 -16 OFFCURVE",
"784 119 OFFCURVE",
"784 365 CURVE SMOOTH",
"784 612 OFFCURVE",
"648 747 OFFCURVE",
"418 747 CURVE SMOOTH",
"188 747 OFFCURVE",
"52 612 OFFCURVE",
"52 365 CURVE SMOOTH",
"52 119 OFFCURVE",
"188 -16 OFFCURVE",
"418 -16 CURVE SMOOTH"
);
},
{
closed = 1;
nodes = (
"272 109 OFFCURVE",
"205 204 OFFCURVE",
"205 365 CURVE SMOOTH",
"205 526 OFFCURVE",
"272 622 OFFCURVE",
"418 622 CURVE SMOOTH",
"564 622 OFFCURVE",
"631 526 OFFCURVE",
"631 365 CURVE SMOOTH",
"631 204 OFFCURVE",
"564 109 OFFCURVE",
"418 109 CURVE SMOOTH"
);
}
);
};
layerId = "C76CAC8E-7AD6-478C-8F7E-02FEF6F1EA84";
paths = (
{
closed = 1;
nodes = (
"631 -15 OFFCURVE",
"763 117 OFFCURVE",
"763 355 CURVE SMOOTH",
"763 594 OFFCURVE",
"631 725 OFFCURVE",
"407 725 CURVE SMOOTH",
"182 725 OFFCURVE",
"50 594 OFFCURVE",
"50 355 CURVE SMOOTH",
"50 117 OFFCURVE",
"182 -15 OFFCURVE",
"407 -15 CURVE SMOOTH"
);
},
{
closed = 1;
nodes = (
"266 110 OFFCURVE",
"203 201 OFFCURVE",
"203 355 CURVE SMOOTH",
"203 508 OFFCURVE",
"266 600 OFFCURVE",
"407 600 CURVE SMOOTH",
"547 600 OFFCURVE",
"611 508 OFFCURVE",
"611 355 CURVE SMOOTH",
"611 201 OFFCURVE",
"547 110 OFFCURVE",
"407 110 CURVE SMOOTH"
);
}
);
width = 813;
},
{
background = {
paths = (
{
closed = 1;
nodes = (
"553 -15 OFFCURVE",
"682 109 OFFCURVE",
"682 335 CURVE SMOOTH",
"682 562 OFFCURVE",
"553 685 OFFCURVE",
"365 685 CURVE SMOOTH",
"176 685 OFFCURVE",
"47 562 OFFCURVE",
"47 335 CURVE SMOOTH",
"47 109 OFFCURVE",
"176 -15 OFFCURVE",
"365 -15 CURVE SMOOTH"
);
},
{
closed = 1;
nodes = (
"200 36 OFFCURVE",
"109 146 OFFCURVE",
"109 335 CURVE SMOOTH",
"109 524 OFFCURVE",
"200 634 OFFCURVE",
"365 634 CURVE SMOOTH",
"529 634 OFFCURVE",
"620 524 OFFCURVE",
"620 335 CURVE SMOOTH",
"620 146 OFFCURVE",
"529 36 OFFCURVE",
"365 36 CURVE SMOOTH"
);
}
);
};
layerId = "0A1AFE58-107D-4787-BDA0-D82FB635C3A6";
paths = (
{
closed = 1;
nodes = (
"576 -15 OFFCURVE",
"712 116 OFFCURVE",
"712 354 CURVE SMOOTH",
"712 595 OFFCURVE",
"576 725 OFFCURVE",
"386 725 CURVE SMOOTH",
"195 725 OFFCURVE",
"60 595 OFFCURVE",
"60 354 CURVE SMOOTH",
"60 116 OFFCURVE",
"195 -15 OFFCURVE",
"386 -15 CURVE SMOOTH"
);
},
{
closed = 1;
nodes = (
"219 36 OFFCURVE",
"122 154 OFFCURVE",
"122 354 CURVE SMOOTH",
"122 556 OFFCURVE",
"219 674 OFFCURVE",
"386 674 CURVE SMOOTH",
"552 674 OFFCURVE",
"650 556 OFFCURVE",
"650 354 CURVE SMOOTH",
"650 154 OFFCURVE",
"552 36 OFFCURVE",
"386 36 CURVE SMOOTH"
);
}
);
width = 772;
userData = {
RMXScaler = {
height = 97.3000;
width = 97.3000;
};
};
},
{
background = {
paths = (
{
closed = 1;
nodes = (
"615 -15 OFFCURVE",
"732 109 OFFCURVE",
"732 335 CURVE SMOOTH",
"732 562 OFFCURVE",
"615 685 OFFCURVE",
"384 685 CURVE SMOOTH",
"154 685 OFFCURVE",
"37 562 OFFCURVE",
"37 335 CURVE SMOOTH",
"37 109 OFFCURVE",
"154 -15 OFFCURVE",
"384 -15 CURVE SMOOTH"
);
},
{
closed = 1;
nodes = (
"291 158 OFFCURVE",
"255 222 OFFCURVE",
"255 335 CURVE SMOOTH",
"255 448 OFFCURVE",
"291 512 OFFCURVE",
"384 512 CURVE SMOOTH",
"479 512 OFFCURVE",
"514 448 OFFCURVE",
"514 335 CURVE SMOOTH",
"514 222 OFFCURVE",
"479 158 OFFCURVE",
"384 158 CURVE SMOOTH"
);
}
);
};
layerId = "84435905-EDCB-4949-A8A3-0E53308A2F50";
paths = (
{
closed = 1;
nodes = (
"647 -15 OFFCURVE",
"773 117 OFFCURVE",
"773 355 CURVE SMOOTH",
"773 593 OFFCURVE",
"647 725 OFFCURVE",
"405 725 CURVE SMOOTH",
"165 725 OFFCURVE",
"40 593 OFFCURVE",
"40 355 CURVE SMOOTH",
"40 117 OFFCURVE",
"165 -15 OFFCURVE",
"405 -15 CURVE SMOOTH"
);
},
{
closed = 1;
nodes = (
"301 158 OFFCURVE",
"263 231 OFFCURVE",
"263 355 CURVE SMOOTH",
"263 479 OFFCURVE",
"301 552 OFFCURVE",
"405 552 CURVE SMOOTH",
"513 552 OFFCURVE",
"550 479 OFFCURVE",
"550 355 CURVE SMOOTH",
"550 231 OFFCURVE",
"513 158 OFFCURVE",
"405 158 CURVE SMOOTH"
);
}
);
width = 813;
}
);
unicode = 004F;
userData = {
RMXScaler = {
source = O;
};
};
},
{
color = 4;
glyphname = P;
lastChange = "2017-07-24 09:19:53 +0000";
layers = (
{
background = {
paths = (
{
closed = 1;
nodes = (
"231 0 LINE",
"231 670 LINE",
"83 670 LINE",
"83 0 LINE"
);
},
{
closed = 1;
nodes = (
"213 354 LINE",
"213 234 LINE",
"396 234 LINE SMOOTH",
"574 234 OFFCURVE",
"643 318 OFFCURVE",
"643 452 CURVE SMOOTH",
"643 587 OFFCURVE",
"574 670 OFFCURVE",
"396 670 CURVE SMOOTH",
"213 670 LINE",
"213 545 LINE",
"361 545 LINE SMOOTH",
"458 545 OFFCURVE",
"500 527 OFFCURVE",
"500 452 CURVE SMOOTH",
"500 377 OFFCURVE",
"458 354 OFFCURVE",
"361 354 CURVE SMOOTH"
);
}
);
};
layerId = "C76CAC8E-7AD6-478C-8F7E-02FEF6F1EA84";
paths = (
{
closed = 1;
nodes = (
"238 0 LINE",
"238 710 LINE",
"90 710 LINE",
"90 0 LINE"
);
},
{
closed = 1;
nodes = (
"219 374 LINE",
"219 253 LINE",
"413 253 LINE SMOOTH",
"603 253 OFFCURVE",
"676 341 OFFCURVE",
"676 482 CURVE SMOOTH",
"676 626 OFFCURVE",
"602 710 OFFCURVE",
"417 710 CURVE SMOOTH",
"219 710 LINE",
"219 588 LINE",
"383 588 LINE SMOOTH",
"489 588 OFFCURVE",
"533 566 OFFCURVE",
"533 483 CURVE SMOOTH",
"533 400 OFFCURVE",
"489 374 OFFCURVE",
"381 374 CURVE SMOOTH"
);
}
);
width = 716;
},
{
background = {
paths = (
{
closed = 1;
nodes = (
"162 0 LINE",
"162 670 LINE",
"102 670 LINE",
"102 0 LINE"
);
},
{
closed = 1;
nodes = (
"143 332 LINE",
"143 282 LINE",
"352 282 LINE SMOOTH",
"540 282 OFFCURVE",
"602 352 OFFCURVE",
"602 475 CURVE SMOOTH",
"602 610 OFFCURVE",
"525 670 OFFCURVE",
"375 670 CURVE SMOOTH",
"143 670 LINE",
"143 619 LINE",
"361 619 LINE SMOOTH",
"499 619 OFFCURVE",
"545 578 OFFCURVE",
"545 475 CURVE SMOOTH",
"545 372 OFFCURVE",
"499 332 OFFCURVE",
"349 332 CURVE SMOOTH"
);
}
);
};
layerId = "0A1AFE58-107D-4787-BDA0-D82FB635C3A6";
paths = (
{
closed = 1;
nodes = (
"170 0 LINE",
"170 710 LINE",
"110 710 LINE",
"110 0 LINE"
);
},
{
closed = 1;
nodes = (
"150 351 LINE",
"150 300 LINE",
"355 300 LINE SMOOTH",
"554 300 OFFCURVE",
"619 374 OFFCURVE",
"619 505 CURVE SMOOTH",
"619 647 OFFCURVE",
"537 710 OFFCURVE",
"380 710 CURVE SMOOTH",
"150 710 LINE",
"150 658 LINE",
"366 658 LINE SMOOTH",
"514 658 OFFCURVE",
"562 613 OFFCURVE",
"562 503 CURVE SMOOTH",
"562 393 OFFCURVE",
"514 351 OFFCURVE",
"353 351 CURVE SMOOTH"
);
}
);
width = 653;
userData = {
RMXScaler = {
height = 97.3000;
width = 97.3000;
};
};
},
{
background = {
paths = (
{
closed = 1;
nodes = (
"282 0 LINE",
"282 670 LINE",
"68 670 LINE",
"68 0 LINE"
);
},
{
closed = 1;
nodes = (
"264 358 LINE",
"264 204 LINE",
"418 204 LINE SMOOTH",
"599 204 OFFCURVE",
"678 292 OFFCURVE",
"678 435 CURVE SMOOTH",
"678 587 OFFCURVE",
"599 670 OFFCURVE",
"427 670 CURVE SMOOTH",
"264 670 LINE",
"264 510 LINE",
"392 510 LINE SMOOTH",
"450 510 OFFCURVE",
"473 488 OFFCURVE",
"473 435 CURVE SMOOTH",
"473 381 OFFCURVE",
"450 358 OFFCURVE",
"392 358 CURVE SMOOTH"
);
}
);
};
layerId = "84435905-EDCB-4949-A8A3-0E53308A2F50";
paths = (
{
closed = 1;
nodes = (
"293 0 LINE",
"293 710 LINE",
"73 710 LINE",
"73 0 LINE"
);
},
{
closed = 1;
nodes = (
"274 381 LINE",
"274 222 LINE",
"441 222 LINE SMOOTH",
"632 222 OFFCURVE",
"715 315 OFFCURVE",
"715 464 CURVE SMOOTH",
"715 622 OFFCURVE",
"632 710 OFFCURVE",
"450 710 CURVE SMOOTH",
"274 710 LINE",
"274 551 LINE",
"410 551 LINE SMOOTH",
"479 551 OFFCURVE",
"506 528 OFFCURVE",
"506 468 CURVE SMOOTH",
"506 406 OFFCURVE",
"479 381 OFFCURVE",
"410 381 CURVE SMOOTH"
);
}
);
width = 754;
}
);
leftMetricsKey = H;
unicode = 0050;
userData = {
RMXScaler = {
source = P;
};
};
},
{
color = 4;
glyphname = Q;
lastChange = "2017-07-26 09:28:26 +0000";
layers = (
{
background = {
paths = (
{
closed = 1;
nodes = (
"705 -90 LINE",
"567 92 LINE",
"541 92 LINE",
"441 225 LINE",
"305 225 LINE",
"452 18 LINE",
"477 18 LINE",
"559 -90 LINE"
);
},
{
closed = 1;
nodes = (
"600 -15 OFFCURVE",
"724 109 OFFCURVE",
"724 335 CURVE SMOOTH",
"724 561 OFFCURVE",
"600 685 OFFCURVE",
"384 685 CURVE SMOOTH",
"168 685 OFFCURVE",
"44 561 OFFCURVE",
"44 335 CURVE SMOOTH",
"44 109 OFFCURVE",
"168 -15 OFFCURVE",
"384 -15 CURVE SMOOTH"
);
},
{
closed = 1;
nodes = (
"254 110 OFFCURVE",
"197 194 OFFCURVE",
"197 335 CURVE SMOOTH",
"197 476 OFFCURVE",
"254 560 OFFCURVE",
"384 560 CURVE SMOOTH",
"514 560 OFFCURVE",
"571 476 OFFCURVE",
"571 335 CURVE SMOOTH",
"571 194 OFFCURVE",
"514 110 OFFCURVE",
"384 110 CURVE SMOOTH"
);
}
);
};
layerId = "C76CAC8E-7AD6-478C-8F7E-02FEF6F1EA84";
paths = (
{
closed = 1;
nodes = (
"742 -97 LINE",
"599 92 LINE",
"574 92 LINE",
"463 237 LINE",
"326 237 LINE",
"484 19 LINE",
"508 19 LINE",
"597 -97 LINE"
);
},
{
closed = 1;
nodes = (
"631 -15 OFFCURVE",
"763 117 OFFCURVE",
"763 356 CURVE SMOOTH",
"763 594 OFFCURVE",
"631 725 OFFCURVE",
"407 725 CURVE SMOOTH",
"182 725 OFFCURVE",
"50 594 OFFCURVE",
"50 356 CURVE SMOOTH",
"50 117 OFFCURVE",
"182 -15 OFFCURVE",
"407 -15 CURVE SMOOTH"
);
},
{
closed = 1;
nodes = (
"266 110 OFFCURVE",
"203 201 OFFCURVE",
"203 356 CURVE SMOOTH",
"203 508 OFFCURVE",
"266 600 OFFCURVE",
"407 600 CURVE SMOOTH",
"547 600 OFFCURVE",
"611 508 OFFCURVE",
"611 356 CURVE SMOOTH",
"611 201 OFFCURVE",
"547 110 OFFCURVE",
"407 110 CURVE SMOOTH"
);
}
);
width = 813;
},
{
background = {
paths = (
{
closed = 1;
nodes = (
"647 -101 LINE",
"525 42 LINE",
"520 42 LINE",
"383 202 LINE",
"314 202 LINE",
"476 15 LINE",
"480 15 LINE",
"582 -101 LINE"
);
},
{
closed = 1;
nodes = (
"554 -15 OFFCURVE",
"683 109 OFFCURVE",
"683 335 CURVE SMOOTH",
"683 562 OFFCURVE",
"554 685 OFFCURVE",
"366 685 CURVE SMOOTH",
"177 685 OFFCURVE",
"48 562 OFFCURVE",
"48 335 CURVE SMOOTH",
"48 109 OFFCURVE",
"177 -15 OFFCURVE",
"366 -15 CURVE SMOOTH"
);
},
{
closed = 1;
nodes = (
"202 36 OFFCURVE",
"111 147 OFFCURVE",
"111 335 CURVE SMOOTH",
"111 524 OFFCURVE",
"202 634 OFFCURVE",
"366 634 CURVE SMOOTH",
"530 634 OFFCURVE",
"620 524 OFFCURVE",
"620 335 CURVE SMOOTH",
"620 147 OFFCURVE",
"530 36 OFFCURVE",
"366 36 CURVE SMOOTH"
);
}
);
};
layerId = "0A1AFE58-107D-4787-BDA0-D82FB635C3A6";
paths = (
{
closed = 1;
nodes = (
"682 -106 LINE",
"554 44 LINE",
"548 44 LINE",
"404 213 LINE",
"340 213 LINE",
"504 17 LINE",
"511 17 LINE",
"618 -106 LINE"
);
},
{
closed = 1;
nodes = (
"576 -15 OFFCURVE",
"712 116 OFFCURVE",
"712 354 CURVE SMOOTH",
"712 595 OFFCURVE",
"576 725 OFFCURVE",
"386 725 CURVE SMOOTH",
"195 725 OFFCURVE",
"60 595 OFFCURVE",
"60 354 CURVE SMOOTH",
"60 116 OFFCURVE",
"195 -15 OFFCURVE",
"386 -15 CURVE SMOOTH"
);
},
{
closed = 1;
nodes = (
"219 36 OFFCURVE",
"122 154 OFFCURVE",
"122 354 CURVE SMOOTH",
"122 556 OFFCURVE",
"219 674 OFFCURVE",
"386 674 CURVE SMOOTH",
"552 674 OFFCURVE",
"650 556 OFFCURVE",
"650 354 CURVE SMOOTH",
"650 154 OFFCURVE",
"552 36 OFFCURVE",
"386 36 CURVE SMOOTH"
);
}
);
width = 772;
userData = {
RMXScaler = {
height = 97.3000;
width = 97.3000;
};
};
},
{
background = {
paths = (
{
closed = 1;
nodes = (
"723 -81 LINE",
"591 109 LINE",
"536 109 LINE",
"459 242 LINE",
"304 242 LINE",
"430 35 LINE",
"450 35 LINE",
"534 -81 LINE"
);
},
{
closed = 1;
nodes = (
"615 -15 OFFCURVE",
"732 109 OFFCURVE",
"732 335 CURVE SMOOTH",
"732 562 OFFCURVE",
"615 685 OFFCURVE",
"384 685 CURVE SMOOTH",
"154 685 OFFCURVE",
"37 562 OFFCURVE",
"37 335 CURVE SMOOTH",
"37 109 OFFCURVE",
"154 -15 OFFCURVE",
"384 -15 CURVE SMOOTH"
);
},
{
closed = 1;
nodes = (
"286 153 OFFCURVE",
"251 213 OFFCURVE",
"251 335 CURVE SMOOTH",
"251 448 OFFCURVE",
"286 512 OFFCURVE",
"384 512 CURVE SMOOTH",
"483 512 OFFCURVE",
"519 448 OFFCURVE",
"519 335 CURVE SMOOTH",
"519 213 OFFCURVE",
"483 153 OFFCURVE",
"384 153 CURVE SMOOTH"
);
}
);
};
layerId = "84435905-EDCB-4949-A8A3-0E53308A2F50";
paths = (
{
closed = 1;
nodes = (
"751 -88 LINE",
"611 112 LINE",
"574 112 LINE",
"477 262 LINE",
"317 262 LINE",
"459 34 LINE",
"481 34 LINE",
"570 -88 LINE"
);
},
{
closed = 1;
nodes = (
"647 -16 OFFCURVE",
"771 116 OFFCURVE",
"771 355 CURVE SMOOTH",
"771 595 OFFCURVE",
"647 726 OFFCURVE",
"405 726 CURVE SMOOTH",
"165 726 OFFCURVE",
"40 595 OFFCURVE",
"40 355 CURVE SMOOTH",
"40 116 OFFCURVE",
"165 -16 OFFCURVE",
"405 -16 CURVE SMOOTH"
);
},
{
closed = 1;
nodes = (
"294 154 OFFCURVE",
"258 222 OFFCURVE",
"258 355 CURVE SMOOTH",
"258 481 OFFCURVE",
"294 554 OFFCURVE",
"405 554 CURVE SMOOTH",
"519 554 OFFCURVE",
"553 481 OFFCURVE",
"553 355 CURVE SMOOTH",
"553 222 OFFCURVE",
"519 154 OFFCURVE",
"405 154 CURVE SMOOTH"
);
}
);
width = 811;
}
);
leftMetricsKey = O;
rightMetricsKey = O;
unicode = 0051;
userData = {
RMXScaler = {
source = Q;
};
};
},
{
color = 4;
glyphname = R;
lastChange = "2017-07-24 09:21:02 +0000";
layers = (
{
background = {
paths = (
{
closed = 1;
nodes = (
"231 0 LINE",
"231 670 LINE",
"83 670 LINE",
"83 0 LINE"
);
},
{
closed = 1;
nodes = (
"213 364 LINE",
"213 249 LINE",
"378 249 LINE SMOOTH",
"566 249 OFFCURVE",
"648 328 OFFCURVE",
"648 457 CURVE SMOOTH",
"648 587 OFFCURVE",
"579 670 OFFCURVE",
"401 670 CURVE SMOOTH",
"213 670 LINE",
"213 545 LINE",
"366 545 LINE SMOOTH",
"463 545 OFFCURVE",
"505 527 OFFCURVE",
"505 457 CURVE SMOOTH",
"505 387 OFFCURVE",
"463 364 OFFCURVE",
"366 364 CURVE SMOOTH"
);
},
{
closed = 1;
nodes = (
"648 0 LINE",
"443 313 LINE",
"294 313 LINE",
"488 0 LINE"
);
}
);
};
layerId = "C76CAC8E-7AD6-478C-8F7E-02FEF6F1EA84";
paths = (
{
closed = 1;
nodes = (
"238 0 LINE",
"238 710 LINE",
"90 710 LINE",
"90 0 LINE"
);
},
{
closed = 1;
nodes = (
"219 385 LINE",
"219 270 LINE",
"399 270 LINE SMOOTH",
"599 270 OFFCURVE",
"682 355 OFFCURVE",
"682 488 CURVE SMOOTH",
"682 626 OFFCURVE",
"606 710 OFFCURVE",
"421 710 CURVE SMOOTH",
"219 710 LINE",
"219 588 LINE",
"388 588 LINE SMOOTH",
"494 588 OFFCURVE",
"539 566 OFFCURVE",
"539 489 CURVE SMOOTH",
"539 413 OFFCURVE",
"494 385 OFFCURVE",
"387 385 CURVE SMOOTH"
);
},
{
closed = 1;
nodes = (
"681 0 LINE",
"459 331 LINE",
"302 331 LINE",
"516 0 LINE"
);
}
);
width = 732;
},
{
background = {
paths = (
{
closed = 1;
nodes = (
"161 0 LINE",
"161 670 LINE",
"102 670 LINE",
"102 0 LINE"
);
},
{
closed = 1;
nodes = (
"143 342 LINE",
"143 294 LINE",
"359 294 LINE SMOOTH",
"556 294 OFFCURVE",
"607 384 OFFCURVE",
"607 480 CURVE SMOOTH",
"607 610 OFFCURVE",
"530 670 OFFCURVE",
"380 670 CURVE SMOOTH",
"143 670 LINE",
"143 619 LINE",
"366 619 LINE SMOOTH",
"504 619 OFFCURVE",
"550 578 OFFCURVE",
"550 480 CURVE SMOOTH",
"550 393 OFFCURVE",
"504 342 OFFCURVE",
"354 342 CURVE SMOOTH"
);
},
{
closed = 1;
nodes = (
"595 0 LINE",
"342 308 LINE",
"276 308 LINE",
"525 0 LINE"
);
}
);
};
layerId = "0A1AFE58-107D-4787-BDA0-D82FB635C3A6";
paths = (
{
closed = 1;
nodes = (
"170 0 LINE",
"170 710 LINE",
"110 710 LINE",
"110 0 LINE"
);
},
{
closed = 1;
nodes = (
"151 364 LINE",
"151 314 LINE",
"364 314 LINE SMOOTH",
"572 314 OFFCURVE",
"624 410 OFFCURVE",
"624 510 CURVE SMOOTH",
"624 647 OFFCURVE",
"542 710 OFFCURVE",
"385 710 CURVE SMOOTH",
"151 710 LINE",
"151 658 LINE",
"371 658 LINE SMOOTH",
"518 658 OFFCURVE",
"567 615 OFFCURVE",
"567 510 CURVE SMOOTH",
"567 418 OFFCURVE",
"518 364 OFFCURVE",
"359 364 CURVE SMOOTH"
);
},
{
closed = 1;
nodes = (
"611 0 LINE",
"343 328 LINE",
"274 328 LINE",
"540 0 LINE"
);
}
);
width = 688;
userData = {
RMXScaler = {
height = 97.3000;
width = 97.3000;
};
};
},
{
background = {
paths = (
{
closed = 1;
nodes = (
"282 0 LINE",
"282 670 LINE",
"68 670 LINE",
"68 0 LINE"
);
},
{
closed = 1;
nodes = (
"264 373 LINE",
"264 232 LINE",
"416 232 LINE SMOOTH",
"599 232 OFFCURVE",
"679 306 OFFCURVE",
"679 448 CURVE SMOOTH",
"679 591 OFFCURVE",
"600 670 OFFCURVE",
"427 670 CURVE SMOOTH",
"264 670 LINE",
"264 515 LINE",
"393 515 LINE SMOOTH",
"451 515 OFFCURVE",
"473 492 OFFCURVE",
"473 444 CURVE SMOOTH",
"473 396 OFFCURVE",
"451 373 OFFCURVE",
"393 373 CURVE SMOOTH"
);
},
{
closed = 1;
nodes = (
"688 0 LINE",
"510 300 LINE",
"284 300 LINE",
"450 0 LINE"
);
}
);
};
layerId = "84435905-EDCB-4949-A8A3-0E53308A2F50";
paths = (
{
closed = 1;
nodes = (
"292 0 LINE",
"292 710 LINE",
"73 710 LINE",
"73 0 LINE"
);
},
{
closed = 1;
nodes = (
"273 393 LINE",
"273 249 LINE",
"437 249 LINE SMOOTH",
"632 249 OFFCURVE",
"716 329 OFFCURVE",
"716 477 CURVE SMOOTH",
"716 626 OFFCURVE",
"634 710 OFFCURVE",
"450 710 CURVE SMOOTH",
"273 710 LINE",
"273 551 LINE",
"412 551 LINE SMOOTH",
"481 551 OFFCURVE",
"507 527 OFFCURVE",
"507 472 CURVE SMOOTH",
"507 418 OFFCURVE",
"481 393 OFFCURVE",
"411 393 CURVE SMOOTH"
);
},
{
closed = 1;
nodes = (
"735 0 LINE",
"530 320 LINE",
"305 320 LINE",
"502 0 LINE"
);
}
);
width = 757;
}
);
leftMetricsKey = H;
unicode = 0052;
userData = {
RMXScaler = {
source = R;
};
};
},
{
color = 4;
glyphname = S;
lastChange = "2017-07-26 12:06:31 +0000";
layers = (
{
background = {
paths = (
{
closed = 1;
nodes = (
"528 -15 OFFCURVE",
"647 47 OFFCURVE",
"647 194 CURVE SMOOTH",
"647 322 OFFCURVE",
"574 375 OFFCURVE",
"419 406 CURVE SMOOTH",
"338 422 LINE SMOOTH",
"245 440 OFFCURVE",
"206 466 OFFCURVE",
"206 523 CURVE SMOOTH",
"206 578 OFFCURVE",
"246 608 OFFCURVE",
"340 608 CURVE SMOOTH",
"444 608 OFFCURVE",
"481 561 OFFCURVE",
"493 505 CURVE SMOOTH",
"495 496 LINE",
"641 496 LINE",
"639 516 LINE SMOOTH",
"627 634 OFFCURVE",
"542 725 OFFCURVE",
"350 725 CURVE SMOOTH",
"166 725 OFFCURVE",
"60 657 OFFCURVE",
"60 523 CURVE SMOOTH",
"60 394 OFFCURVE",
"140 333 OFFCURVE",
"288 304 CURVE SMOOTH",
"368 288 LINE SMOOTH",
"470 268 OFFCURVE",
"502 244 OFFCURVE",
"502 189 CURVE SMOOTH",
"502 133 OFFCURVE",
"462 103 OFFCURVE",
"362 103 CURVE SMOOTH",
"267 103 OFFCURVE",
"211 126 OFFCURVE",
"200 187 CURVE SMOOTH",
"198 198 LINE",
"50 198 LINE",
"51 180 LINE SMOOTH",
"59 44 OFFCURVE",
"174 -15 OFFCURVE",
"350 -15 CURVE SMOOTH"
);
}
);
};
layerId = "C76CAC8E-7AD6-478C-8F7E-02FEF6F1EA84";
paths = (
{
closed = 1;
nodes = (
"528 -15 OFFCURVE",
"647 47 OFFCURVE",
"647 194 CURVE SMOOTH",
"647 322 OFFCURVE",
"574 375 OFFCURVE",
"419 406 CURVE SMOOTH",
"338 422 LINE SMOOTH",
"245 440 OFFCURVE",
"206 466 OFFCURVE",
"206 523 CURVE SMOOTH",
"206 578 OFFCURVE",
"246 608 OFFCURVE",
"340 608 CURVE SMOOTH",
"434 608 OFFCURVE",
"462 570 OFFCURVE",
"495 496 CURVE",
"641 511 LINE",
"609 644 OFFCURVE",
"526 725 OFFCURVE",
"350 725 CURVE SMOOTH",
"166 725 OFFCURVE",
"60 657 OFFCURVE",
"60 523 CURVE SMOOTH",
"60 394 OFFCURVE",
"140 333 OFFCURVE",
"288 304 CURVE SMOOTH",
"368 288 LINE SMOOTH",
"470 268 OFFCURVE",
"502 244 OFFCURVE",
"502 189 CURVE SMOOTH",
"502 133 OFFCURVE",
"462 103 OFFCURVE",
"362 103 CURVE SMOOTH",
"253 103 OFFCURVE",
"216 143 OFFCURVE",
"188 208 CURVE",
"40 193 LINE",
"66 66 OFFCURVE",
"158 -15 OFFCURVE",
"350 -15 CURVE SMOOTH"
);
}
);
width = 697;
},
{
background = {
paths = (
{
closed = 1;
nodes = (
"468 -15 OFFCURVE",
"593 26 OFFCURVE",
"593 170 CURVE SMOOTH",
"593 298 OFFCURVE",
"490 348 OFFCURVE",
"382 372 CURVE SMOOTH",
"311 388 LINE SMOOTH",
"218 409 OFFCURVE",
"145 453 OFFCURVE",
"145 544 CURVE SMOOTH",
"145 635 OFFCURVE",
"223 676 OFFCURVE",
"331 676 CURVE SMOOTH",
"457 676 OFFCURVE",
"512 613 OFFCURVE",
"533 528 CURVE SMOOTH",
"535 520 LINE",
"597 520 LINE",
"595 529 LINE SMOOTH",
"570 644 OFFCURVE",
"484 725 OFFCURVE",
"328 725 CURVE SMOOTH",
"183 725 OFFCURVE",
"86 658 OFFCURVE",
"86 538 CURVE SMOOTH",
"86 404 OFFCURVE",
"196 354 OFFCURVE",
"307 331 CURVE SMOOTH",
"379 316 LINE SMOOTH",
"470 297 OFFCURVE",
"536 251 OFFCURVE",
"536 165 CURVE SMOOTH",
"536 73 OFFCURVE",
"459 34 OFFCURVE",
"335 34 CURVE SMOOTH",
"220 34 OFFCURVE",
"154 80 OFFCURVE",
"131 162 CURVE SMOOTH",
"129 169 LINE",
"68 169 LINE",
"70 159 LINE SMOOTH",
"93 46 OFFCURVE",
"190 -15 OFFCURVE",
"338 -15 CURVE SMOOTH"
);
}
);
};
layerId = "0A1AFE58-107D-4787-BDA0-D82FB635C3A6";
paths = (
{
closed = 1;
nodes = (
"473 -15 OFFCURVE",
"593 26 OFFCURVE",
"593 170 CURVE SMOOTH",
"593 298 OFFCURVE",
"490 348 OFFCURVE",
"382 372 CURVE SMOOTH",
"311 388 LINE SMOOTH",
"218 409 OFFCURVE",
"145 453 OFFCURVE",
"145 544 CURVE SMOOTH",
"145 635 OFFCURVE",
"223 676 OFFCURVE",
"331 676 CURVE SMOOTH",
"445 676 OFFCURVE",
"512 608 OFFCURVE",
"539 510 CURVE",
"596 520 LINE",
"566 645 OFFCURVE",
"475 725 OFFCURVE",
"328 725 CURVE SMOOTH",
"183 725 OFFCURVE",
"86 658 OFFCURVE",
"86 538 CURVE SMOOTH",
"86 404 OFFCURVE",
"196 354 OFFCURVE",
"307 331 CURVE SMOOTH",
"379 316 LINE SMOOTH",
"470 297 OFFCURVE",
"536 251 OFFCURVE",
"536 165 CURVE SMOOTH",
"536 73 OFFCURVE",
"464 34 OFFCURVE",
"345 34 CURVE SMOOTH",
"236 34 OFFCURVE",
"160 77 OFFCURVE",
"129 179 CURVE",
"68 169 LINE",
"113 36 OFFCURVE",
"199 -15 OFFCURVE",
"348 -15 CURVE SMOOTH"
);
}
);
width = 665;
userData = {
RMXScaler = {
height = 97.3000;
width = 97.3000;
};
};
},
{
background = {
paths = (
{
closed = 1;
nodes = (
"593 -15 OFFCURVE",
"698 56 OFFCURVE",
"698 205 CURVE SMOOTH",
"698 332 OFFCURVE",
"639 398 OFFCURVE",
"474 424 CURVE SMOOTH",
"379 439 LINE SMOOTH",
"290 453 OFFCURVE",
"275 470 OFFCURVE",
"275 509 CURVE SMOOTH",
"275 544 OFFCURVE",
"296 568 OFFCURVE",
"375 568 CURVE SMOOTH",
"451 568 OFFCURVE",
"470 539 OFFCURVE",
"480 500 CURVE SMOOTH",
"482 492 LINE",
"695 492 LINE",
"693 510 LINE SMOOTH",
"677 657 OFFCURVE",
"584 725 OFFCURVE",
"372 725 CURVE SMOOTH",
"154 725 OFFCURVE",
"58 654 OFFCURVE",
"58 506 CURVE SMOOTH",
"58 389 OFFCURVE",
"124 307 OFFCURVE",
"286 283 CURVE SMOOTH",
"374 270 LINE SMOOTH",
"464 257 OFFCURVE",
"481 239 OFFCURVE",
"481 199 CURVE SMOOTH",
"481 158 OFFCURVE",
"450 142 OFFCURVE",
"373 142 CURVE SMOOTH",
"295 142 OFFCURVE",
"267 165 OFFCURVE",
"264 206 CURVE SMOOTH",
"263 218 LINE",
"48 218 LINE",
"49 200 LINE SMOOTH",
"58 39 OFFCURVE",
"178 -15 OFFCURVE",
"374 -15 CURVE SMOOTH"
);
}
);
};
layerId = "84435905-EDCB-4949-A8A3-0E53308A2F50";
paths = (
{
closed = 1;
nodes = (
"593 -15 OFFCURVE",
"698 56 OFFCURVE",
"698 205 CURVE SMOOTH",
"698 332 OFFCURVE",
"639 398 OFFCURVE",
"474 424 CURVE SMOOTH",
"379 439 LINE SMOOTH",
"290 453 OFFCURVE",
"275 470 OFFCURVE",
"275 509 CURVE SMOOTH",
"275 544 OFFCURVE",
"301 568 OFFCURVE",
"370 568 CURVE SMOOTH",
"439 568 OFFCURVE",
"470 536 OFFCURVE",
"482 482 CURVE",
"695 502 LINE",
"672 653 OFFCURVE",
"583 725 OFFCURVE",
"372 725 CURVE SMOOTH",
"154 725 OFFCURVE",
"58 644 OFFCURVE",
"58 506 CURVE SMOOTH",
"58 389 OFFCURVE",
"124 307 OFFCURVE",
"286 283 CURVE SMOOTH",
"374 270 LINE SMOOTH",
"464 257 OFFCURVE",
"481 239 OFFCURVE",
"481 199 CURVE SMOOTH",
"481 158 OFFCURVE",
"450 142 OFFCURVE",
"383 142 CURVE SMOOTH",
"302 142 OFFCURVE",
"274 175 OFFCURVE",
"263 228 CURVE",
"48 208 LINE",
"61 61 OFFCURVE",
"145 -15 OFFCURVE",
"374 -15 CURVE SMOOTH"
);
}
);
width = 746;
}
);
unicode = 0053;
userData = {
RMXScaler = {
source = S;
};
};
},
{
color = 4;
glyphname = T;
lastChange = "2017-07-24 09:22:07 +0000";
layers = (
{
background = {
paths = (
{
closed = 1;
nodes = (
"358 0 LINE",
"358 620 LINE",
"210 620 LINE",
"210 0 LINE"
);
},
{
closed = 1;
nodes = (
"563 545 LINE",
"563 670 LINE",
"5 670 LINE",
"5 545 LINE"
);
}
);
};
layerId = "C76CAC8E-7AD6-478C-8F7E-02FEF6F1EA84";
paths = (
{
closed = 1;
nodes = (
"371 0 LINE",
"371 659 LINE",
"223 659 LINE",
"223 0 LINE"
);
},
{
closed = 1;
nodes = (
"589 585 LINE",
"589 710 LINE",
"5 710 LINE",
"5 585 LINE"
);
}
);
width = 594;
},
{
background = {
paths = (
{
closed = 1;
nodes = (
"283 0 LINE",
"283 631 LINE",
"223 631 LINE",
"223 0 LINE"
);
},
{
closed = 1;
nodes = (
"508 616 LINE",
"508 670 LINE",
"-2 670 LINE",
"-2 616 LINE"
);
}
);
};
layerId = "0A1AFE58-107D-4787-BDA0-D82FB635C3A6";
paths = (
{
closed = 1;
nodes = (
"295 0 LINE",
"295 671 LINE",
"235 671 LINE",
"235 0 LINE"
);
},
{
closed = 1;
nodes = (
"525 657 LINE",
"525 710 LINE",
"5 710 LINE",
"5 657 LINE"
);
}
);
width = 530;
userData = {
RMXScaler = {
height = 97.3000;
width = 97.3000;
};
};
},
{
background = {
paths = (
{
closed = 1;
nodes = (
"411 0 LINE",
"411 620 LINE",
"197 620 LINE",
"197 0 LINE"
);
},
{
closed = 1;
nodes = (
"602 497 LINE",
"602 670 LINE",
"6 670 LINE",
"6 497 LINE"
);
}
);
};
layerId = "84435905-EDCB-4949-A8A3-0E53308A2F50";
paths = (
{
closed = 1;
nodes = (
"430 0 LINE",
"430 657 LINE",
"210 657 LINE",
"210 0 LINE"
);
},
{
closed = 1;
nodes = (
"635 535 LINE",
"635 710 LINE",
"5 710 LINE",
"5 535 LINE"
);
}
);
width = 640;
}
);
unicode = 0054;
userData = {
RMXScaler = {
source = T;
};
};
},
{
color = 4;
glyphname = U;
lastChange = "2017-07-26 09:27:55 +0000";
layers = (
{
background = {
paths = (
{
closed = 1;
nodes = (
"73 670 LINE",
"73 295 LINE SMOOTH",
"73 79 OFFCURVE",
"169 -15 OFFCURVE",
"367 -15 CURVE SMOOTH",
"565 -15 OFFCURVE",
"661 79 OFFCURVE",
"661 295 CURVE SMOOTH",
"661 670 LINE",
"513 670 LINE",
"513 305 LINE SMOOTH",
"513 164 OFFCURVE",
"472 110 OFFCURVE",
"367 110 CURVE SMOOTH",
"262 110 OFFCURVE",
"221 164 OFFCURVE",
"221 305 CURVE SMOOTH",
"221 670 LINE"
);
}
);
};
layerId = "C76CAC8E-7AD6-478C-8F7E-02FEF6F1EA84";
paths = (
{
closed = 1;
nodes = (
"80 710 LINE",
"80 311 LINE SMOOTH",
"80 82 OFFCURVE",
"182 -15 OFFCURVE",
"388 -15 CURVE SMOOTH",
"593 -15 OFFCURVE",
"695 82 OFFCURVE",
"695 311 CURVE SMOOTH",
"695 710 LINE",
"547 710 LINE",
"547 322 LINE SMOOTH",
"547 166 OFFCURVE",
"500 110 OFFCURVE",
"388 110 CURVE SMOOTH",
"275 110 OFFCURVE",
"228 166 OFFCURVE",
"228 322 CURVE SMOOTH",
"228 710 LINE"
);
}
);
width = 775;
},
{
background = {
paths = (
{
closed = 1;
nodes = (
"85 670 LINE",
"85 272 LINE SMOOTH",
"85 68 OFFCURVE",
"185 -15 OFFCURVE",
"350 -15 CURVE SMOOTH",
"516 -15 OFFCURVE",
"615 68 OFFCURVE",
"615 272 CURVE SMOOTH",
"615 670 LINE",
"555 670 LINE",
"555 282 LINE SMOOTH",
"555 88 OFFCURVE",
"481 36 OFFCURVE",
"350 36 CURVE SMOOTH",
"219 36 OFFCURVE",
"145 88 OFFCURVE",
"145 282 CURVE SMOOTH",
"145 670 LINE"
);
}
);
};
layerId = "0A1AFE58-107D-4787-BDA0-D82FB635C3A6";
paths = (
{
closed = 1;
nodes = (
"100 710 LINE",
"100 286 LINE SMOOTH",
"100 71 OFFCURVE",
"206 -16 OFFCURVE",
"370 -16 CURVE SMOOTH",
"535 -16 OFFCURVE",
"640 71 OFFCURVE",
"640 286 CURVE SMOOTH",
"640 710 LINE",
"580 710 LINE",
"580 297 LINE SMOOTH",
"580 90 OFFCURVE",
"500 35 OFFCURVE",
"370 35 CURVE SMOOTH",
"239 35 OFFCURVE",
"160 90 OFFCURVE",
"160 297 CURVE SMOOTH",
"160 710 LINE"
);
}
);
width = 740;
userData = {
RMXScaler = {
height = 97.3000;
width = 97.3000;
};
};
},
{
background = {
paths = (
{
closed = 1;
nodes = (
"58 670 LINE",
"58 304 LINE SMOOTH",
"58 79 OFFCURVE",
"151 -15 OFFCURVE",
"372 -15 CURVE SMOOTH",
"594 -15 OFFCURVE",
"687 79 OFFCURVE",
"687 304 CURVE SMOOTH",
"687 670 LINE",
"473 670 LINE",
"473 314 LINE SMOOTH",
"473 209 OFFCURVE",
"457 162 OFFCURVE",
"372 162 CURVE SMOOTH",
"288 162 OFFCURVE",
"272 209 OFFCURVE",
"272 314 CURVE SMOOTH",
"272 670 LINE"
);
}
);
};
layerId = "84435905-EDCB-4949-A8A3-0E53308A2F50";
paths = (
{
closed = 1;
nodes = (
"63 710 LINE",
"63 320 LINE SMOOTH",
"63 84 OFFCURVE",
"162 -16 OFFCURVE",
"392 -16 CURVE SMOOTH",
"622 -16 OFFCURVE",
"720 84 OFFCURVE",
"720 320 CURVE SMOOTH",
"720 710 LINE",
"500 710 LINE",
"500 325 LINE SMOOTH",
"500 207 OFFCURVE",
"481 157 OFFCURVE",
"392 157 CURVE SMOOTH",
"303 157 OFFCURVE",
"283 207 OFFCURVE",
"283 325 CURVE SMOOTH",
"283 710 LINE"
);
}
);
width = 783;
}
);
unicode = 0055;
userData = {
RMXScaler = {
source = U;
};
};
},
{
color = 4;
glyphname = V;
lastChange = "2017-07-20 08:15:50 +0000";
layers = (
{
background = {
paths = (
{
closed = 1;
nodes = (
"332 120 LINE",
"325 120 LINE",
"163 670 LINE",
"5 670 LINE",
"225 0 LINE",
"432 0 LINE",
"652 670 LINE",
"494 670 LINE"
);
}
);
};
layerId = "C76CAC8E-7AD6-478C-8F7E-02FEF6F1EA84";
paths = (
{
closed = 1;
nodes = (
"349 123 LINE",
"341 123 LINE",
"163 710 LINE",
"5 710 LINE",
"242 0 LINE",
"447 0 LINE",
"684 710 LINE",
"526 710 LINE"
);
}
);
width = 689;
},
{
background = {
paths = (
{
closed = 1;
nodes = (
"299 67 LINE",
"291 67 LINE",
"62 670 LINE",
"-3 670 LINE",
"260 0 LINE",
"330 0 LINE",
"593 670 LINE",
"529 670 LINE"
);
}
);
};
layerId = "0A1AFE58-107D-4787-BDA0-D82FB635C3A6";
paths = (
{
closed = 1;
nodes = (
"314 69 LINE",
"305 69 LINE",
"69 710 LINE",
"5 710 LINE",
"276 0 LINE",
"344 0 LINE",
"615 710 LINE",
"551 710 LINE"
);
}
);
width = 620;
userData = {
RMXScaler = {
height = 97.3000;
width = 97.3000;
};
};
},
{
background = {
paths = (
{
closed = 1;
nodes = (
"357 163 LINE",
"346 163 LINE",
"235 670 LINE",
"10 670 LINE",
"196 0 LINE",
"507 0 LINE",
"693 670 LINE",
"469 670 LINE"
);
}
);
};
layerId = "84435905-EDCB-4949-A8A3-0E53308A2F50";
paths = (
{
closed = 1;
nodes = (
"374 183 LINE",
"363 183 LINE",
"235 710 LINE",
"5 710 LINE",
"213 0 LINE",
"523 0 LINE",
"731 710 LINE",
"502 710 LINE"
);
}
);
width = 736;
}
);
unicode = 0056;
userData = {
RMXScaler = {
source = V;
};
};
},
{
color = 4;
glyphname = W;
lastChange = "2017-07-20 08:15:50 +0000";
layers = (
{
background = {
paths = (
{
closed = 1;
nodes = (
"709 125 LINE",
"701 125 LINE",
"571 670 LINE",
"412 670 LINE",
"282 125 LINE",
"274 125 LINE",
"166 670 LINE",
"8 670 LINE",
"165 0 LINE",
"377 0 LINE",
"488 495 LINE",
"495 495 LINE",
"606 0 LINE",
"818 0 LINE",
"975 670 LINE",
"817 670 LINE"
);
}
);
};
layerId = "C76CAC8E-7AD6-478C-8F7E-02FEF6F1EA84";
paths = (
{
closed = 1;
nodes = (
"751 127 LINE",
"743 127 LINE",
"600 710 LINE",
"439 710 LINE",
"298 127 LINE",
"289 127 LINE",
"168 710 LINE",
"10 710 LINE",
"181 0 LINE",
"392 0 LINE",
"516 539 LINE",
"523 539 LINE",
"648 0 LINE",
"857 0 LINE",
"1029 710 LINE",
"871 710 LINE"
);
}
);
width = 1039;
},
{
background = {
paths = (
{
closed = 1;
nodes = (
"680 65 LINE",
"675 65 LINE",
"498 670 LINE",
"419 670 LINE",
"242 65 LINE",
"237 65 LINE",
"69 670 LINE",
"5 670 LINE",
"201 0 LINE",
"278 0 LINE",
"456 609 LINE",
"461 609 LINE",
"639 0 LINE",
"716 0 LINE",
"912 670 LINE",
"848 670 LINE"
);
}
);
};
layerId = "0A1AFE58-107D-4787-BDA0-D82FB635C3A6";
paths = (
{
closed = 1;
nodes = (
"713 66 LINE",
"708 66 LINE",
"524 710 LINE",
"444 710 LINE",
"259 66 LINE",
"254 66 LINE",
"79 710 LINE",
"15 710 LINE",
"219 0 LINE",
"295 0 LINE",
"482 650 LINE",
"486 650 LINE",
"672 0 LINE",
"748 0 LINE",
"952 710 LINE",
"888 710 LINE"
);
}
);
width = 967;
userData = {
RMXScaler = {
height = 97.3000;
width = 97.3000;
};
};
},
{
background = {
paths = (
{
closed = 1;
nodes = (
"744 173 LINE",
"735 173 LINE",
"646 670 LINE",
"415 670 LINE",
"328 173 LINE",
"319 173 LINE",
"230 670 LINE",
"5 670 LINE",
"165 0 LINE",
"449 0 LINE",
"527 450 LINE",
"534 450 LINE",
"612 0 LINE",
"897 0 LINE",
"1056 670 LINE",
"832 670 LINE"
);
}
);
};
layerId = "84435905-EDCB-4949-A8A3-0E53308A2F50";
paths = (
{
closed = 1;
nodes = (
"783 183 LINE",
"775 183 LINE",
"670 710 LINE",
"439 710 LINE",
"337 183 LINE",
"327 183 LINE",
"231 710 LINE",
"5 710 LINE",
"175 0 LINE",
"462 0 LINE",
"551 487 LINE",
"558 487 LINE",
"647 0 LINE",
"934 0 LINE",
"1104 710 LINE",
"878 710 LINE"
);
}
);
width = 1109;
}
);
unicode = 0057;
userData = {
RMXScaler = {
source = W;
};
};
},
{
color = 4;
glyphname = X;
lastChange = "2017-07-20 08:18:38 +0000";
layers = (
{
background = {
paths = (
{
closed = 1;
nodes = (
"165 0 LINE",
"336 295 LINE",
"406 295 LINE",
"638 670 LINE",
"478 670 LINE",
"307 375 LINE",
"237 375 LINE",
"5 0 LINE"
);
},
{
closed = 1;
nodes = (
"638 0 LINE",
"390 412 LINE",
"320 412 LINE",
"165 670 LINE",
"5 670 LINE",
"253 258 LINE",
"323 258 LINE",
"478 0 LINE"
);
}
);
};
layerId = "C76CAC8E-7AD6-478C-8F7E-02FEF6F1EA84";
paths = (
{
closed = 1;
nodes = (
"170 0 LINE",
"358 318 LINE",
"427 318 LINE",
"673 710 LINE",
"514 710 LINE",
"326 394 LINE",
"257 394 LINE",
"10 0 LINE"
);
},
{
closed = 1;
nodes = (
"673 0 LINE",
"410 434 LINE",
"340 434 LINE",
"170 710 LINE",
"10 710 LINE",
"273 279 LINE",
"343 279 LINE",
"514 0 LINE"
);
}
);
width = 683;
},
{
background = {
paths = (
{
closed = 1;
nodes = (
"85 0 LINE",
"317 322 LINE",
"337 322 LINE",
"592 670 LINE",
"525 670 LINE",
"292 350 LINE",
"272 350 LINE",
"18 0 LINE"
);
},
{
closed = 1;
nodes = (
"592 0 LINE",
"329 368 LINE",
"303 368 LINE",
"86 670 LINE",
"18 670 LINE",
"281 304 LINE",
"307 304 LINE",
"524 0 LINE"
);
}
);
};
layerId = "0A1AFE58-107D-4787-BDA0-D82FB635C3A6";
paths = (
{
closed = 1;
nodes = (
"98 0 LINE",
"335 341 LINE",
"355 341 LINE",
"616 710 LINE",
"548 710 LINE",
"310 368 LINE",
"290 368 LINE",
"30 0 LINE"
);
},
{
closed = 1;
nodes = (
"616 0 LINE",
"347 387 LINE",
"321 387 LINE",
"98 710 LINE",
"30 710 LINE",
"299 322 LINE",
"325 322 LINE",
"548 0 LINE"
);
}
);
width = 646;
userData = {
RMXScaler = {
height = 97.3000;
width = 97.3000;
};
};
},
{
background = {
paths = (
{
closed = 1;
nodes = (
"233 0 LINE",
"384 314 LINE",
"489 314 LINE",
"682 670 LINE",
"453 670 LINE",
"312 372 LINE",
"208 372 LINE",
"5 0 LINE"
);
},
{
closed = 1;
nodes = (
"684 0 LINE",
"445 447 LINE",
"340 447 LINE",
"236 670 LINE",
"7 670 LINE",
"244 225 LINE",
"348 225 LINE",
"455 0 LINE"
);
}
);
};
layerId = "84435905-EDCB-4949-A8A3-0E53308A2F50";
paths = (
{
closed = 1;
nodes = (
"229 0 LINE",
"398 331 LINE",
"503 331 LINE",
"714 710 LINE",
"489 710 LINE",
"329 394 LINE",
"225 394 LINE",
"5 0 LINE"
);
},
{
closed = 1;
nodes = (
"716 0 LINE",
"470 467 LINE",
"356 467 LINE",
"232 710 LINE",
"7 710 LINE",
"251 245 LINE",
"364 245 LINE",
"491 0 LINE"
);
}
);
width = 721;
}
);
unicode = 0058;
userData = {
RMXScaler = {
source = X;
};
};
},
{
color = 4;
glyphname = Y;
lastChange = "2017-07-20 08:15:50 +0000";
layers = (
{
background = {
paths = (
{
closed = 1;
nodes = (
"417 0 LINE",
"417 283 LINE",
"411 230 LINE",
"681 670 LINE",
"518 670 LINE",
"347 383 LINE",
"341 383 LINE",
"168 670 LINE",
"5 670 LINE",
"275 230 LINE",
"269 283 LINE",
"269 0 LINE"
);
}
);
};
layerId = "C76CAC8E-7AD6-478C-8F7E-02FEF6F1EA84";
paths = (
{
closed = 1;
nodes = (
"433 0 LINE",
"433 302 LINE",
"426 245 LINE",
"712 710 LINE",
"550 710 LINE",
"363 398 LINE",
"357 398 LINE",
"168 710 LINE",
"5 710 LINE",
"291 245 LINE",
"285 302 LINE",
"285 0 LINE"
);
}
);
width = 717;
},
{
background = {
paths = (
{
closed = 1;
nodes = (
"330 0 LINE",
"330 291 LINE",
"323 241 LINE",
"601 670 LINE",
"535 670 LINE",
"303 307 LINE",
"300 307 LINE",
"66 670 LINE",
"0 670 LINE",
"277 241 LINE",
"271 291 LINE",
"271 0 LINE"
);
}
);
};
layerId = "0A1AFE58-107D-4787-BDA0-D82FB635C3A6";
paths = (
{
closed = 1;
nodes = (
"345 0 LINE",
"345 307 LINE",
"337 255 LINE",
"625 710 LINE",
"560 710 LINE",
"318 321 LINE",
"315 321 LINE",
"70 710 LINE",
"5 710 LINE",
"292 255 LINE",
"286 307 LINE",
"286 0 LINE"
);
}
);
width = 630;
userData = {
RMXScaler = {
height = 97.3000;
width = 97.3000;
};
};
},
{
background = {
paths = (
{
closed = 1;
nodes = (
"468 0 LINE",
"468 283 LINE",
"462 230 LINE",
"717 670 LINE",
"492 670 LINE",
"364 436 LINE",
"357 436 LINE",
"230 670 LINE",
"5 670 LINE",
"259 230 LINE",
"253 283 LINE",
"253 0 LINE"
);
}
);
};
layerId = "84435905-EDCB-4949-A8A3-0E53308A2F50";
paths = (
{
closed = 1;
nodes = (
"487 0 LINE",
"487 300 LINE",
"482 244 LINE",
"750 710 LINE",
"521 710 LINE",
"382 456 LINE",
"374 456 LINE",
"234 710 LINE",
"5 710 LINE",
"275 244 LINE",
"268 300 LINE",
"268 0 LINE"
);
}
);
width = 755;
}
);
unicode = 0059;
userData = {
RMXScaler = {
source = Y;
};
};
},
{
color = 4;
glyphname = Z;
lastChange = "2017-07-20 08:15:50 +0000";
layers = (
{
background = {
paths = (
{
closed = 1;
nodes = (
"222 131 LINE",
"571 550 LINE",
"571 670 LINE",
"55 670 LINE",
"55 545 LINE",
"404 545 LINE",
"393 560 LINE",
"393 538 LINE",
"45 120 LINE",
"45 0 LINE",
"571 0 LINE",
"571 125 LINE",
"212 125 LINE",
"222 112 LINE"
);
}
);
};
layerId = "C76CAC8E-7AD6-478C-8F7E-02FEF6F1EA84";
paths = (
{
closed = 1;
nodes = (
"229 131 LINE",
"601 591 LINE",
"601 710 LINE",
"61 710 LINE",
"61 586 LINE",
"433 586 LINE",
"422 602 LINE",
"422 579 LINE",
"50 120 LINE",
"50 0 LINE",
"601 0 LINE",
"601 125 LINE",
"219 125 LINE",
"229 111 LINE"
);
}
);
width = 651;
},
{
background = {
paths = (
{
closed = 1;
nodes = (
"122 56 LINE",
"522 621 LINE",
"522 670 LINE",
"59 670 LINE",
"59 616 LINE",
"458 616 LINE",
"449 635 LINE",
"449 614 LINE",
"49 49 LINE",
"49 0 LINE",
"522 0 LINE",
"522 54 LINE",
"118 54 LINE",
"122 45 LINE"
);
}
);
};
layerId = "0A1AFE58-107D-4787-BDA0-D82FB635C3A6";
paths = (
{
closed = 1;
nodes = (
"126 55 LINE",
"534 661 LINE",
"534 710 LINE",
"64 710 LINE",
"64 657 LINE",
"470 657 LINE",
"461 677 LINE",
"461 655 LINE",
"53 49 LINE",
"53 0 LINE",
"534 0 LINE",
"534 53 LINE",
"122 53 LINE",
"126 43 LINE"
);
}
);
width = 587;
userData = {
RMXScaler = {
height = 97.3000;
width = 97.3000;
};
};
},
{
background = {
paths = (
{
closed = 1;
nodes = (
"326 180 LINE",
"629 502 LINE",
"629 670 LINE",
"62 670 LINE",
"62 497 LINE",
"367 497 LINE",
"354 510 LINE",
"354 489 LINE",
"52 168 LINE",
"52 0 LINE",
"629 0 LINE",
"629 173 LINE",
"312 173 LINE",
"326 156 LINE"
);
}
);
};
layerId = "84435905-EDCB-4949-A8A3-0E53308A2F50";
paths = (
{
closed = 1;
nodes = (
"328 181 LINE",
"656 541 LINE",
"656 710 LINE",
"65 710 LINE",
"65 535 LINE",
"395 535 LINE",
"382 549 LINE",
"382 526 LINE",
"54 169 LINE",
"54 0 LINE",
"656 0 LINE",
"656 174 LINE",
"313 174 LINE",
"328 157 LINE"
);
}
);
width = 710;
}
);
unicode = 005A;
userData = {
RMXScaler = {
source = Z;
};
};
},
{
color = 4;
glyphname = a;
lastChange = "2017-07-26 11:18:58 +0000";
layers = (
{
anchors = (
{
name = top;
position = "{310, 525}";
}
);
background = {
paths = (
{
closed = 1;
nodes = (
"328 -13 OFFCURVE",
"377 17 OFFCURVE",
"393 79 CURVE",
"384 72 LINE",
"411 72 LINE",
"399 81 LINE",
"414 0 LINE",
"528 0 LINE",
"528 374 LINE SMOOTH",
"528 481 OFFCURVE",
"451 540 OFFCURVE",
"311 540 CURVE SMOOTH",
"166 540 OFFCURVE",
"83 484 OFFCURVE",
"71 388 CURVE SMOOTH",
"69 372 LINE",
"211 372 LINE",
"213 383 LINE SMOOTH",
"219 415 OFFCURVE",
"250 430 OFFCURVE",
"308 430 CURVE SMOOTH",
"372 430 OFFCURVE",
"394 403 OFFCURVE",
"394 362 CURVE SMOOTH",
"394 178 LINE SMOOTH",
"394 122 OFFCURVE",
"364 89 OFFCURVE",
"277 89 CURVE SMOOTH",
"210 89 OFFCURVE",
"190 114 OFFCURVE",
"190 153 CURVE SMOOTH",
"190 186 OFFCURVE",
"210 209 OFFCURVE",
"255 214 CURVE SMOOTH",
"399 232 LINE SMOOTH",
"439 237 OFFCURVE",
"476 263 OFFCURVE",
"479 302 CURVE",
"479 363 LINE",
"452 363 LINE",
"450 338 OFFCURVE",
"436 323 OFFCURVE",
"399 318 CURVE SMOOTH",
"230 297 LINE SMOOTH",
"101 281 OFFCURVE",
"50 224 OFFCURVE",
"50 137 CURVE SMOOTH",
"50 45 OFFCURVE",
"115 -13 OFFCURVE",
"242 -13 CURVE SMOOTH"
);
}
);
};
layerId = "C76CAC8E-7AD6-478C-8F7E-02FEF6F1EA84";
paths = (
{
closed = 1;
nodes = (
"328 -13 OFFCURVE",
"377 17 OFFCURVE",
"393 79 CURVE",
"384 72 LINE",
"411 72 LINE",
"399 81 LINE",
"414 0 LINE",
"528 0 LINE",
"528 374 LINE SMOOTH",
"528 481 OFFCURVE",
"451 540 OFFCURVE",
"311 540 CURVE SMOOTH",
"168 540 OFFCURVE",
"76 491 OFFCURVE",
"69 377 CURVE",
"206 362 LINE",
"219 409 OFFCURVE",
"239 430 OFFCURVE",
"308 430 CURVE SMOOTH",
"372 430 OFFCURVE",
"394 403 OFFCURVE",
"394 362 CURVE SMOOTH",
"394 178 LINE SMOOTH",
"394 122 OFFCURVE",
"364 89 OFFCURVE",
"277 89 CURVE SMOOTH",
"210 89 OFFCURVE",
"190 114 OFFCURVE",
"190 153 CURVE SMOOTH",
"190 186 OFFCURVE",
"210 209 OFFCURVE",
"255 214 CURVE SMOOTH",
"399 232 LINE SMOOTH",
"439 237 OFFCURVE",
"476 263 OFFCURVE",
"479 302 CURVE",
"479 363 LINE",
"452 363 LINE",
"450 338 OFFCURVE",
"436 323 OFFCURVE",
"399 318 CURVE SMOOTH",
"230 297 LINE SMOOTH",
"101 281 OFFCURVE",
"50 224 OFFCURVE",
"50 137 CURVE SMOOTH",
"50 45 OFFCURVE",
"115 -13 OFFCURVE",
"242 -13 CURVE SMOOTH"
);
}
);
width = 603;
},
{
anchors = (
{
name = top;
position = "{303, 514}";
}
);
background = {
paths = (
{
closed = 1;
nodes = (
"349 -15 OFFCURVE",
"425 38 OFFCURVE",
"446 91 CURVE",
"435 85 LINE",
"457 85 LINE",
"448 101 LINE",
"454 0 LINE",
"498 0 LINE",
"498 359 LINE SMOOTH",
"498 475 OFFCURVE",
"434 529 OFFCURVE",
"304 529 CURVE SMOOTH",
"174 529 OFFCURVE",
"112 474 OFFCURVE",
"102 380 CURVE SMOOTH",
"101 370 LINE",
"156 370 LINE",
"157 378 LINE SMOOTH",
"166 444 OFFCURVE",
"198 483 OFFCURVE",
"303 483 CURVE SMOOTH",
"396 483 OFFCURVE",
"446 445 OFFCURVE",
"446 360 CURVE SMOOTH",
"446 182 LINE SMOOTH",
"446 101 OFFCURVE",
"355 30 OFFCURVE",
"254 30 CURVE SMOOTH",
"172 30 OFFCURVE",
"133 67 OFFCURVE",
"133 128 CURVE SMOOTH",
"133 185 OFFCURVE",
"166 222 OFFCURVE",
"257 234 CURVE SMOOTH",
"426 257 LINE SMOOTH",
"470 263 OFFCURVE",
"485 265 OFFCURVE",
"488 306 CURVE",
"488 349 LINE",
"482 349 LINE",
"479 318 OFFCURVE",
"465 303 OFFCURVE",
"425 298 CURVE SMOOTH",
"258 277 LINE SMOOTH",
"129 261 OFFCURVE",
"78 209 OFFCURVE",
"78 122 CURVE SMOOTH",
"78 33 OFFCURVE",
"140 -15 OFFCURVE",
"256 -15 CURVE SMOOTH"
);
}
);
};
layerId = "0A1AFE58-107D-4787-BDA0-D82FB635C3A6";
paths = (
{
closed = 1;
nodes = (
"349 -15 OFFCURVE",
"425 38 OFFCURVE",
"446 91 CURVE",
"435 85 LINE",
"457 85 LINE",
"448 101 LINE",
"454 0 LINE",
"498 0 LINE",
"498 359 LINE SMOOTH",
"498 475 OFFCURVE",
"434 529 OFFCURVE",
"304 529 CURVE SMOOTH",
"194 529 OFFCURVE",
"134 468 OFFCURVE",
"102 378 CURVE",
"156 370 LINE",
"184 437 OFFCURVE",
"221 483 OFFCURVE",
"303 483 CURVE SMOOTH",
"396 483 OFFCURVE",
"446 445 OFFCURVE",
"446 360 CURVE SMOOTH",
"446 182 LINE SMOOTH",
"446 101 OFFCURVE",
"355 30 OFFCURVE",
"254 30 CURVE SMOOTH",
"172 30 OFFCURVE",
"133 67 OFFCURVE",
"133 128 CURVE SMOOTH",
"133 185 OFFCURVE",
"166 222 OFFCURVE",
"257 234 CURVE SMOOTH",
"426 257 LINE SMOOTH",
"470 263 OFFCURVE",
"485 265 OFFCURVE",
"488 306 CURVE",
"488 349 LINE",
"482 349 LINE",
"479 318 OFFCURVE",
"465 303 OFFCURVE",
"425 298 CURVE SMOOTH",
"258 277 LINE SMOOTH",
"129 261 OFFCURVE",
"78 209 OFFCURVE",
"78 122 CURVE SMOOTH",
"78 33 OFFCURVE",
"140 -15 OFFCURVE",
"256 -15 CURVE SMOOTH"
);
}
);
width = 588;
},
{
anchors = (
{
name = top;
position = "{341, 534}";
}
);
background = {
paths = (
{
closed = 1;
nodes = (
"325 -13 OFFCURVE",
"377 15 OFFCURVE",
"403 72 CURVE",
"369 68 LINE",
"427 68 LINE",
"405 84 LINE",
"425 0 LINE",
"596 0 LINE",
"596 339 LINE SMOOTH",
"596 485 OFFCURVE",
"508 549 OFFCURVE",
"342 549 CURVE SMOOTH",
"177 549 OFFCURVE",
"98 494 OFFCURVE",
"75 371 CURVE SMOOTH",
"72 350 LINE",
"266 350 LINE",
"268 362 LINE SMOOTH",
"273 392 OFFCURVE",
"293 407 OFFCURVE",
"337 407 CURVE SMOOTH",
"382 407 OFFCURVE",
"400 387 OFFCURVE",
"400 340 CURVE SMOOTH",
"400 190 LINE SMOOTH",
"400 145 OFFCURVE",
"370 114 OFFCURVE",
"313 114 CURVE SMOOTH",
"271 114 OFFCURVE",
"251 129 OFFCURVE",
"251 161 CURVE SMOOTH",
"251 190 OFFCURVE",
"267 206 OFFCURVE",
"310 211 CURVE SMOOTH",
"428 225 LINE SMOOTH",
"468 230 OFFCURVE",
"505 258 OFFCURVE",
"508 295 CURVE",
"508 370 LINE",
"482 370 LINE",
"480 349 OFFCURVE",
"466 333 OFFCURVE",
"430 329 CURVE SMOOTH",
"224 306 LINE SMOOTH",
"98 291 OFFCURVE",
"49 232 OFFCURVE",
"49 145 CURVE SMOOTH",
"49 42 OFFCURVE",
"118 -13 OFFCURVE",
"243 -13 CURVE SMOOTH"
);
}
);
};
layerId = "84435905-EDCB-4949-A8A3-0E53308A2F50";
paths = (
{
closed = 1;
nodes = (
"325 -13 OFFCURVE",
"377 15 OFFCURVE",
"403 72 CURVE",
"369 68 LINE",
"427 68 LINE",
"405 84 LINE",
"425 0 LINE",
"596 0 LINE",
"596 339 LINE SMOOTH",
"596 485 OFFCURVE",
"508 549 OFFCURVE",
"342 549 CURVE SMOOTH",
"167 549 OFFCURVE",
"109 497 OFFCURVE",
"72 370 CURVE",
"261 350 LINE",
"275 387 OFFCURVE",
"295 407 OFFCURVE",
"337 407 CURVE SMOOTH",
"382 407 OFFCURVE",
"400 387 OFFCURVE",
"400 340 CURVE SMOOTH",
"400 190 LINE SMOOTH",
"400 145 OFFCURVE",
"370 114 OFFCURVE",
"313 114 CURVE SMOOTH",
"271 114 OFFCURVE",
"251 129 OFFCURVE",
"251 161 CURVE SMOOTH",
"251 190 OFFCURVE",
"267 206 OFFCURVE",
"310 211 CURVE SMOOTH",
"428 225 LINE SMOOTH",
"468 230 OFFCURVE",
"505 258 OFFCURVE",
"508 295 CURVE",
"508 370 LINE",
"482 370 LINE",
"480 349 OFFCURVE",
"466 333 OFFCURVE",
"430 329 CURVE SMOOTH",
"224 306 LINE SMOOTH",
"98 291 OFFCURVE",
"49 232 OFFCURVE",
"49 145 CURVE SMOOTH",
"49 42 OFFCURVE",
"118 -13 OFFCURVE",
"243 -13 CURVE SMOOTH"
);
}
);
width = 653;
}
);
rightMetricsKey = n;
unicode = 0061;
userData = {
RMXScaler = {
source = a;
};
};
},
{
color = 4;
glyphname = b;
lastChange = "2017-07-20 09:24:00 +0000";
layers = (
{
background = {
paths = (
{
closed = 1;
nodes = (
"80 770 LINE",
"80 0 LINE",
"203 0 LINE",
"218 85 LINE",
"225 85 LINE",
"256 19 OFFCURVE",
"312 -14 OFFCURVE",
"386 -14 CURVE SMOOTH",
"529 -14 OFFCURVE",
"615 90 OFFCURVE",
"615 263 CURVE SMOOTH",
"615 436 OFFCURVE",
"529 540 OFFCURVE",
"386 540 CURVE SMOOTH",
"312 540 OFFCURVE",
"256 508 OFFCURVE",
"225 446 CURVE",
"220 446 LINE",
"220 770 LINE"
);
},
{
closed = 1;
nodes = (
"263 106 OFFCURVE",
"220 161 OFFCURVE",
"220 263 CURVE SMOOTH",
"220 365 OFFCURVE",
"263 420 OFFCURVE",
"344 420 CURVE SMOOTH",
"429 420 OFFCURVE",
"470 370 OFFCURVE",
"470 263 CURVE SMOOTH",
"470 156 OFFCURVE",
"429 106 OFFCURVE",
"344 106 CURVE SMOOTH"
);
}
);
};
layerId = "C76CAC8E-7AD6-478C-8F7E-02FEF6F1EA84";
paths = (
{
closed = 1;
nodes = (
"80 750 LINE",
"80 0 LINE",
"203 0 LINE",
"218 85 LINE",
"225 85 LINE",
"256 19 OFFCURVE",
"312 -14 OFFCURVE",
"386 -14 CURVE SMOOTH",
"529 -14 OFFCURVE",
"615 90 OFFCURVE",
"615 263 CURVE SMOOTH",
"615 436 OFFCURVE",
"529 540 OFFCURVE",
"386 540 CURVE SMOOTH",
"312 540 OFFCURVE",
"256 508 OFFCURVE",
"225 446 CURVE",
"220 446 LINE",
"220 750 LINE"
);
},
{
closed = 1;
nodes = (
"263 106 OFFCURVE",
"220 161 OFFCURVE",
"220 263 CURVE SMOOTH",
"220 365 OFFCURVE",
"263 420 OFFCURVE",
"344 420 CURVE SMOOTH",
"429 420 OFFCURVE",
"470 370 OFFCURVE",
"470 263 CURVE SMOOTH",
"470 156 OFFCURVE",
"429 106 OFFCURVE",
"344 106 CURVE SMOOTH"
);
}
);
width = 662;
},
{
background = {
paths = (
{
closed = 1;
nodes = (
"100 730 LINE",
"100 0 LINE",
"141 0 LINE",
"155 101 LINE",
"159 101 LINE",
"185 48 OFFCURVE",
"233 -14 OFFCURVE",
"335 -14 CURVE SMOOTH",
"490 -14 OFFCURVE",
"567 87 OFFCURVE",
"567 257 CURVE SMOOTH",
"567 428 OFFCURVE",
"482 529 OFFCURVE",
"335 529 CURVE SMOOTH",
"222 529 OFFCURVE",
"181 464 OFFCURVE",
"159 425 CURVE",
"155 425 LINE",
"155 730 LINE"
);
},
{
closed = 1;
nodes = (
"216 33 OFFCURVE",
"150 149 OFFCURVE",
"150 257 CURVE SMOOTH",
"150 381 OFFCURVE",
"216 482 OFFCURVE",
"336 482 CURVE SMOOTH",
"450 482 OFFCURVE",
"511 402 OFFCURVE",
"511 257 CURVE SMOOTH",
"511 113 OFFCURVE",
"456 33 OFFCURVE",
"336 33 CURVE SMOOTH"
);
}
);
};
layerId = "0A1AFE58-107D-4787-BDA0-D82FB635C3A6";
paths = (
{
closed = 1;
nodes = (
"100 750 LINE",
"100 0 LINE",
"141 0 LINE",
"155 101 LINE",
"159 101 LINE",
"185 48 OFFCURVE",
"233 -14 OFFCURVE",
"335 -14 CURVE SMOOTH",
"490 -14 OFFCURVE",
"567 87 OFFCURVE",
"567 257 CURVE SMOOTH",
"567 428 OFFCURVE",
"482 529 OFFCURVE",
"335 529 CURVE SMOOTH",
"222 529 OFFCURVE",
"181 464 OFFCURVE",
"159 425 CURVE",
"155 425 LINE",
"155 750 LINE"
);
},
{
closed = 1;
nodes = (
"216 33 OFFCURVE",
"150 149 OFFCURVE",
"150 257 CURVE SMOOTH",
"150 381 OFFCURVE",
"216 482 OFFCURVE",
"336 482 CURVE SMOOTH",
"450 482 OFFCURVE",
"511 402 OFFCURVE",
"511 257 CURVE SMOOTH",
"511 113 OFFCURVE",
"456 33 OFFCURVE",
"336 33 CURVE SMOOTH"
);
}
);
width = 627;
},
{
background = {
paths = (
{
closed = 1;
nodes = (
"64 730 LINE",
"64 0 LINE",
"245 0 LINE",
"262 81 LINE",
"275 81 LINE",
"296 33 OFFCURVE",
"350 -14 OFFCURVE",
"436 -14 CURVE SMOOTH",
"573 -14 OFFCURVE",
"653 93 OFFCURVE",
"653 267 CURVE SMOOTH",
"653 442 OFFCURVE",
"573 549 OFFCURVE",
"436 549 CURVE SMOOTH",
"350 549 OFFCURVE",
"296 502 OFFCURVE",
"275 455 CURVE",
"269 455 LINE",
"269 730 LINE"
);
},
{
closed = 1;
nodes = (
"299 151 OFFCURVE",
"269 190 OFFCURVE",
"269 267 CURVE SMOOTH",
"269 345 OFFCURVE",
"299 384 OFFCURVE",
"356 384 CURVE SMOOTH",
"417 384 OFFCURVE",
"443 346 OFFCURVE",
"443 267 CURVE SMOOTH",
"443 189 OFFCURVE",
"417 151 OFFCURVE",
"356 151 CURVE SMOOTH"
);
}
);
};
layerId = "84435905-EDCB-4949-A8A3-0E53308A2F50";
paths = (
{
closed = 1;
nodes = (
"64 750 LINE",
"64 0 LINE",
"245 0 LINE",
"262 81 LINE",
"275 81 LINE",
"296 33 OFFCURVE",
"350 -14 OFFCURVE",
"436 -14 CURVE SMOOTH",
"573 -14 OFFCURVE",
"653 93 OFFCURVE",
"653 267 CURVE SMOOTH",
"653 442 OFFCURVE",
"573 549 OFFCURVE",
"436 549 CURVE SMOOTH",
"350 549 OFFCURVE",
"296 502 OFFCURVE",
"275 455 CURVE",
"269 455 LINE",
"269 750 LINE"
);
},
{
closed = 1;
nodes = (
"299 151 OFFCURVE",
"269 190 OFFCURVE",
"269 267 CURVE SMOOTH",
"269 345 OFFCURVE",
"299 384 OFFCURVE",
"356 384 CURVE SMOOTH",
"417 384 OFFCURVE",
"443 346 OFFCURVE",
"443 267 CURVE SMOOTH",
"443 189 OFFCURVE",
"417 151 OFFCURVE",
"356 151 CURVE SMOOTH"
);
}
);
width = 689;
}
);
leftMetricsKey = h;
rightMetricsKey = "=o";
unicode = 0062;
userData = {
RMXScaler = {
source = b;
};
};
},
{
color = 4;
glyphname = c;
lastChange = "2017-07-31 10:50:50 +0000";
layers = (
{
anchors = (
{
name = top;
position = "{306, 525}";
}
);
background = {
paths = (
{
closed = 1;
nodes = (
"445 -15 OFFCURVE",
"542 41 OFFCURVE",
"553 178 CURVE SMOOTH",
"554 190 LINE",
"411 190 LINE",
"410 183 LINE SMOOTH",
"402 125 OFFCURVE",
"367 100 OFFCURVE",
"306 100 CURVE SMOOTH",
"224 100 OFFCURVE",
"193 160 OFFCURVE",
"193 264 CURVE SMOOTH",
"193 368 OFFCURVE",
"223 425 OFFCURVE",
"306 425 CURVE SMOOTH",
"364 425 OFFCURVE",
"402 400 OFFCURVE",
"410 342 CURVE SMOOTH",
"411 335 LINE",
"554 335 LINE",
"553 347 LINE SMOOTH",
"542 484 OFFCURVE",
"443 540 OFFCURVE",
"306 540 CURVE SMOOTH",
"139 540 OFFCURVE",
"47 439 OFFCURVE",
"47 264 CURVE SMOOTH",
"47 88 OFFCURVE",
"139 -15 OFFCURVE",
"306 -15 CURVE SMOOTH"
);
}
);
};
layerId = "C76CAC8E-7AD6-478C-8F7E-02FEF6F1EA84";
paths = (
{
closed = 1;
nodes = (
"465 -15 OFFCURVE",
"547 57 OFFCURVE",
"554 180 CURVE",
"416 190 LINE",
"405 131 OFFCURVE",
"374 100 OFFCURVE",
"306 100 CURVE SMOOTH",
"224 100 OFFCURVE",
"193 160 OFFCURVE",
"193 264 CURVE SMOOTH",
"193 368 OFFCURVE",
"223 425 OFFCURVE",
"306 425 CURVE SMOOTH",
"374 425 OFFCURVE",
"399 387 OFFCURVE",
"416 335 CURVE",
"554 345 LINE",
"537 470 OFFCURVE",
"462 540 OFFCURVE",
"306 540 CURVE SMOOTH",
"139 540 OFFCURVE",
"47 439 OFFCURVE",
"47 264 CURVE SMOOTH",
"47 88 OFFCURVE",
"139 -15 OFFCURVE",
"306 -15 CURVE SMOOTH"
);
}
);
width = 601;
},
{
anchors = (
{
name = top;
position = "{296, 514}";
}
);
background = {
paths = (
{
closed = 1;
nodes = (
"422 -15 OFFCURVE",
"498 49 OFFCURVE",
"513 155 CURVE SMOOTH",
"514 162 LINE",
"457 162 LINE",
"455 151 LINE SMOOTH",
"441 74 OFFCURVE",
"388 32 OFFCURVE",
"296 32 CURVE SMOOTH",
"183 32 OFFCURVE",
"117 112 OFFCURVE",
"117 264 CURVE SMOOTH",
"117 402 OFFCURVE",
"183 482 OFFCURVE",
"294 482 CURVE SMOOTH",
"381 482 OFFCURVE",
"432 442 OFFCURVE",
"454 363 CURVE SMOOTH",
"457 352 LINE",
"514 352 LINE",
"512 363 LINE SMOOTH",
"496 455 OFFCURVE",
"427 529 OFFCURVE",
"296 529 CURVE SMOOTH",
"160 529 OFFCURVE",
"60 436 OFFCURVE",
"60 264 CURVE SMOOTH",
"60 78 OFFCURVE",
"160 -15 OFFCURVE",
"296 -15 CURVE SMOOTH"
);
}
);
};
layerId = "0A1AFE58-107D-4787-BDA0-D82FB635C3A6";
paths = (
{
closed = 1;
nodes = (
"409 -15 OFFCURVE",
"488 42 OFFCURVE",
"513 154 CURVE",
"459 162 LINE",
"437 80 OFFCURVE",
"385 32 OFFCURVE",
"296 32 CURVE SMOOTH",
"183 32 OFFCURVE",
"117 112 OFFCURVE",
"117 264 CURVE SMOOTH",
"117 402 OFFCURVE",
"183 482 OFFCURVE",
"294 482 CURVE SMOOTH",
"385 482 OFFCURVE",
"433 429 OFFCURVE",
"459 347 CURVE",
"513 355 LINE",
"486 465 OFFCURVE",
"416 529 OFFCURVE",
"296 529 CURVE SMOOTH",
"160 529 OFFCURVE",
"60 436 OFFCURVE",
"60 264 CURVE SMOOTH",
"60 78 OFFCURVE",
"160 -15 OFFCURVE",
"296 -15 CURVE SMOOTH"
);
}
);
width = 573;
},
{
anchors = (
{
name = top;
position = "{315, 534}";
}
);
background = {
paths = (
{
closed = 1;
nodes = (
"488 -15 OFFCURVE",
"578 57 OFFCURVE",
"586 195 CURVE SMOOTH",
"587 212 LINE",
"396 212 LINE",
"395 205 LINE SMOOTH",
"392 173 OFFCURVE",
"373 148 OFFCURVE",
"322 148 CURVE SMOOTH",
"257 148 OFFCURVE",
"246 208 OFFCURVE",
"246 264 CURVE SMOOTH",
"246 329 OFFCURVE",
"257 386 OFFCURVE",
"323 386 CURVE SMOOTH",
"371 386 OFFCURVE",
"392 361 OFFCURVE",
"395 329 CURVE SMOOTH",
"396 322 LINE",
"587 322 LINE",
"586 338 LINE SMOOTH",
"578 467 OFFCURVE",
"488 549 OFFCURVE",
"315 549 CURVE SMOOTH",
"143 549 OFFCURVE",
"36 448 OFFCURVE",
"36 264 CURVE SMOOTH",
"36 88 OFFCURVE",
"143 -15 OFFCURVE",
"315 -15 CURVE SMOOTH"
);
}
);
};
layerId = "84435905-EDCB-4949-A8A3-0E53308A2F50";
paths = (
{
closed = 1;
nodes = (
"496 -15 OFFCURVE",
"579 73 OFFCURVE",
"592 202 CURVE",
"401 222 LINE",
"388 181 OFFCURVE",
"372 148 OFFCURVE",
"322 148 CURVE SMOOTH",
"257 148 OFFCURVE",
"246 208 OFFCURVE",
"246 264 CURVE SMOOTH",
"246 329 OFFCURVE",
"257 386 OFFCURVE",
"323 386 CURVE SMOOTH",
"368 386 OFFCURVE",
"389 354 OFFCURVE",
"401 312 CURVE",
"592 332 LINE",
"578 465 OFFCURVE",
"492 549 OFFCURVE",
"315 549 CURVE SMOOTH",
"143 549 OFFCURVE",
"36 448 OFFCURVE",
"36 264 CURVE SMOOTH",
"36 88 OFFCURVE",
"143 -15 OFFCURVE",
"315 -15 CURVE SMOOTH"
);
}
);
width = 628;
}
);
leftMetricsKey = "=o";
rightMetricsKey = o;
unicode = 0063;
userData = {
RMXScaler = {
source = c;
};
};
},
{
glyphname = d;
lastChange = "2017-07-26 14:58:07 +0000";
layers = (
{
background = {
paths = (
{
closed = 1;
nodes = (
"435 446 LINE",
"430 446 LINE",
"399 508 OFFCURVE",
"343 540 OFFCURVE",
"269 540 CURVE SMOOTH",
"126 540 OFFCURVE",
"40 436 OFFCURVE",
"40 263 CURVE SMOOTH",
"40 90 OFFCURVE",
"126 -14 OFFCURVE",
"269 -14 CURVE SMOOTH",
"343 -14 OFFCURVE",
"399 19 OFFCURVE",
"430 85 CURVE",
"437 85 LINE",
"452 0 LINE",
"575 0 LINE",
"575 730 LINE",
"435 730 LINE"
);
},
{
closed = 1;
nodes = (
"226 106 OFFCURVE",
"185 156 OFFCURVE",
"185 263 CURVE SMOOTH",
"185 370 OFFCURVE",
"226 420 OFFCURVE",
"311 420 CURVE SMOOTH",
"392 420 OFFCURVE",
"435 365 OFFCURVE",
"435 263 CURVE SMOOTH",
"435 161 OFFCURVE",
"392 106 OFFCURVE",
"311 106 CURVE SMOOTH"
);
}
);
};
components = (
{
name = b;
transform = "{-1, 0, 0, 1, 662, 0}";
}
);
guideLines = (
{
position = "{946, 418}";
}
);
layerId = "C76CAC8E-7AD6-478C-8F7E-02FEF6F1EA84";
width = 662;
},
{
components = (
{
name = b;
transform = "{-1, 0, 0, 1, 627, 0}";
}
);
layerId = "0A1AFE58-107D-4787-BDA0-D82FB635C3A6";
width = 627;
},
{
components = (
{
name = b;
transform = "{-1, 0, 0, 1, 689, 0}";
}
);
layerId = "84435905-EDCB-4949-A8A3-0E53308A2F50";
width = 689;
}
);
leftMetricsKey = "=o";
rightMetricsKey = "=|n";
unicode = 0064;
userData = {
RMXScaler = {
source = d;
};
};
},
{
color = 4;
glyphname = e;
lastChange = "2017-07-26 11:18:06 +0000";
layers = (
{
anchors = (
{
name = top;
position = "{309, 525}";
}
);
background = {
paths = (
{
closed = 1;
nodes = (
"448 -15 OFFCURVE",
"532 39 OFFCURVE",
"550 136 CURVE SMOOTH",
"552 147 LINE",
"411 147 LINE",
"409 141 LINE SMOOTH",
"400 113 OFFCURVE",
"367 100 OFFCURVE",
"312 100 CURVE SMOOTH",
"216 100 OFFCURVE",
"189 143 OFFCURVE",
"189 262 CURVE SMOOTH",
"189 376 OFFCURVE",
"216 429 OFFCURVE",
"307 429 CURVE SMOOTH",
"388 429 OFFCURVE",
"417 391 OFFCURVE",
"417 306 CURVE SMOOTH",
"417 287 LINE",
"434 311 LINE",
"155 311 LINE",
"155 221 LINE",
"556 221 LINE",
"556 284 LINE SMOOTH",
"556 442 OFFCURVE",
"479 540 OFFCURVE",
"309 540 CURVE SMOOTH",
"152 540 OFFCURVE",
"47 444 OFFCURVE",
"47 259 CURVE SMOOTH",
"47 93 OFFCURVE",
"132 -15 OFFCURVE",
"313 -15 CURVE SMOOTH"
);
}
);
};
layerId = "C76CAC8E-7AD6-478C-8F7E-02FEF6F1EA84";
paths = (
{
closed = 1;
nodes = (
"454 -15 OFFCURVE",
"531 47 OFFCURVE",
"547 142 CURVE",
"411 152 LINE",
"398 122 OFFCURVE",
"375 100 OFFCURVE",
"312 100 CURVE SMOOTH",
"226 100 OFFCURVE",
"189 143 OFFCURVE",
"189 262 CURVE SMOOTH",
"189 376 OFFCURVE",
"216 429 OFFCURVE",
"307 429 CURVE SMOOTH",
"388 429 OFFCURVE",
"417 391 OFFCURVE",
"417 306 CURVE SMOOTH",
"417 287 LINE",
"434 311 LINE",
"155 311 LINE",
"155 221 LINE",
"556 221 LINE",
"556 284 LINE SMOOTH",
"556 442 OFFCURVE",
"479 540 OFFCURVE",
"309 540 CURVE SMOOTH",
"152 540 OFFCURVE",
"47 444 OFFCURVE",
"47 259 CURVE SMOOTH",
"47 93 OFFCURVE",
"132 -15 OFFCURVE",
"313 -15 CURVE SMOOTH"
);
}
);
width = 603;
},
{
anchors = (
{
name = top;
position = "{299, 514}";
}
);
background = {
paths = (
{
closed = 1;
nodes = (
"426 -15 OFFCURVE",
"487 45 OFFCURVE",
"508 114 CURVE SMOOTH",
"511 124 LINE",
"454 124 LINE",
"451 116 LINE SMOOTH",
"432 66 OFFCURVE",
"392 32 OFFCURVE",
"299 32 CURVE SMOOTH",
"183 32 OFFCURVE",
"114 112 OFFCURVE",
"114 249 CURVE SMOOTH",
"114 402 OFFCURVE",
"183 482 OFFCURVE",
"299 482 CURVE SMOOTH",
"416 482 OFFCURVE",
"467 395 OFFCURVE",
"467 278 CURVE SMOOTH",
"467 248 LINE",
"477 280 LINE",
"93 280 LINE",
"93 235 LINE",
"517 235 LINE",
"517 280 LINE SMOOTH",
"517 433 OFFCURVE",
"439 529 OFFCURVE",
"299 529 CURVE SMOOTH",
"159 529 OFFCURVE",
"60 436 OFFCURVE",
"60 250 CURVE SMOOTH",
"60 78 OFFCURVE",
"160 -15 OFFCURVE",
"298 -15 CURVE SMOOTH"
);
}
);
};
layerId = "0A1AFE58-107D-4787-BDA0-D82FB635C3A6";
paths = (
{
closed = 1;
nodes = (
"404 -15 OFFCURVE",
"472 27 OFFCURVE",
"509 116 CURVE",
"454 124 LINE",
"424 63 OFFCURVE",
"379 32 OFFCURVE",
"299 32 CURVE SMOOTH",
"183 32 OFFCURVE",
"114 112 OFFCURVE",
"114 249 CURVE SMOOTH",
"114 402 OFFCURVE",
"183 482 OFFCURVE",
"299 482 CURVE SMOOTH",
"416 482 OFFCURVE",
"467 395 OFFCURVE",
"467 278 CURVE SMOOTH",
"467 248 LINE",
"477 280 LINE",
"93 280 LINE",
"93 235 LINE",
"517 235 LINE",
"517 280 LINE SMOOTH",
"517 433 OFFCURVE",
"439 529 OFFCURVE",
"299 529 CURVE SMOOTH",
"159 529 OFFCURVE",
"60 436 OFFCURVE",
"60 250 CURVE SMOOTH",
"60 78 OFFCURVE",
"160 -15 OFFCURVE",
"298 -15 CURVE SMOOTH"
);
}
);
width = 577;
},
{
anchors = (
{
name = top;
position = "{322, 534}";
}
);
background = {
paths = (
{
closed = 1;
nodes = (
"507 -16 OFFCURVE",
"580 63 OFFCURVE",
"596 167 CURVE SMOOTH",
"598 180 LINE",
"407 180 LINE",
"403 171 LINE SMOOTH",
"392 146 OFFCURVE",
"367 136 OFFCURVE",
"326 136 CURVE SMOOTH",
"249 136 OFFCURVE",
"233 168 OFFCURVE",
"233 273 CURVE SMOOTH",
"233 360 OFFCURVE",
"252 398 OFFCURVE",
"324 398 CURVE SMOOTH",
"385 398 OFFCURVE",
"407 365 OFFCURVE",
"407 312 CURVE SMOOTH",
"407 286 LINE",
"446 315 LINE",
"209 315 LINE",
"209 225 LINE",
"599 225 LINE",
"598 289 LINE SMOOTH",
"597 452 OFFCURVE",
"495 549 OFFCURVE",
"321 549 CURVE SMOOTH",
"144 549 OFFCURVE",
"36 444 OFFCURVE",
"36 266 CURVE SMOOTH",
"36 94 OFFCURVE",
"135 -16 OFFCURVE",
"322 -16 CURVE SMOOTH"
);
}
);
};
layerId = "84435905-EDCB-4949-A8A3-0E53308A2F50";
paths = (
{
closed = 1;
nodes = (
"494 -16 OFFCURVE",
"562 49 OFFCURVE",
"598 160 CURVE",
"407 180 LINE",
"387 151 OFFCURVE",
"366 136 OFFCURVE",
"326 136 CURVE SMOOTH",
"259 136 OFFCURVE",
"233 168 OFFCURVE",
"233 273 CURVE SMOOTH",
"233 360 OFFCURVE",
"252 398 OFFCURVE",
"324 398 CURVE SMOOTH",
"385 398 OFFCURVE",
"407 365 OFFCURVE",
"407 312 CURVE SMOOTH",
"407 286 LINE",
"446 315 LINE",
"209 315 LINE",
"209 225 LINE",
"599 225 LINE",
"598 289 LINE SMOOTH",
"597 452 OFFCURVE",
"495 549 OFFCURVE",
"321 549 CURVE SMOOTH",
"144 549 OFFCURVE",
"36 444 OFFCURVE",
"36 266 CURVE SMOOTH",
"36 94 OFFCURVE",
"135 -16 OFFCURVE",
"322 -16 CURVE SMOOTH"
);
}
);
width = 635;
}
);
leftMetricsKey = "=o";
rightMetricsKey = o;
unicode = 0065;
userData = {
RMXScaler = {
source = e;
};
};
},
{
color = 4;
glyphname = f;
lastChange = "2017-07-26 11:17:50 +0000";
layers = (
{
background = {
paths = (
{
closed = 1;
nodes = (
"392 410 LINE",
"392 525 LINE",
"35 525 LINE",
"35 410 LINE"
);
},
{
closed = 1;
nodes = (
"378 761 OFFCURVE",
"341 765 OFFCURVE",
"308 765 CURVE SMOOTH",
"183 765 OFFCURVE",
"124 699 OFFCURVE",
"124 581 CURVE SMOOTH",
"124 0 LINE",
"264 0 LINE",
"264 572 LINE SMOOTH",
"264 631 OFFCURVE",
"289 648 OFFCURVE",
"339 648 CURVE SMOOTH",
"361 648 OFFCURVE",
"387 645 OFFCURVE",
"398 643 CURVE",
"398 757 LINE"
);
}
);
};
layerId = "C76CAC8E-7AD6-478C-8F7E-02FEF6F1EA84";
paths = (
{
closed = 1;
nodes = (
"392 410 LINE",
"392 525 LINE",
"35 525 LINE",
"35 410 LINE"
);
},
{
closed = 1;
nodes = (
"378 761 OFFCURVE",
"341 765 OFFCURVE",
"308 765 CURVE SMOOTH",
"183 765 OFFCURVE",
"124 699 OFFCURVE",
"124 581 CURVE SMOOTH",
"124 0 LINE",
"264 0 LINE",
"264 572 LINE SMOOTH",
"264 631 OFFCURVE",
"289 648 OFFCURVE",
"339 648 CURVE SMOOTH",
"351 648 OFFCURVE",
"377 646 OFFCURVE",
"388 645 CURVE",
"398 757 LINE"
);
}
);
width = 408;
},
{
background = {
paths = (
{
closed = 1;
nodes = (
"339 464 LINE",
"339 514 LINE",
"31 514 LINE",
"31 464 LINE"
);
},
{
closed = 1;
nodes = (
"346 757 OFFCURVE",
"324 760 OFFCURVE",
"304 760 CURVE SMOOTH",
"198 760 OFFCURVE",
"136 707 OFFCURVE",
"136 577 CURVE SMOOTH",
"136 0 LINE",
"191 0 LINE",
"191 574 LINE SMOOTH",
"191 671 OFFCURVE",
"221 711 OFFCURVE",
"306 711 CURVE SMOOTH",
"327 711 OFFCURVE",
"352 707 OFFCURVE",
"360 705 CURVE",
"360 753 LINE"
);
}
);
};
layerId = "0A1AFE58-107D-4787-BDA0-D82FB635C3A6";
paths = (
{
closed = 1;
nodes = (
"339 464 LINE",
"339 514 LINE",
"31 514 LINE",
"31 464 LINE"
);
},
{
closed = 1;
nodes = (
"349 757 OFFCURVE",
"324 760 OFFCURVE",
"304 760 CURVE SMOOTH",
"198 760 OFFCURVE",
"136 707 OFFCURVE",
"136 577 CURVE SMOOTH",
"136 0 LINE",
"191 0 LINE",
"191 574 LINE SMOOTH",
"191 671 OFFCURVE",
"221 711 OFFCURVE",
"306 711 CURVE SMOOTH",
"322 711 OFFCURVE",
"344 709 OFFCURVE",
"355 707 CURVE",
"363 753 LINE"
);
}
);
width = 360;
},
{
background = {
paths = (
{
closed = 1;
nodes = (
"441 380 LINE",
"441 534 LINE",
"30 534 LINE",
"30 380 LINE"
);
},
{
closed = 1;
nodes = (
"435 758 OFFCURVE",
"393 765 OFFCURVE",
"335 765 CURVE SMOOTH",
"186 765 OFFCURVE",
"113 725 OFFCURVE",
"113 571 CURVE SMOOTH",
"113 0 LINE",
"318 0 LINE",
"318 540 LINE SMOOTH",
"318 588 OFFCURVE",
"322 615 OFFCURVE",
"381 615 CURVE SMOOTH",
"418 615 OFFCURVE",
"441 610 OFFCURVE",
"453 608 CURVE",
"453 754 LINE"
);
}
);
};
layerId = "84435905-EDCB-4949-A8A3-0E53308A2F50";
paths = (
{
closed = 1;
nodes = (
"441 380 LINE",
"441 534 LINE",
"30 534 LINE",
"30 380 LINE"
);
},
{
closed = 1;
nodes = (
"445 756 OFFCURVE",
"393 765 OFFCURVE",
"335 765 CURVE SMOOTH",
"186 765 OFFCURVE",
"113 725 OFFCURVE",
"113 571 CURVE SMOOTH",
"113 0 LINE",
"318 0 LINE",
"318 540 LINE SMOOTH",
"318 588 OFFCURVE",
"322 615 OFFCURVE",
"381 615 CURVE SMOOTH",
"398 615 OFFCURVE",
"421 614 OFFCURVE",
"443 610 CURVE",
"463 752 LINE"
);
}
);
width = 454;
}
);
unicode = 0066;
userData = {
RMXScaler = {
source = f;
};
};
},
{
color = 4;
glyphname = g;
lastChange = "2017-07-26 11:20:05 +0000";
layers = (
{
background = {
paths = (
{
closed = 1;
nodes = (
"446 434 LINE",
"440 434 LINE",
"420 497 OFFCURVE",
"360 540 OFFCURVE",
"274 540 CURVE SMOOTH",
"120 540 OFFCURVE",
"47 424 OFFCURVE",
"47 276 CURVE SMOOTH",
"47 129 OFFCURVE",
"120 15 OFFCURVE",
"274 15 CURVE SMOOTH",
"372 15 OFFCURVE",
"417 69 OFFCURVE",
"436 103 CURVE",
"442 103 LINE",
"442 35 LINE SMOOTH",
"442 -42 OFFCURVE",
"407 -95 OFFCURVE",
"319 -95 CURVE SMOOTH",
"252 -95 OFFCURVE",
"227 -74 OFFCURVE",
"222 -42 CURVE SMOOTH",
"221 -35 LINE",
"73 -35 LINE",
"74 -52 LINE SMOOTH",
"80 -152 OFFCURVE",
"158 -210 OFFCURVE",
"319 -210 CURVE SMOOTH",
"503 -210 OFFCURVE",
"582 -112 OFFCURVE",
"582 49 CURVE SMOOTH",
"582 525 LINE",
"459 525 LINE"
);
},
{
closed = 1;
nodes = (
"228 137 OFFCURVE",
"192 191 OFFCURVE",
"192 276 CURVE SMOOTH",
"192 361 OFFCURVE",
"228 418 OFFCURVE",
"314 418 CURVE SMOOTH",
"398 418 OFFCURVE",
"442 361 OFFCURVE",
"442 276 CURVE SMOOTH",
"442 191 OFFCURVE",
"398 137 OFFCURVE",
"314 137 CURVE SMOOTH"
);
}
);
};
guideLines = (
{
angle = 270;
position = "{53, 54}";
}
);
layerId = "C76CAC8E-7AD6-478C-8F7E-02FEF6F1EA84";
paths = (
{
closed = 1;
nodes = (
"446 434 LINE",
"440 434 LINE",
"420 497 OFFCURVE",
"360 540 OFFCURVE",
"274 540 CURVE SMOOTH",
"120 540 OFFCURVE",
"47 424 OFFCURVE",
"47 276 CURVE SMOOTH",
"47 129 OFFCURVE",
"120 15 OFFCURVE",
"274 15 CURVE SMOOTH",
"372 15 OFFCURVE",
"417 69 OFFCURVE",
"436 103 CURVE",
"442 103 LINE",
"442 35 LINE SMOOTH",
"442 -42 OFFCURVE",
"412 -95 OFFCURVE",
"324 -95 CURVE SMOOTH",
"258 -95 OFFCURVE",
"227 -70 OFFCURVE",
"216 -30 CURVE",
"73 -40 LINE",
"83 -151 OFFCURVE",
"155 -210 OFFCURVE",
"319 -210 CURVE SMOOTH",
"503 -210 OFFCURVE",
"582 -112 OFFCURVE",
"582 49 CURVE SMOOTH",
"582 525 LINE",
"459 525 LINE"
);
},
{
closed = 1;
nodes = (
"228 137 OFFCURVE",
"192 191 OFFCURVE",
"192 276 CURVE SMOOTH",
"192 361 OFFCURVE",
"228 418 OFFCURVE",
"314 418 CURVE SMOOTH",
"398 418 OFFCURVE",
"442 361 OFFCURVE",
"442 276 CURVE SMOOTH",
"442 191 OFFCURVE",
"398 137 OFFCURVE",
"314 137 CURVE SMOOTH"
);
}
);
width = 659;
},
{
background = {
paths = (
{
closed = 1;
nodes = (
"477 420 LINE",
"474 420 LINE",
"445 464 OFFCURVE",
"404 529 OFFCURVE",
"292 529 CURVE SMOOTH",
"145 529 OFFCURVE",
"60 428 OFFCURVE",
"60 269 CURVE SMOOTH",
"60 97 OFFCURVE",
"137 -5 OFFCURVE",
"292 -5 CURVE SMOOTH",
"393 -5 OFFCURVE",
"441 58 OFFCURVE",
"468 111 CURVE",
"474 111 LINE",
"474 39 LINE SMOOTH",
"474 -114 OFFCURVE",
"408 -162 OFFCURVE",
"300 -162 CURVE SMOOTH",
"221 -162 OFFCURVE",
"168 -133 OFFCURVE",
"148 -75 CURVE SMOOTH",
"146 -69 LINE",
"86 -69 LINE",
"88 -77 LINE SMOOTH",
"112 -170 OFFCURVE",
"197 -210 OFFCURVE",
"300 -210 CURVE SMOOTH",
"441 -210 OFFCURVE",
"529 -140 OFFCURVE",
"529 37 CURVE SMOOTH",
"529 514 LINE",
"487 514 LINE"
);
},
{
closed = 1;
nodes = (
"177 42 OFFCURVE",
"116 123 OFFCURVE",
"116 269 CURVE SMOOTH",
"116 402 OFFCURVE",
"177 482 OFFCURVE",
"291 482 CURVE SMOOTH",
"410 482 OFFCURVE",
"477 381 OFFCURVE",
"477 269 CURVE SMOOTH",
"477 159 OFFCURVE",
"410 42 OFFCURVE",
"291 42 CURVE SMOOTH"
);
}
);
};
layerId = "0A1AFE58-107D-4787-BDA0-D82FB635C3A6";
paths = (
{
closed = 1;
nodes = (
"477 420 LINE",
"474 420 LINE",
"445 464 OFFCURVE",
"404 529 OFFCURVE",
"292 529 CURVE SMOOTH",
"145 529 OFFCURVE",
"60 428 OFFCURVE",
"60 269 CURVE SMOOTH",
"60 97 OFFCURVE",
"137 -5 OFFCURVE",
"292 -5 CURVE SMOOTH",
"393 -5 OFFCURVE",
"441 58 OFFCURVE",
"468 111 CURVE",
"474 111 LINE",
"474 39 LINE SMOOTH",
"474 -114 OFFCURVE",
"408 -162 OFFCURVE",
"300 -162 CURVE SMOOTH",
"227 -162 OFFCURVE",
"178 -132 OFFCURVE",
"146 -69 CURVE",
"88 -77 LINE",
"122 -161 OFFCURVE",
"192 -210 OFFCURVE",
"300 -210 CURVE SMOOTH",
"441 -210 OFFCURVE",
"529 -140 OFFCURVE",
"529 37 CURVE SMOOTH",
"529 514 LINE",
"487 514 LINE"
);
},
{
closed = 1;
nodes = (
"177 42 OFFCURVE",
"116 123 OFFCURVE",
"116 269 CURVE SMOOTH",
"116 402 OFFCURVE",
"177 482 OFFCURVE",
"291 482 CURVE SMOOTH",
"410 482 OFFCURVE",
"477 381 OFFCURVE",
"477 269 CURVE SMOOTH",
"477 159 OFFCURVE",
"410 42 OFFCURVE",
"291 42 CURVE SMOOTH"
);
}
);
width = 624;
},
{
background = {
paths = (
{
closed = 1;
nodes = (
"428 448 LINE",
"417 448 LINE",
"393 498 OFFCURVE",
"353 549 OFFCURVE",
"262 549 CURVE SMOOTH",
"114 549 OFFCURVE",
"36 440 OFFCURVE",
"36 286 CURVE SMOOTH",
"36 132 OFFCURVE",
"113 32 OFFCURVE",
"252 32 CURVE SMOOTH",
"332 32 OFFCURVE",
"387 67 OFFCURVE",
"415 113 CURVE",
"421 113 LINE",
"421 44 LINE SMOOTH",
"421 -33 OFFCURVE",
"401 -60 OFFCURVE",
"342 -60 CURVE SMOOTH",
"295 -60 OFFCURVE",
"278 -44 OFFCURVE",
"271 -17 CURVE SMOOTH",
"270 -9 LINE",
"62 -9 LINE",
"63 -26 LINE SMOOTH",
"70 -143 OFFCURVE",
"154 -210 OFFCURVE",
"338 -210 CURVE SMOOTH",
"545 -210 OFFCURVE",
"626 -109 OFFCURVE",
"626 78 CURVE SMOOTH",
"626 534 LINE",
"445 534 LINE"
);
},
{
closed = 1;
nodes = (
"273 182 OFFCURVE",
"246 220 OFFCURVE",
"246 284 CURVE SMOOTH",
"246 345 OFFCURVE",
"273 385 OFFCURVE",
"334 385 CURVE SMOOTH",
"395 385 OFFCURVE",
"421 345 OFFCURVE",
"421 284 CURVE SMOOTH",
"421 220 OFFCURVE",
"395 182 OFFCURVE",
"334 182 CURVE SMOOTH"
);
}
);
};
layerId = "84435905-EDCB-4949-A8A3-0E53308A2F50";
paths = (
{
closed = 1;
nodes = (
"428 448 LINE",
"417 448 LINE",
"393 498 OFFCURVE",
"353 549 OFFCURVE",
"262 549 CURVE SMOOTH",
"114 549 OFFCURVE",
"36 440 OFFCURVE",
"36 286 CURVE SMOOTH",
"36 132 OFFCURVE",
"113 32 OFFCURVE",
"252 32 CURVE SMOOTH",
"332 32 OFFCURVE",
"387 67 OFFCURVE",
"415 113 CURVE",
"421 113 LINE",
"421 44 LINE SMOOTH",
"421 -33 OFFCURVE",
"396 -60 OFFCURVE",
"347 -60 CURVE SMOOTH",
"304 -60 OFFCURVE",
"284 -42 OFFCURVE",
"270 -9 CURVE",
"62 -29 LINE",
"84 -140 OFFCURVE",
"159 -210 OFFCURVE",
"338 -210 CURVE SMOOTH",
"545 -210 OFFCURVE",
"626 -109 OFFCURVE",
"626 78 CURVE SMOOTH",
"626 534 LINE",
"445 534 LINE"
);
},
{
closed = 1;
nodes = (
"273 182 OFFCURVE",
"246 220 OFFCURVE",
"246 284 CURVE SMOOTH",
"246 345 OFFCURVE",
"273 385 OFFCURVE",
"334 385 CURVE SMOOTH",
"395 385 OFFCURVE",
"421 345 OFFCURVE",
"421 284 CURVE SMOOTH",
"421 220 OFFCURVE",
"395 182 OFFCURVE",
"334 182 CURVE SMOOTH"
);
}
);
width = 686;
}
);
leftMetricsKey = "=o";
rightMetricsKey = "=|n";
unicode = 0067;
userData = {
RMXScaler = {
source = g;
};
};
},
{
color = 4;
glyphname = h;
lastChange = "2017-07-20 09:24:05 +0000";
layers = (
{
background = {
paths = (
{
closed = 1;
nodes = (
"220 0 LINE",
"220 288 LINE SMOOTH",
"220 368 OFFCURVE",
"266 415 OFFCURVE",
"339 415 CURVE SMOOTH",
"405 415 OFFCURVE",
"433 381 OFFCURVE",
"433 302 CURVE SMOOTH",
"433 0 LINE",
"573 0 LINE",
"573 350 LINE SMOOTH",
"573 471 OFFCURVE",
"516 540 OFFCURVE",
"399 540 CURVE SMOOTH",
"300 540 OFFCURVE",
"254 494 OFFCURVE",
"217 424 CURVE",
"237 437 LINE",
"202 437 LINE",
"220 433 LINE",
"220 770 LINE",
"80 770 LINE",
"80 0 LINE"
);
}
);
};
layerId = "C76CAC8E-7AD6-478C-8F7E-02FEF6F1EA84";
paths = (
{
closed = 1;
nodes = (
"220 0 LINE",
"220 288 LINE SMOOTH",
"220 368 OFFCURVE",
"266 415 OFFCURVE",
"339 415 CURVE SMOOTH",
"405 415 OFFCURVE",
"433 381 OFFCURVE",
"433 302 CURVE SMOOTH",
"433 0 LINE",
"573 0 LINE",
"573 350 LINE SMOOTH",
"573 471 OFFCURVE",
"516 540 OFFCURVE",
"399 540 CURVE SMOOTH",
"300 540 OFFCURVE",
"254 494 OFFCURVE",
"217 424 CURVE",
"237 437 LINE",
"202 437 LINE",
"220 433 LINE",
"220 750 LINE",
"80 750 LINE",
"80 0 LINE"
);
}
);
width = 648;
},
{
background = {
paths = (
{
closed = 1;
nodes = (
"155 0 LINE",
"155 278 LINE SMOOTH",
"155 391 OFFCURVE",
"237 477 OFFCURVE",
"336 477 CURVE SMOOTH",
"421 477 OFFCURVE",
"467 432 OFFCURVE",
"467 316 CURVE SMOOTH",
"467 0 LINE",
"522 0 LINE",
"522 345 LINE SMOOTH",
"522 473 OFFCURVE",
"449 529 OFFCURVE",
"342 529 CURVE SMOOTH",
"241 529 OFFCURVE",
"177 470 OFFCURVE",
"144 395 CURVE",
"179 420 LINE",
"140 420 LINE",
"155 400 LINE",
"155 730 LINE",
"100 730 LINE",
"100 0 LINE"
);
}
);
};
layerId = "0A1AFE58-107D-4787-BDA0-D82FB635C3A6";
paths = (
{
closed = 1;
nodes = (
"155 0 LINE",
"155 278 LINE SMOOTH",
"155 391 OFFCURVE",
"237 477 OFFCURVE",
"336 477 CURVE SMOOTH",
"421 477 OFFCURVE",
"467 432 OFFCURVE",
"467 316 CURVE SMOOTH",
"467 0 LINE",
"522 0 LINE",
"522 345 LINE SMOOTH",
"522 473 OFFCURVE",
"449 529 OFFCURVE",
"342 529 CURVE SMOOTH",
"241 529 OFFCURVE",
"177 470 OFFCURVE",
"144 395 CURVE",
"179 420 LINE",
"140 420 LINE",
"155 400 LINE",
"155 750 LINE",
"100 750 LINE",
"100 0 LINE"
);
}
);
width = 612;
},
{
background = {
paths = (
{
closed = 1;
nodes = (
"269 0 LINE",
"269 279 LINE SMOOTH",
"269 333 OFFCURVE",
"303 367 OFFCURVE",
"356 367 CURVE SMOOTH",
"404 367 OFFCURVE",
"419 342 OFFCURVE",
"419 292 CURVE SMOOTH",
"419 0 LINE",
"624 0 LINE",
"624 347 LINE SMOOTH",
"624 469 OFFCURVE",
"578 549 OFFCURVE",
"451 549 CURVE SMOOTH",
"347 549 OFFCURVE",
"298 491 OFFCURVE",
"262 404 CURVE",
"284 434 LINE",
"250 434 LINE",
"269 413 LINE",
"269 730 LINE",
"64 730 LINE",
"64 0 LINE"
);
}
);
};
layerId = "84435905-EDCB-4949-A8A3-0E53308A2F50";
paths = (
{
closed = 1;
nodes = (
"269 0 LINE",
"269 279 LINE SMOOTH",
"269 333 OFFCURVE",
"303 367 OFFCURVE",
"356 367 CURVE SMOOTH",
"404 367 OFFCURVE",
"419 342 OFFCURVE",
"419 292 CURVE SMOOTH",
"419 0 LINE",
"624 0 LINE",
"624 347 LINE SMOOTH",
"624 469 OFFCURVE",
"578 549 OFFCURVE",
"451 549 CURVE SMOOTH",
"347 549 OFFCURVE",
"298 491 OFFCURVE",
"262 404 CURVE",
"284 434 LINE",
"250 434 LINE",
"269 413 LINE",
"269 750 LINE",
"64 750 LINE",
"64 0 LINE"
);
}
);
width = 681;
}
);
rightMetricsKey = "=n";
unicode = 0068;
userData = {
RMXScaler = {
source = h;
};
};
},
{
glyphname = i;
lastChange = "2017-07-31 10:13:01 +0000";
layers = (
{
background = {
anchors = (
{
name = top;
position = "{150, 525}";
}
);
components = (
{
name = dotaccentcomb;
transform = "{1, 0, 0, 1, 150, 0}";
}
);
paths = (
{
closed = 1;
nodes = (
"220 0 LINE",
"220 525 LINE",
"80 525 LINE",
"80 0 LINE"
);
}
);
};
components = (
{
name = idotless;
},
{
name = dotaccentcomb;
transform = "{1, 0, 0, 1, 150, 1}";
}
);
layerId = "C76CAC8E-7AD6-478C-8F7E-02FEF6F1EA84";
width = 300;
},
{
background = {
anchors = (
{
name = top;
position = "{123, 514}";
}
);
components = (
{
name = dotaccentcomb;
transform = "{1, 0, 0, 1, 122, 0}";
}
);
paths = (
{
closed = 1;
nodes = (
"150 0 LINE",
"150 514 LINE",
"95 514 LINE",
"95 0 LINE"
);
}
);
};
components = (
{
name = idotless;
},
{
name = dotaccentcomb;
transform = "{1, 0, 0, 1, 123, 0}";
}
);
layerId = "0A1AFE58-107D-4787-BDA0-D82FB635C3A6";
width = 245;
},
{
background = {
anchors = (
{
name = top;
position = "{165, 534}";
}
);
components = (
{
name = dotaccentcomb;
transform = "{1, 0, 0, 1, 164, 0}";
}
);
paths = (
{
closed = 1;
nodes = (
"266 0 LINE",
"266 534 LINE",
"61 534 LINE",
"61 0 LINE"
);
}
);
};
components = (
{
name = idotless;
},
{
name = dotaccentcomb;
transform = "{1, 0, 0, 1, 165, 0}";
}
);
layerId = "84435905-EDCB-4949-A8A3-0E53308A2F50";
width = 327;
}
);
unicode = 0069;
userData = {
RMXScaler = {
source = i;
};
};
},
{
color = 4;
glyphname = idotless;
lastChange = "2017-07-31 10:12:47 +0000";
layers = (
{
anchors = (
{
name = top;
position = "{123, 514}";
}
);
layerId = "0A1AFE58-107D-4787-BDA0-D82FB635C3A6";
paths = (
{
closed = 1;
nodes = (
"150 0 LINE",
"150 514 LINE",
"95 514 LINE",
"95 0 LINE"
);
}
);
width = 245;
},
{
anchors = (
{
name = top;
position = "{165, 534}";
}
);
layerId = "84435905-EDCB-4949-A8A3-0E53308A2F50";
paths = (
{
closed = 1;
nodes = (
"266 0 LINE",
"266 534 LINE",
"61 534 LINE",
"61 0 LINE"
);
}
);
width = 327;
},
{
anchors = (
{
name = top;
position = "{150, 525}";
}
);
layerId = "C76CAC8E-7AD6-478C-8F7E-02FEF6F1EA84";
paths = (
{
closed = 1;
nodes = (
"220 0 LINE",
"220 525 LINE",
"80 525 LINE",
"80 0 LINE"
);
}
);
width = 300;
}
);
unicode = 0131;
},
{
color = 4;
glyphname = j;
lastChange = "2017-07-31 10:13:05 +0000";
layers = (
{
background = {
paths = (
{
closed = 1;
nodes = (
"-40 -200 LINE",
"-24 -205 OFFCURVE",
"21 -210 OFFCURVE",
"47 -210 CURVE SMOOTH",
"173 -210 OFFCURVE",
"222 -134 OFFCURVE",
"222 -4 CURVE SMOOTH",
"222 525 LINE",
"82 525 LINE",
"82 4 LINE SMOOTH",
"82 -71 OFFCURVE",
"61 -95 OFFCURVE",
"5 -95 CURVE SMOOTH",
"-8 -95 OFFCURVE",
"-27 -94 OFFCURVE",
"-40 -93 CURVE"
);
},
{
closed = 1;
nodes = (
"203 588 OFFCURVE",
"237 610 OFFCURVE",
"237 664 CURVE SMOOTH",
"237 718 OFFCURVE",
"203 740 OFFCURVE",
"152 740 CURVE SMOOTH",
"101 740 OFFCURVE",
"67 718 OFFCURVE",
"67 664 CURVE SMOOTH",
"67 610 OFFCURVE",
"101 588 OFFCURVE",
"152 588 CURVE SMOOTH"
);
}
);
};
layerId = "C76CAC8E-7AD6-478C-8F7E-02FEF6F1EA84";
paths = (
{
closed = 1;
nodes = (
"-40 -200 LINE",
"-24 -205 OFFCURVE",
"21 -210 OFFCURVE",
"47 -210 CURVE SMOOTH",
"173 -210 OFFCURVE",
"222 -134 OFFCURVE",
"222 -4 CURVE SMOOTH",
"222 525 LINE",
"82 525 LINE",
"82 4 LINE SMOOTH",
"82 -71 OFFCURVE",
"61 -95 OFFCURVE",
"5 -95 CURVE SMOOTH",
"-8 -95 OFFCURVE",
"-17 -94 OFFCURVE",
"-30 -93 CURVE"
);
},
{
closed = 1;
nodes = (
"203 588 OFFCURVE",
"237 610 OFFCURVE",
"237 664 CURVE SMOOTH",
"237 718 OFFCURVE",
"203 740 OFFCURVE",
"152 740 CURVE SMOOTH",
"101 740 OFFCURVE",
"67 718 OFFCURVE",
"67 664 CURVE SMOOTH",
"67 610 OFFCURVE",
"101 588 OFFCURVE",
"152 588 CURVE SMOOTH"
);
}
);
width = 302;
},
{
background = {
paths = (
{
closed = 1;
nodes = (
"-15 -204 LINE",
"-4 -207 OFFCURVE",
"15 -210 OFFCURVE",
"30 -210 CURVE SMOOTH",
"119 -210 OFFCURVE",
"156 -165 OFFCURVE",
"156 -50 CURVE SMOOTH",
"156 514 LINE",
"101 514 LINE",
"101 -50 LINE SMOOTH",
"101 -136 OFFCURVE",
"82 -161 OFFCURVE",
"24 -161 CURVE SMOOTH",
"12 -161 OFFCURVE",
"-5 -159 OFFCURVE",
"-15 -157 CURVE"
);
},
{
closed = 1;
nodes = (
"152 584 OFFCURVE",
"171 598 OFFCURVE",
"171 627 CURVE SMOOTH",
"171 656 OFFCURVE",
"152 670 OFFCURVE",
"128 670 CURVE SMOOTH",
"104 670 OFFCURVE",
"87 656 OFFCURVE",
"87 627 CURVE SMOOTH",
"87 598 OFFCURVE",
"104 584 OFFCURVE",
"128 584 CURVE SMOOTH"
);
}
);
};
layerId = "0A1AFE58-107D-4787-BDA0-D82FB635C3A6";
paths = (
{
closed = 1;
nodes = (
"-23 -202 LINE",
"-9 -207 OFFCURVE",
"10 -210 OFFCURVE",
"30 -210 CURVE SMOOTH",
"119 -210 OFFCURVE",
"156 -165 OFFCURVE",
"156 -50 CURVE SMOOTH",
"156 514 LINE",
"101 514 LINE",
"101 -50 LINE SMOOTH",
"101 -136 OFFCURVE",
"82 -161 OFFCURVE",
"24 -161 CURVE SMOOTH",
"12 -161 OFFCURVE",
"-5 -159 OFFCURVE",
"-15 -157 CURVE"
);
},
{
closed = 1;
nodes = (
"152 584 OFFCURVE",
"171 598 OFFCURVE",
"171 627 CURVE SMOOTH",
"171 656 OFFCURVE",
"152 670 OFFCURVE",
"128 670 CURVE SMOOTH",
"104 670 OFFCURVE",
"87 656 OFFCURVE",
"87 627 CURVE SMOOTH",
"87 598 OFFCURVE",
"104 584 OFFCURVE",
"128 584 CURVE SMOOTH"
);
}
);
width = 251;
},
{
background = {
paths = (
{
closed = 1;
nodes = (
"-56 -196 LINE",
"-29 -202 OFFCURVE",
"12 -210 OFFCURVE",
"65 -210 CURVE SMOOTH",
"220 -210 OFFCURVE",
"277 -134 OFFCURVE",
"277 31 CURVE SMOOTH",
"277 534 LINE",
"72 534 LINE",
"72 34 LINE SMOOTH",
"72 -32 OFFCURVE",
"51 -56 OFFCURVE",
"-4 -56 CURVE SMOOTH",
"-19 -56 OFFCURVE",
"-40 -53 OFFCURVE",
"-56 -51 CURVE"
);
},
{
closed = 1;
nodes = (
"249 599 OFFCURVE",
"290 633 OFFCURVE",
"290 696 CURVE SMOOTH",
"290 759 OFFCURVE",
"249 793 OFFCURVE",
"175 793 CURVE SMOOTH",
"99 793 OFFCURVE",
"57 759 OFFCURVE",
"57 696 CURVE SMOOTH",
"57 633 OFFCURVE",
"99 599 OFFCURVE",
"175 599 CURVE SMOOTH"
);
}
);
};
layerId = "84435905-EDCB-4949-A8A3-0E53308A2F50";
paths = (
{
closed = 1;
nodes = (
"-66 -194 LINE",
"-28 -204 OFFCURVE",
"12 -210 OFFCURVE",
"65 -210 CURVE SMOOTH",
"220 -210 OFFCURVE",
"277 -134 OFFCURVE",
"277 31 CURVE SMOOTH",
"277 534 LINE",
"72 534 LINE",
"72 34 LINE SMOOTH",
"72 -32 OFFCURVE",
"51 -56 OFFCURVE",
"-4 -56 CURVE SMOOTH",
"-19 -56 OFFCURVE",
"-37 -54 OFFCURVE",
"-46 -52 CURVE"
);
},
{
closed = 1;
nodes = (
"249 599 OFFCURVE",
"290 633 OFFCURVE",
"290 696 CURVE SMOOTH",
"290 759 OFFCURVE",
"249 793 OFFCURVE",
"175 793 CURVE SMOOTH",
"99 793 OFFCURVE",
"57 759 OFFCURVE",
"57 696 CURVE SMOOTH",
"57 633 OFFCURVE",
"99 599 OFFCURVE",
"175 599 CURVE SMOOTH"
);
}
);
width = 336;
}
);
rightMetricsKey = "=i";
unicode = 006A;
userData = {
RMXScaler = {
source = j;
};
};
},
{
color = 4;
glyphname = k;
lastChange = "2017-07-20 09:24:08 +0000";
layers = (
{
background = {
paths = (
{
closed = 1;
nodes = (
"293 221 LINE",
"570 525 LINE",
"410 525 LINE",
"226 323 LINE",
"193 323 LINE",
"193 221 LINE"
);
},
{
closed = 1;
nodes = (
"220 0 LINE",
"220 770 LINE",
"80 770 LINE",
"80 0 LINE"
);
},
{
closed = 1;
nodes = (
"580 0 LINE",
"366 319 LINE",
"247 253 LINE",
"420 0 LINE"
);
}
);
};
guideLines = (
{
angle = 46.5765;
position = "{336, 273}";
},
{
angle = 124.957;
position = "{399, 0}";
}
);
layerId = "C76CAC8E-7AD6-478C-8F7E-02FEF6F1EA84";
paths = (
{
closed = 1;
nodes = (
"293 221 LINE",
"570 525 LINE",
"410 525 LINE",
"226 323 LINE",
"193 323 LINE",
"193 221 LINE"
);
},
{
closed = 1;
nodes = (
"220 0 LINE",
"220 750 LINE",
"80 750 LINE",
"80 0 LINE"
);
},
{
closed = 1;
nodes = (
"580 0 LINE",
"366 319 LINE",
"247 253 LINE",
"420 0 LINE"
);
}
);
width = 600;
},
{
background = {
paths = (
{
closed = 1;
nodes = (
"176 244 LINE",
"487 514 LINE",
"408 514 LINE",
"158 295 LINE",
"136 295 LINE",
"136 244 LINE"
);
},
{
closed = 1;
nodes = (
"155 0 LINE",
"155 730 LINE",
"100 730 LINE",
"100 0 LINE"
);
},
{
closed = 1;
nodes = (
"497 0 LINE",
"201 297 LINE",
"162 259 LINE",
"423 0 LINE"
);
}
);
};
layerId = "0A1AFE58-107D-4787-BDA0-D82FB635C3A6";
paths = (
{
closed = 1;
nodes = (
"176 244 LINE",
"487 514 LINE",
"408 514 LINE",
"158 295 LINE",
"136 295 LINE",
"136 244 LINE"
);
},
{
closed = 1;
nodes = (
"155 0 LINE",
"155 750 LINE",
"100 750 LINE",
"100 0 LINE"
);
},
{
closed = 1;
nodes = (
"497 0 LINE",
"201 297 LINE",
"162 259 LINE",
"423 0 LINE"
);
}
);
width = 517;
},
{
background = {
paths = (
{
closed = 1;
nodes = (
"397 204 LINE",
"629 534 LINE",
"404 534 LINE",
"275 343 LINE",
"235 343 LINE",
"235 204 LINE"
);
},
{
closed = 1;
nodes = (
"269 0 LINE",
"269 730 LINE",
"64 730 LINE",
"64 0 LINE"
);
},
{
closed = 1;
nodes = (
"638 0 LINE",
"457 336 LINE",
"277 253 LINE",
"414 0 LINE"
);
}
);
};
layerId = "84435905-EDCB-4949-A8A3-0E53308A2F50";
paths = (
{
closed = 1;
nodes = (
"397 204 LINE",
"629 534 LINE",
"404 534 LINE",
"275 343 LINE",
"235 343 LINE",
"235 204 LINE"
);
},
{
closed = 1;
nodes = (
"269 0 LINE",
"269 750 LINE",
"64 750 LINE",
"64 0 LINE"
);
},
{
closed = 1;
nodes = (
"638 0 LINE",
"457 336 LINE",
"277 253 LINE",
"414 0 LINE"
);
}
);
width = 644;
}
);
leftMetricsKey = h;
unicode = 006B;
userData = {
RMXScaler = {
source = k;
};
};
},
{
color = 4;
glyphname = l;
lastChange = "2017-07-20 09:23:56 +0000";
layers = (
{
background = {
paths = (
{
closed = 1;
nodes = (
"220 0 LINE",
"220 770 LINE",
"80 770 LINE",
"80 0 LINE"
);
}
);
};
layerId = "C76CAC8E-7AD6-478C-8F7E-02FEF6F1EA84";
paths = (
{
closed = 1;
nodes = (
"220 0 LINE",
"220 750 LINE",
"80 750 LINE",
"80 0 LINE"
);
}
);
width = 300;
},
{
background = {
paths = (
{
closed = 1;
nodes = (
"155 0 LINE",
"155 730 LINE",
"100 730 LINE",
"100 0 LINE"
);
}
);
};
layerId = "0A1AFE58-107D-4787-BDA0-D82FB635C3A6";
paths = (
{
closed = 1;
nodes = (
"155 0 LINE",
"155 750 LINE",
"100 750 LINE",
"100 0 LINE"
);
}
);
width = 255;
},
{
background = {
paths = (
{
closed = 1;
nodes = (
"269 0 LINE",
"269 730 LINE",
"64 730 LINE",
"64 0 LINE"
);
}
);
};
layerId = "84435905-EDCB-4949-A8A3-0E53308A2F50";
paths = (
{
closed = 1;
nodes = (
"269 0 LINE",
"269 750 LINE",
"64 750 LINE",
"64 0 LINE"
);
}
);
width = 329;
}
);
leftMetricsKey = h;
unicode = 006C;
userData = {
RMXScaler = {
source = l;
};
};
},
{
color = 4;
glyphname = m;
lastChange = "2017-07-18 15:16:54 +0000";
layers = (
{
background = {
paths = (
{
closed = 1;
nodes = (
"201 436 LINE",
"201 408 LINE",
"237 408 LINE",
"237 436 LINE"
);
},
{
closed = 1;
nodes = (
"537 429 LINE",
"537 401 LINE",
"573 401 LINE",
"573 429 LINE"
);
},
{
closed = 1;
nodes = (
"649 540 OFFCURVE",
"588 502 OFFCURVE",
"555 414 CURVE",
"541 491 OFFCURVE",
"485 540 OFFCURVE",
"394 540 CURVE SMOOTH",
"303 540 OFFCURVE",
"247 499 OFFCURVE",
"219 418 CURVE",
"200 525 LINE",
"77 525 LINE",
"77 0 LINE",
"217 0 LINE",
"217 308 LINE SMOOTH",
"217 373 OFFCURVE",
"256 413 OFFCURVE",
"329 413 CURVE SMOOTH",
"396 413 OFFCURVE",
"420 379 OFFCURVE",
"420 322 CURVE SMOOTH",
"420 0 LINE",
"560 0 LINE",
"560 308 LINE SMOOTH",
"560 373 OFFCURVE",
"599 413 OFFCURVE",
"672 413 CURVE SMOOTH",
"739 413 OFFCURVE",
"763 379 OFFCURVE",
"763 322 CURVE SMOOTH",
"763 0 LINE",
"903 0 LINE",
"903 370 LINE SMOOTH",
"903 471 OFFCURVE",
"845 540 OFFCURVE",
"737 540 CURVE SMOOTH"
);
}
);
};
layerId = "C76CAC8E-7AD6-478C-8F7E-02FEF6F1EA84";
paths = (
{
closed = 1;
nodes = (
"625 540 OFFCURVE",
"575 494 OFFCURVE",
"537 387 CURVE",
"595 421 LINE",
"501 421 LINE",
"552 388 LINE",
"541 486 OFFCURVE",
"490 540 OFFCURVE",
"391 540 CURVE SMOOTH",
"284 540 OFFCURVE",
"246 487 OFFCURVE",
"207 406 CURVE",
"266 434 LINE",
"170 434 LINE",
"222 390 LINE",
"200 525 LINE",
"77 525 LINE",
"77 0 LINE",
"217 0 LINE",
"217 288 LINE SMOOTH",
"217 363 OFFCURVE",
"263 415 OFFCURVE",
"326 415 CURVE SMOOTH",
"393 415 OFFCURVE",
"419 379 OFFCURVE",
"419 302 CURVE SMOOTH",
"419 0 LINE",
"559 0 LINE",
"559 288 LINE SMOOTH",
"559 363 OFFCURVE",
"605 415 OFFCURVE",
"668 415 CURVE SMOOTH",
"735 415 OFFCURVE",
"761 379 OFFCURVE",
"761 302 CURVE SMOOTH",
"761 0 LINE",
"901 0 LINE",
"901 350 LINE SMOOTH",
"901 471 OFFCURVE",
"845 540 OFFCURVE",
"733 540 CURVE SMOOTH"
);
}
);
width = 976;
},
{
background = {
paths = (
{
closed = 1;
nodes = (
"573 529 OFFCURVE",
"513 470 OFFCURVE",
"481 395 CURVE",
"514 420 LINE",
"477 420 LINE",
"495 394 LINE",
"480 485 OFFCURVE",
"412 529 OFFCURVE",
"322 529 CURVE SMOOTH",
"227 529 OFFCURVE",
"172 470 OFFCURVE",
"140 395 CURVE",
"173 420 LINE",
"136 420 LINE",
"151 400 LINE",
"138 514 LINE",
"95 514 LINE",
"95 0 LINE",
"150 0 LINE",
"150 278 LINE SMOOTH",
"150 391 OFFCURVE",
"222 477 OFFCURVE",
"316 477 CURVE SMOOTH",
"395 477 OFFCURVE",
"441 432 OFFCURVE",
"441 316 CURVE SMOOTH",
"441 0 LINE",
"496 0 LINE",
"496 278 LINE SMOOTH",
"496 391 OFFCURVE",
"568 477 OFFCURVE",
"663 477 CURVE SMOOTH",
"742 477 OFFCURVE",
"787 432 OFFCURVE",
"787 316 CURVE SMOOTH",
"787 0 LINE",
"842 0 LINE",
"842 345 LINE SMOOTH",
"842 473 OFFCURVE",
"769 529 OFFCURVE",
"668 529 CURVE SMOOTH"
);
}
);
};
layerId = "0A1AFE58-107D-4787-BDA0-D82FB635C3A6";
paths = (
{
closed = 1;
nodes = (
"593 529 OFFCURVE",
"523 470 OFFCURVE",
"491 395 CURVE",
"524 420 LINE",
"487 420 LINE",
"505 394 LINE",
"490 485 OFFCURVE",
"422 529 OFFCURVE",
"332 529 CURVE SMOOTH",
"237 529 OFFCURVE",
"172 470 OFFCURVE",
"140 395 CURVE",
"173 420 LINE",
"136 420 LINE",
"151 400 LINE",
"138 514 LINE",
"95 514 LINE",
"95 0 LINE",
"150 0 LINE",
"150 278 LINE SMOOTH",
"150 391 OFFCURVE",
"232 477 OFFCURVE",
"326 477 CURVE SMOOTH",
"405 477 OFFCURVE",
"451 432 OFFCURVE",
"451 316 CURVE SMOOTH",
"451 0 LINE",
"506 0 LINE",
"506 278 LINE SMOOTH",
"506 391 OFFCURVE",
"588 477 OFFCURVE",
"683 477 CURVE SMOOTH",
"762 477 OFFCURVE",
"807 432 OFFCURVE",
"807 316 CURVE SMOOTH",
"807 0 LINE",
"862 0 LINE",
"862 345 LINE SMOOTH",
"862 473 OFFCURVE",
"789 529 OFFCURVE",
"688 529 CURVE SMOOTH"
);
}
);
width = 952;
},
{
layerId = "84435905-EDCB-4949-A8A3-0E53308A2F50";
paths = (
{
closed = 1;
nodes = (
"671 549 OFFCURVE",
"626 493 OFFCURVE",
"592 390 CURVE",
"642 420 LINE",
"554 420 LINE",
"603 388 LINE",
"593 486 OFFCURVE",
"545 549 OFFCURVE",
"438 549 CURVE SMOOTH",
"331 549 OFFCURVE",
"290 488 OFFCURVE",
"253 398 CURVE",
"305 427 LINE",
"216 427 LINE",
"268 383 LINE",
"241 534 LINE",
"60 534 LINE",
"60 0 LINE",
"265 0 LINE",
"265 281 LINE SMOOTH",
"265 334 OFFCURVE",
"304 367 OFFCURVE",
"344 367 CURVE SMOOTH",
"380 367 OFFCURVE",
"400 345 OFFCURVE",
"400 292 CURVE SMOOTH",
"400 0 LINE",
"605 0 LINE",
"605 281 LINE SMOOTH",
"605 334 OFFCURVE",
"644 367 OFFCURVE",
"684 367 CURVE SMOOTH",
"720 367 OFFCURVE",
"740 345 OFFCURVE",
"740 292 CURVE SMOOTH",
"740 0 LINE",
"945 0 LINE",
"945 347 LINE SMOOTH",
"945 469 OFFCURVE",
"900 549 OFFCURVE",
"778 549 CURVE SMOOTH"
);
}
);
width = 1002;
}
);
leftMetricsKey = "=n";
rightMetricsKey = "=n";
unicode = 006D;
userData = {
RMXScaler = {
source = m;
};
};
},
{
color = 4;
glyphname = n;
lastChange = "2017-07-31 10:50:53 +0000";
layers = (
{
anchors = (
{
name = top;
position = "{320, 525}";
}
);
background = {
paths = (
{
closed = 1;
nodes = (
"217 0 LINE",
"217 278 LINE SMOOTH",
"217 359 OFFCURVE",
"274 415 OFFCURVE",
"345 415 CURVE SMOOTH",
"409 415 OFFCURVE",
"437 381 OFFCURVE",
"437 302 CURVE SMOOTH",
"437 0 LINE",
"577 0 LINE",
"577 346 LINE SMOOTH",
"577 471 OFFCURVE",
"519 540 OFFCURVE",
"402 540 CURVE SMOOTH",
"296 540 OFFCURVE",
"239 479 OFFCURVE",
"205 394 CURVE",
"233 423 LINE",
"199 423 LINE",
"217 401 LINE",
"198 525 LINE",
"77 525 LINE",
"77 0 LINE"
);
}
);
};
guideLines = (
{
angle = 90;
position = "{217, 288}";
}
);
layerId = "C76CAC8E-7AD6-478C-8F7E-02FEF6F1EA84";
paths = (
{
closed = 1;
nodes = (
"217 0 LINE",
"217 288 LINE SMOOTH",
"217 368 OFFCURVE",
"263 415 OFFCURVE",
"339 415 CURVE SMOOTH",
"402 415 OFFCURVE",
"430 381 OFFCURVE",
"430 302 CURVE SMOOTH",
"430 0 LINE",
"570 0 LINE",
"570 350 LINE SMOOTH",
"570 471 OFFCURVE",
"513 540 OFFCURVE",
"396 540 CURVE SMOOTH",
"297 540 OFFCURVE",
"251 494 OFFCURVE",
"214 424 CURVE",
"234 437 LINE",
"199 437 LINE",
"217 427 LINE",
"200 525 LINE",
"77 525 LINE",
"77 0 LINE"
);
}
);
width = 645;
},
{
anchors = (
{
name = top;
position = "{303, 514}";
}
);
background = {
paths = (
{
closed = 1;
nodes = (
"150 0 LINE",
"150 278 LINE SMOOTH",
"150 391 OFFCURVE",
"222 477 OFFCURVE",
"321 477 CURVE SMOOTH",
"406 477 OFFCURVE",
"452 432 OFFCURVE",
"452 316 CURVE SMOOTH",
"452 0 LINE",
"507 0 LINE",
"507 345 LINE SMOOTH",
"507 473 OFFCURVE",
"434 529 OFFCURVE",
"327 529 CURVE SMOOTH",
"226 529 OFFCURVE",
"172 470 OFFCURVE",
"139 395 CURVE",
"174 420 LINE",
"135 420 LINE",
"151 400 LINE",
"138 514 LINE",
"95 514 LINE",
"95 0 LINE"
);
}
);
};
layerId = "0A1AFE58-107D-4787-BDA0-D82FB635C3A6";
paths = (
{
closed = 1;
nodes = (
"150 0 LINE",
"150 278 LINE SMOOTH",
"150 391 OFFCURVE",
"232 477 OFFCURVE",
"331 477 CURVE SMOOTH",
"416 477 OFFCURVE",
"462 432 OFFCURVE",
"462 316 CURVE SMOOTH",
"462 0 LINE",
"517 0 LINE",
"517 345 LINE SMOOTH",
"517 473 OFFCURVE",
"444 529 OFFCURVE",
"337 529 CURVE SMOOTH",
"236 529 OFFCURVE",
"172 470 OFFCURVE",
"139 395 CURVE",
"174 420 LINE",
"135 420 LINE",
"151 400 LINE",
"138 514 LINE",
"95 514 LINE",
"95 0 LINE"
);
}
);
width = 607;
},
{
anchors = (
{
name = top;
position = "{341, 534}";
}
);
layerId = "84435905-EDCB-4949-A8A3-0E53308A2F50";
paths = (
{
closed = 1;
nodes = (
"265 0 LINE",
"265 279 LINE SMOOTH",
"265 335 OFFCURVE",
"301 367 OFFCURVE",
"351 367 CURVE SMOOTH",
"399 367 OFFCURVE",
"414 342 OFFCURVE",
"414 292 CURVE SMOOTH",
"414 0 LINE",
"619 0 LINE",
"619 347 LINE SMOOTH",
"619 469 OFFCURVE",
"573 549 OFFCURVE",
"447 549 CURVE SMOOTH",
"339 549 OFFCURVE",
"288 488 OFFCURVE",
"253 397 CURVE",
"275 427 LINE",
"245 427 LINE",
"265 405 LINE",
"241 534 LINE",
"60 534 LINE",
"60 0 LINE"
);
}
);
width = 676;
}
);
unicode = 006E;
userData = {
RMXScaler = {
source = n;
};
};
},
{
color = 4;
glyphname = o;
lastChange = "2017-07-31 08:54:51 +0000";
layers = (
{
anchors = (
{
name = top;
position = "{314, 525}";
}
);
background = {
paths = (
{
closed = 1;
nodes = (
"481 -15 OFFCURVE",
"584 83 OFFCURVE",
"584 263 CURVE SMOOTH",
"584 442 OFFCURVE",
"481 540 OFFCURVE",
"313 540 CURVE SMOOTH",
"147 540 OFFCURVE",
"44 442 OFFCURVE",
"44 263 CURVE SMOOTH",
"44 83 OFFCURVE",
"147 -15 OFFCURVE",
"313 -15 CURVE SMOOTH"
);
},
{
closed = 1;
nodes = (
"229 95 OFFCURVE",
"187 152 OFFCURVE",
"187 263 CURVE SMOOTH",
"187 373 OFFCURVE",
"229 430 OFFCURVE",
"313 430 CURVE SMOOTH",
"398 430 OFFCURVE",
"440 373 OFFCURVE",
"440 263 CURVE SMOOTH",
"440 152 OFFCURVE",
"398 95 OFFCURVE",
"313 95 CURVE SMOOTH"
);
}
);
};
layerId = "C76CAC8E-7AD6-478C-8F7E-02FEF6F1EA84";
paths = (
{
closed = 1;
nodes = (
"490 -15 OFFCURVE",
"581 86 OFFCURVE",
"581 263 CURVE SMOOTH",
"581 439 OFFCURVE",
"490 540 OFFCURVE",
"314 540 CURVE SMOOTH",
"138 540 OFFCURVE",
"47 439 OFFCURVE",
"47 263 CURVE SMOOTH",
"47 86 OFFCURVE",
"138 -15 OFFCURVE",
"314 -15 CURVE SMOOTH"
);
},
{
closed = 1;
nodes = (
"227 100 OFFCURVE",
"192 157 OFFCURVE",
"192 263 CURVE SMOOTH",
"192 368 OFFCURVE",
"227 425 OFFCURVE",
"314 425 CURVE SMOOTH",
"401 425 OFFCURVE",
"436 368 OFFCURVE",
"436 263 CURVE SMOOTH",
"436 157 OFFCURVE",
"401 100 OFFCURVE",
"314 100 CURVE SMOOTH"
);
}
);
width = 628;
},
{
anchors = (
{
name = top;
position = "{299, 514}";
}
);
layerId = "0A1AFE58-107D-4787-BDA0-D82FB635C3A6";
paths = (
{
closed = 1;
nodes = (
"439 -15 OFFCURVE",
"540 78 OFFCURVE",
"540 257 CURVE SMOOTH",
"540 436 OFFCURVE",
"439 529 OFFCURVE",
"299 529 CURVE SMOOTH",
"160 529 OFFCURVE",
"60 436 OFFCURVE",
"60 257 CURVE SMOOTH",
"60 78 OFFCURVE",
"160 -15 OFFCURVE",
"299 -15 CURVE SMOOTH"
);
},
{
closed = 1;
nodes = (
"183 32 OFFCURVE",
"116 108 OFFCURVE",
"116 257 CURVE SMOOTH",
"116 406 OFFCURVE",
"183 482 OFFCURVE",
"299 482 CURVE SMOOTH",
"415 482 OFFCURVE",
"483 406 OFFCURVE",
"483 257 CURVE SMOOTH",
"483 108 OFFCURVE",
"415 32 OFFCURVE",
"299 32 CURVE SMOOTH"
);
}
);
width = 600;
},
{
anchors = (
{
name = top;
position = "{328, 534}";
}
);
layerId = "84435905-EDCB-4949-A8A3-0E53308A2F50";
paths = (
{
closed = 1;
nodes = (
"517 -15 OFFCURVE",
"620 88 OFFCURVE",
"620 267 CURVE SMOOTH",
"620 446 OFFCURVE",
"517 549 OFFCURVE",
"328 549 CURVE SMOOTH",
"139 549 OFFCURVE",
"36 446 OFFCURVE",
"36 267 CURVE SMOOTH",
"36 88 OFFCURVE",
"139 -15 OFFCURVE",
"328 -15 CURVE SMOOTH"
);
},
{
closed = 1;
nodes = (
"267 143 OFFCURVE",
"246 183 OFFCURVE",
"246 267 CURVE SMOOTH",
"246 351 OFFCURVE",
"267 390 OFFCURVE",
"328 390 CURVE SMOOTH",
"389 390 OFFCURVE",
"410 351 OFFCURVE",
"410 267 CURVE SMOOTH",
"410 183 OFFCURVE",
"389 143 OFFCURVE",
"328 143 CURVE SMOOTH"
);
}
);
width = 656;
}
);
unicode = 006F;
userData = {
RMXScaler = {
source = o;
};
};
},
{
color = 4;
glyphname = p;
lastChange = "2017-07-18 15:16:54 +0000";
layers = (
{
background = {
paths = (
{
closed = 1;
nodes = (
"217 79 LINE",
"222 79 LINE",
"253 17 OFFCURVE",
"309 -15 OFFCURVE",
"383 -15 CURVE SMOOTH",
"526 -15 OFFCURVE",
"612 89 OFFCURVE",
"612 262 CURVE SMOOTH",
"612 435 OFFCURVE",
"526 539 OFFCURVE",
"383 539 CURVE SMOOTH",
"309 539 OFFCURVE",
"253 506 OFFCURVE",
"222 440 CURVE",
"215 440 LINE",
"200 525 LINE",
"77 525 LINE",
"77 -245 LINE",
"217 -245 LINE"
);
},
{
closed = 1;
nodes = (
"426 419 OFFCURVE",
"467 369 OFFCURVE",
"467 262 CURVE SMOOTH",
"467 155 OFFCURVE",
"426 105 OFFCURVE",
"341 105 CURVE SMOOTH",
"260 105 OFFCURVE",
"217 160 OFFCURVE",
"217 262 CURVE SMOOTH",
"217 364 OFFCURVE",
"260 419 OFFCURVE",
"341 419 CURVE SMOOTH"
);
}
);
};
layerId = "C76CAC8E-7AD6-478C-8F7E-02FEF6F1EA84";
paths = (
{
closed = 1;
nodes = (
"217 79 LINE",
"222 79 LINE",
"253 17 OFFCURVE",
"309 -15 OFFCURVE",
"383 -15 CURVE SMOOTH",
"526 -15 OFFCURVE",
"612 89 OFFCURVE",
"612 262 CURVE SMOOTH",
"612 435 OFFCURVE",
"526 539 OFFCURVE",
"383 539 CURVE SMOOTH",
"309 539 OFFCURVE",
"253 506 OFFCURVE",
"222 440 CURVE",
"215 440 LINE",
"200 525 LINE",
"77 525 LINE",
"77 -195 LINE",
"217 -195 LINE"
);
},
{
closed = 1;
nodes = (
"426 419 OFFCURVE",
"467 369 OFFCURVE",
"467 262 CURVE SMOOTH",
"467 155 OFFCURVE",
"426 105 OFFCURVE",
"341 105 CURVE SMOOTH",
"260 105 OFFCURVE",
"217 160 OFFCURVE",
"217 262 CURVE SMOOTH",
"217 364 OFFCURVE",
"260 419 OFFCURVE",
"341 419 CURVE SMOOTH"
);
}
);
width = 659;
},
{
background = {
paths = (
{
closed = 1;
nodes = (
"150 89 LINE",
"154 89 LINE",
"176 50 OFFCURVE",
"217 -15 OFFCURVE",
"330 -15 CURVE SMOOTH",
"477 -15 OFFCURVE",
"562 86 OFFCURVE",
"562 257 CURVE SMOOTH",
"562 427 OFFCURVE",
"485 528 OFFCURVE",
"330 528 CURVE SMOOTH",
"228 528 OFFCURVE",
"180 466 OFFCURVE",
"154 413 CURVE",
"150 413 LINE",
"136 514 LINE",
"95 514 LINE",
"95 -256 LINE",
"150 -256 LINE"
);
},
{
closed = 1;
nodes = (
"451 481 OFFCURVE",
"506 401 OFFCURVE",
"506 257 CURVE SMOOTH",
"506 112 OFFCURVE",
"445 32 OFFCURVE",
"331 32 CURVE SMOOTH",
"211 32 OFFCURVE",
"145 133 OFFCURVE",
"145 257 CURVE SMOOTH",
"145 365 OFFCURVE",
"211 481 OFFCURVE",
"331 481 CURVE SMOOTH"
);
}
);
};
layerId = "0A1AFE58-107D-4787-BDA0-D82FB635C3A6";
paths = (
{
closed = 1;
nodes = (
"150 89 LINE",
"154 89 LINE",
"176 50 OFFCURVE",
"217 -15 OFFCURVE",
"330 -15 CURVE SMOOTH",
"477 -15 OFFCURVE",
"562 86 OFFCURVE",
"562 257 CURVE SMOOTH",
"562 427 OFFCURVE",
"485 528 OFFCURVE",
"330 528 CURVE SMOOTH",
"228 528 OFFCURVE",
"180 466 OFFCURVE",
"154 413 CURVE",
"150 413 LINE",
"136 514 LINE",
"95 514 LINE",
"95 -195 LINE",
"150 -195 LINE"
);
},
{
closed = 1;
nodes = (
"451 481 OFFCURVE",
"506 401 OFFCURVE",
"506 257 CURVE SMOOTH",
"506 112 OFFCURVE",
"445 32 OFFCURVE",
"331 32 CURVE SMOOTH",
"211 32 OFFCURVE",
"145 133 OFFCURVE",
"145 257 CURVE SMOOTH",
"145 365 OFFCURVE",
"211 481 OFFCURVE",
"331 481 CURVE SMOOTH"
);
}
);
width = 622;
},
{
background = {
paths = (
{
closed = 1;
nodes = (
"265 79 LINE",
"271 79 LINE",
"292 32 OFFCURVE",
"346 -15 OFFCURVE",
"432 -15 CURVE SMOOTH",
"569 -15 OFFCURVE",
"649 92 OFFCURVE",
"649 267 CURVE SMOOTH",
"649 441 OFFCURVE",
"569 548 OFFCURVE",
"432 548 CURVE SMOOTH",
"346 548 OFFCURVE",
"292 501 OFFCURVE",
"271 453 CURVE",
"258 453 LINE",
"241 534 LINE",
"60 534 LINE",
"60 -236 LINE",
"265 -236 LINE"
);
},
{
closed = 1;
nodes = (
"413 383 OFFCURVE",
"439 345 OFFCURVE",
"439 267 CURVE SMOOTH",
"439 188 OFFCURVE",
"413 150 OFFCURVE",
"352 150 CURVE SMOOTH",
"295 150 OFFCURVE",
"265 189 OFFCURVE",
"265 267 CURVE SMOOTH",
"265 344 OFFCURVE",
"295 383 OFFCURVE",
"352 383 CURVE SMOOTH"
);
}
);
};
layerId = "84435905-EDCB-4949-A8A3-0E53308A2F50";
paths = (
{
closed = 1;
nodes = (
"265 79 LINE",
"271 79 LINE",
"292 32 OFFCURVE",
"346 -15 OFFCURVE",
"432 -15 CURVE SMOOTH",
"569 -15 OFFCURVE",
"649 92 OFFCURVE",
"649 267 CURVE SMOOTH",
"649 441 OFFCURVE",
"569 548 OFFCURVE",
"432 548 CURVE SMOOTH",
"346 548 OFFCURVE",
"292 501 OFFCURVE",
"271 453 CURVE",
"258 453 LINE",
"241 534 LINE",
"60 534 LINE",
"60 -195 LINE",
"265 -195 LINE"
);
},
{
closed = 1;
nodes = (
"413 383 OFFCURVE",
"439 345 OFFCURVE",
"439 267 CURVE SMOOTH",
"439 188 OFFCURVE",
"413 150 OFFCURVE",
"352 150 CURVE SMOOTH",
"295 150 OFFCURVE",
"265 189 OFFCURVE",
"265 267 CURVE SMOOTH",
"265 344 OFFCURVE",
"295 383 OFFCURVE",
"352 383 CURVE SMOOTH"
);
}
);
width = 685;
}
);
leftMetricsKey = "=n";
rightMetricsKey = "=o";
unicode = 0070;
userData = {
RMXScaler = {
source = p;
};
};
},
{
color = 4;
glyphname = q;
lastChange = "2017-07-18 15:16:54 +0000";
layers = (
{
background = {
paths = (
{
closed = 1;
nodes = (
"582 -245 LINE",
"582 525 LINE",
"459 525 LINE",
"444 440 LINE",
"437 440 LINE",
"406 506 OFFCURVE",
"350 539 OFFCURVE",
"276 539 CURVE SMOOTH",
"133 539 OFFCURVE",
"47 435 OFFCURVE",
"47 262 CURVE SMOOTH",
"47 89 OFFCURVE",
"133 -15 OFFCURVE",
"276 -15 CURVE SMOOTH",
"350 -15 OFFCURVE",
"406 17 OFFCURVE",
"437 79 CURVE",
"442 79 LINE",
"442 -245 LINE"
);
},
{
closed = 1;
nodes = (
"399 419 OFFCURVE",
"442 364 OFFCURVE",
"442 262 CURVE SMOOTH",
"442 160 OFFCURVE",
"399 105 OFFCURVE",
"318 105 CURVE SMOOTH",
"233 105 OFFCURVE",
"192 155 OFFCURVE",
"192 262 CURVE SMOOTH",
"192 369 OFFCURVE",
"233 419 OFFCURVE",
"318 419 CURVE SMOOTH"
);
}
);
};
layerId = "C76CAC8E-7AD6-478C-8F7E-02FEF6F1EA84";
paths = (
{
closed = 1;
nodes = (
"582 -195 LINE",
"582 525 LINE",
"459 525 LINE",
"444 440 LINE",
"437 440 LINE",
"406 506 OFFCURVE",
"350 539 OFFCURVE",
"276 539 CURVE SMOOTH",
"133 539 OFFCURVE",
"47 435 OFFCURVE",
"47 262 CURVE SMOOTH",
"47 89 OFFCURVE",
"133 -15 OFFCURVE",
"276 -15 CURVE SMOOTH",
"350 -15 OFFCURVE",
"406 17 OFFCURVE",
"437 79 CURVE",
"442 79 LINE",
"442 -195 LINE"
);
},
{
closed = 1;
nodes = (
"399 419 OFFCURVE",
"442 364 OFFCURVE",
"442 262 CURVE SMOOTH",
"442 160 OFFCURVE",
"399 105 OFFCURVE",
"318 105 CURVE SMOOTH",
"233 105 OFFCURVE",
"192 155 OFFCURVE",
"192 262 CURVE SMOOTH",
"192 369 OFFCURVE",
"233 419 OFFCURVE",
"318 419 CURVE SMOOTH"
);
}
);
width = 659;
},
{
background = {
paths = (
{
closed = 1;
nodes = (
"527 -256 LINE",
"527 514 LINE",
"486 514 LINE",
"472 413 LINE",
"468 413 LINE",
"442 466 OFFCURVE",
"394 528 OFFCURVE",
"292 528 CURVE SMOOTH",
"137 528 OFFCURVE",
"60 427 OFFCURVE",
"60 257 CURVE SMOOTH",
"60 86 OFFCURVE",
"145 -15 OFFCURVE",
"292 -15 CURVE SMOOTH",
"405 -15 OFFCURVE",
"446 50 OFFCURVE",
"468 89 CURVE",
"472 89 LINE",
"472 -256 LINE"
);
},
{
closed = 1;
nodes = (
"411 481 OFFCURVE",
"477 365 OFFCURVE",
"477 257 CURVE SMOOTH",
"477 133 OFFCURVE",
"411 32 OFFCURVE",
"291 32 CURVE SMOOTH",
"177 32 OFFCURVE",
"116 112 OFFCURVE",
"116 257 CURVE SMOOTH",
"116 401 OFFCURVE",
"171 481 OFFCURVE",
"291 481 CURVE SMOOTH"
);
}
);
};
layerId = "0A1AFE58-107D-4787-BDA0-D82FB635C3A6";
paths = (
{
closed = 1;
nodes = (
"527 -195 LINE",
"527 514 LINE",
"486 514 LINE",
"472 413 LINE",
"468 413 LINE",
"442 466 OFFCURVE",
"394 528 OFFCURVE",
"292 528 CURVE SMOOTH",
"137 528 OFFCURVE",
"60 427 OFFCURVE",
"60 257 CURVE SMOOTH",
"60 86 OFFCURVE",
"145 -15 OFFCURVE",
"292 -15 CURVE SMOOTH",
"405 -15 OFFCURVE",
"446 50 OFFCURVE",
"468 89 CURVE",
"472 89 LINE",
"472 -195 LINE"
);
},
{
closed = 1;
nodes = (
"411 481 OFFCURVE",
"477 365 OFFCURVE",
"477 257 CURVE SMOOTH",
"477 133 OFFCURVE",
"411 32 OFFCURVE",
"291 32 CURVE SMOOTH",
"177 32 OFFCURVE",
"116 112 OFFCURVE",
"116 257 CURVE SMOOTH",
"116 401 OFFCURVE",
"171 481 OFFCURVE",
"291 481 CURVE SMOOTH"
);
}
);
width = 622;
},
{
background = {
paths = (
{
closed = 1;
nodes = (
"625 -236 LINE",
"625 534 LINE",
"444 534 LINE",
"427 453 LINE",
"414 453 LINE",
"393 501 OFFCURVE",
"339 548 OFFCURVE",
"253 548 CURVE SMOOTH",
"116 548 OFFCURVE",
"36 441 OFFCURVE",
"36 267 CURVE SMOOTH",
"36 92 OFFCURVE",
"116 -15 OFFCURVE",
"253 -15 CURVE SMOOTH",
"339 -15 OFFCURVE",
"393 32 OFFCURVE",
"414 79 CURVE",
"420 79 LINE",
"420 -236 LINE"
);
},
{
closed = 1;
nodes = (
"390 383 OFFCURVE",
"420 344 OFFCURVE",
"420 267 CURVE SMOOTH",
"420 189 OFFCURVE",
"390 150 OFFCURVE",
"333 150 CURVE SMOOTH",
"272 150 OFFCURVE",
"246 188 OFFCURVE",
"246 267 CURVE SMOOTH",
"246 345 OFFCURVE",
"272 383 OFFCURVE",
"333 383 CURVE SMOOTH"
);
}
);
};
layerId = "84435905-EDCB-4949-A8A3-0E53308A2F50";
paths = (
{
closed = 1;
nodes = (
"625 -195 LINE",
"625 534 LINE",
"444 534 LINE",
"427 453 LINE",
"414 453 LINE",
"393 501 OFFCURVE",
"339 548 OFFCURVE",
"253 548 CURVE SMOOTH",
"116 548 OFFCURVE",
"36 441 OFFCURVE",
"36 267 CURVE SMOOTH",
"36 92 OFFCURVE",
"116 -15 OFFCURVE",
"253 -15 CURVE SMOOTH",
"339 -15 OFFCURVE",
"393 32 OFFCURVE",
"414 79 CURVE",
"420 79 LINE",
"420 -195 LINE"
);
},
{
closed = 1;
nodes = (
"390 383 OFFCURVE",
"420 344 OFFCURVE",
"420 267 CURVE SMOOTH",
"420 189 OFFCURVE",
"390 150 OFFCURVE",
"333 150 CURVE SMOOTH",
"272 150 OFFCURVE",
"246 188 OFFCURVE",
"246 267 CURVE SMOOTH",
"246 345 OFFCURVE",
"272 383 OFFCURVE",
"333 383 CURVE SMOOTH"
);
}
);
width = 685;
}
);
leftMetricsKey = "=o";
rightMetricsKey = "=|n";
unicode = 0071;
userData = {
RMXScaler = {
source = q;
};
};
},
{
color = 4;
glyphname = r;
lastChange = "2017-07-31 10:51:02 +0000";
layers = (
{
anchors = (
{
name = top;
position = "{240, 525}";
}
);
background = {
paths = (
{
closed = 1;
nodes = (
"237 431 LINE",
"202 431 LINE",
"217 426 LINE",
"200 525 LINE",
"77 525 LINE",
"77 0 LINE",
"217 0 LINE",
"217 291 LINE SMOOTH",
"217 366 OFFCURVE",
"277 405 OFFCURVE",
"353 405 CURVE SMOOTH",
"375 405 OFFCURVE",
"394 403 OFFCURVE",
"410 400 CURVE",
"410 533 LINE",
"397 536 OFFCURVE",
"380 538 OFFCURVE",
"361 538 CURVE SMOOTH",
"277 538 OFFCURVE",
"226 486 OFFCURVE",
"203 354 CURVE"
);
}
);
};
layerId = "C76CAC8E-7AD6-478C-8F7E-02FEF6F1EA84";
paths = (
{
closed = 1;
nodes = (
"237 431 LINE",
"202 431 LINE",
"217 426 LINE",
"200 525 LINE",
"77 525 LINE",
"77 0 LINE",
"217 0 LINE",
"217 291 LINE SMOOTH",
"217 366 OFFCURVE",
"277 405 OFFCURVE",
"353 405 CURVE SMOOTH",
"375 405 OFFCURVE",
"384 404 OFFCURVE",
"400 402 CURVE",
"410 533 LINE",
"397 536 OFFCURVE",
"380 538 OFFCURVE",
"361 538 CURVE SMOOTH",
"277 538 OFFCURVE",
"226 486 OFFCURVE",
"203 354 CURVE"
);
}
);
width = 420;
},
{
anchors = (
{
name = top;
position = "{242, 514}";
}
);
background = {
paths = (
{
closed = 1;
nodes = (
"174 420 LINE",
"135 420 LINE",
"151 400 LINE",
"138 514 LINE",
"95 514 LINE",
"95 0 LINE",
"150 0 LINE",
"150 278 LINE SMOOTH",
"150 396 OFFCURVE",
"219 474 OFFCURVE",
"321 474 CURVE SMOOTH",
"333 474 OFFCURVE",
"354 471 OFFCURVE",
"365 468 CURVE",
"365 521 LINE",
"350 526 OFFCURVE",
"334 529 OFFCURVE",
"313 529 CURVE SMOOTH",
"228 529 OFFCURVE",
"174 475 OFFCURVE",
"141 395 CURVE"
);
}
);
};
layerId = "0A1AFE58-107D-4787-BDA0-D82FB635C3A6";
paths = (
{
closed = 1;
nodes = (
"174 420 LINE",
"135 420 LINE",
"151 400 LINE",
"138 514 LINE",
"95 514 LINE",
"95 0 LINE",
"150 0 LINE",
"150 278 LINE SMOOTH",
"150 396 OFFCURVE",
"219 474 OFFCURVE",
"321 474 CURVE SMOOTH",
"333 474 OFFCURVE",
"349 472 OFFCURVE",
"360 469 CURVE",
"368 521 LINE",
"353 526 OFFCURVE",
"334 529 OFFCURVE",
"313 529 CURVE SMOOTH",
"228 529 OFFCURVE",
"174 475 OFFCURVE",
"141 395 CURVE"
);
}
);
width = 370;
},
{
anchors = (
{
name = top;
position = "{251, 534}";
}
);
background = {
paths = (
{
closed = 1;
nodes = (
"282 422 LINE",
"248 422 LINE",
"262 417 LINE",
"241 534 LINE",
"60 534 LINE",
"60 0 LINE",
"265 0 LINE",
"265 249 LINE SMOOTH",
"265 316 OFFCURVE",
"314 357 OFFCURVE",
"388 357 CURVE SMOOTH",
"410 357 OFFCURVE",
"428 355 OFFCURVE",
"444 352 CURVE",
"444 542 LINE",
"432 546 OFFCURVE",
"408 548 OFFCURVE",
"396 548 CURVE SMOOTH",
"296 548 OFFCURVE",
"268 479 OFFCURVE",
"256 345 CURVE"
);
}
);
};
layerId = "84435905-EDCB-4949-A8A3-0E53308A2F50";
paths = (
{
closed = 1;
nodes = (
"282 422 LINE",
"248 422 LINE",
"262 417 LINE",
"241 534 LINE",
"60 534 LINE",
"60 0 LINE",
"265 0 LINE",
"265 249 LINE SMOOTH",
"265 316 OFFCURVE",
"314 357 OFFCURVE",
"388 357 CURVE SMOOTH",
"400 357 OFFCURVE",
"425 355 OFFCURVE",
"434 354 CURVE",
"454 541 LINE",
"442 544 OFFCURVE",
"418 548 OFFCURVE",
"396 548 CURVE SMOOTH",
"296 548 OFFCURVE",
"268 479 OFFCURVE",
"256 345 CURVE"
);
}
);
width = 462;
}
);
leftMetricsKey = "=n";
unicode = 0072;
userData = {
RMXScaler = {
source = r;
};
};
},
{
color = 4;
glyphname = s;
lastChange = "2017-07-31 10:51:08 +0000";
layers = (
{
anchors = (
{
name = top;
position = "{289, 525}";
}
);
background = {
paths = (
{
closed = 1;
nodes = (
"429 -13 OFFCURVE",
"527 41 OFFCURVE",
"527 155 CURVE SMOOTH",
"527 245 OFFCURVE",
"471 285 OFFCURVE",
"368 306 CURVE SMOOTH",
"273 325 LINE SMOOTH",
"220 336 OFFCURVE",
"202 351 OFFCURVE",
"202 382 CURVE SMOOTH",
"202 414 OFFCURVE",
"227 435 OFFCURVE",
"286 435 CURVE SMOOTH",
"341 435 OFFCURVE",
"371 419 OFFCURVE",
"377 384 CURVE SMOOTH",
"379 373 LINE",
"520 373 LINE",
"517 395 LINE SMOOTH",
"505 483 OFFCURVE",
"430 540 OFFCURVE",
"289 540 CURVE SMOOTH",
"151 540 OFFCURVE",
"66 482 OFFCURVE",
"66 374 CURVE SMOOTH",
"66 283 OFFCURVE",
"132 237 OFFCURVE",
"227 219 CURVE SMOOTH",
"321 201 LINE SMOOTH",
"373 191 OFFCURVE",
"391 177 OFFCURVE",
"391 148 CURVE SMOOTH",
"391 111 OFFCURVE",
"352 92 OFFCURVE",
"299 92 CURVE SMOOTH",
"240 92 OFFCURVE",
"207 106 OFFCURVE",
"199 147 CURVE SMOOTH",
"197 157 LINE",
"55 157 LINE",
"57 140 LINE SMOOTH",
"70 31 OFFCURVE",
"161 -13 OFFCURVE",
"296 -13 CURVE SMOOTH"
);
}
);
};
layerId = "C76CAC8E-7AD6-478C-8F7E-02FEF6F1EA84";
paths = (
{
closed = 1;
nodes = (
"429 -15 OFFCURVE",
"527 41 OFFCURVE",
"527 155 CURVE SMOOTH",
"527 245 OFFCURVE",
"471 285 OFFCURVE",
"368 306 CURVE SMOOTH",
"273 325 LINE SMOOTH",
"220 336 OFFCURVE",
"202 351 OFFCURVE",
"202 382 CURVE SMOOTH",
"202 414 OFFCURVE",
"227 435 OFFCURVE",
"286 435 CURVE SMOOTH",
"349 435 OFFCURVE",
"374 416 OFFCURVE",
"379 373 CURVE",
"520 383 LINE",
"512 486 OFFCURVE",
"429 540 OFFCURVE",
"289 540 CURVE SMOOTH",
"151 540 OFFCURVE",
"66 482 OFFCURVE",
"66 374 CURVE SMOOTH",
"66 283 OFFCURVE",
"132 237 OFFCURVE",
"227 219 CURVE SMOOTH",
"321 201 LINE SMOOTH",
"373 191 OFFCURVE",
"391 177 OFFCURVE",
"391 148 CURVE SMOOTH",
"391 111 OFFCURVE",
"352 90 OFFCURVE",
"299 90 CURVE SMOOTH",
"231 90 OFFCURVE",
"203 111 OFFCURVE",
"197 157 CURVE",
"55 147 LINE",
"62 47 OFFCURVE",
"137 -15 OFFCURVE",
"296 -15 CURVE SMOOTH"
);
}
);
width = 582;
},
{
anchors = (
{
name = top;
position = "{268, 514}";
}
);
background = {
paths = (
{
closed = 1;
nodes = (
"392 -15 OFFCURVE",
"473 17 OFFCURVE",
"475 123 CURVE SMOOTH",
"477 208 OFFCURVE",
"426 247 OFFCURVE",
"326 273 CURVE SMOOTH",
"237 296 LINE SMOOTH",
"161 316 OFFCURVE",
"129 339 OFFCURVE",
"129 392 CURVE SMOOTH",
"129 450 OFFCURVE",
"175 482 OFFCURVE",
"268 482 CURVE SMOOTH",
"356 482 OFFCURVE",
"402 452 OFFCURVE",
"410 387 CURVE SMOOTH",
"411 379 LINE",
"466 379 LINE",
"465 389 LINE SMOOTH",
"456 477 OFFCURVE",
"396 529 OFFCURVE",
"268 529 CURVE SMOOTH",
"151 529 OFFCURVE",
"78 479 OFFCURVE",
"78 392 CURVE SMOOTH",
"78 299 OFFCURVE",
"141 268 OFFCURVE",
"221 248 CURVE SMOOTH",
"325 222 LINE SMOOTH",
"393 205 OFFCURVE",
"424 178 OFFCURVE",
"424 121 CURVE SMOOTH",
"424 52 OFFCURVE",
"367 31 OFFCURVE",
"275 31 CURVE SMOOTH",
"175 31 OFFCURVE",
"128 65 OFFCURVE",
"121 131 CURVE SMOOTH",
"120 140 LINE",
"65 140 LINE",
"65 137 LINE SMOOTH",
"65 40 OFFCURVE",
"138 -15 OFFCURVE",
"277 -15 CURVE SMOOTH"
);
}
);
};
layerId = "0A1AFE58-107D-4787-BDA0-D82FB635C3A6";
paths = (
{
closed = 1;
nodes = (
"392 -15 OFFCURVE",
"473 27 OFFCURVE",
"475 123 CURVE SMOOTH",
"477 208 OFFCURVE",
"426 247 OFFCURVE",
"326 273 CURVE SMOOTH",
"237 296 LINE SMOOTH",
"161 316 OFFCURVE",
"130 339 OFFCURVE",
"130 392 CURVE SMOOTH",
"130 450 OFFCURVE",
"175 482 OFFCURVE",
"268 482 CURVE SMOOTH",
"341 482 OFFCURVE",
"398 447 OFFCURVE",
"415 376 CURVE",
"466 384 LINE",
"445 479 OFFCURVE",
"379 529 OFFCURVE",
"268 529 CURVE SMOOTH",
"151 529 OFFCURVE",
"78 479 OFFCURVE",
"78 392 CURVE SMOOTH",
"78 299 OFFCURVE",
"141 268 OFFCURVE",
"221 248 CURVE SMOOTH",
"325 222 LINE SMOOTH",
"393 205 OFFCURVE",
"423 178 OFFCURVE",
"423 121 CURVE SMOOTH",
"423 62 OFFCURVE",
"367 31 OFFCURVE",
"285 31 CURVE SMOOTH",
"192 31 OFFCURVE",
"142 71 OFFCURVE",
"120 140 CURVE",
"67 132 LINE",
"86 41 OFFCURVE",
"159 -15 OFFCURVE",
"287 -15 CURVE SMOOTH"
);
}
);
width = 535;
},
{
anchors = (
{
name = top;
position = "{293, 534}";
}
);
background = {
paths = (
{
closed = 1;
nodes = (
"461 -16 OFFCURVE",
"556 47 OFFCURVE",
"556 157 CURVE SMOOTH",
"556 250 OFFCURVE",
"493 307 OFFCURVE",
"379 328 CURVE SMOOTH",
"294 344 LINE SMOOTH",
"253 352 OFFCURVE",
"242 364 OFFCURVE",
"242 386 CURVE SMOOTH",
"242 410 OFFCURVE",
"259 419 OFFCURVE",
"291 419 CURVE SMOOTH",
"323 419 OFFCURVE",
"340 405 OFFCURVE",
"344 376 CURVE SMOOTH",
"345 369 LINE",
"553 369 LINE",
"551 385 LINE SMOOTH",
"538 492 OFFCURVE",
"447 549 OFFCURVE",
"293 549 CURVE SMOOTH",
"129 549 OFFCURVE",
"43 482 OFFCURVE",
"43 375 CURVE SMOOTH",
"43 278 OFFCURVE",
"104 226 OFFCURVE",
"227 203 CURVE SMOOTH",
"303 189 LINE SMOOTH",
"346 181 OFFCURVE",
"358 171 OFFCURVE",
"358 148 CURVE SMOOTH",
"358 124 OFFCURVE",
"338 114 OFFCURVE",
"311 114 CURVE SMOOTH",
"274 114 OFFCURVE",
"256 129 OFFCURVE",
"251 159 CURVE SMOOTH",
"249 170 LINE",
"35 170 LINE",
"36 154 LINE SMOOTH",
"43 37 OFFCURVE",
"147 -16 OFFCURVE",
"298 -16 CURVE SMOOTH"
);
}
);
};
layerId = "84435905-EDCB-4949-A8A3-0E53308A2F50";
paths = (
{
closed = 1;
nodes = (
"461 -15 OFFCURVE",
"556 47 OFFCURVE",
"556 157 CURVE SMOOTH",
"556 250 OFFCURVE",
"493 307 OFFCURVE",
"379 328 CURVE SMOOTH",
"294 344 LINE SMOOTH",
"253 352 OFFCURVE",
"242 364 OFFCURVE",
"242 386 CURVE SMOOTH",
"242 410 OFFCURVE",
"259 419 OFFCURVE",
"291 419 CURVE SMOOTH",
"325 419 OFFCURVE",
"342 398 OFFCURVE",
"355 364 CURVE",
"553 384 LINE",
"535 489 OFFCURVE",
"460 549 OFFCURVE",
"293 549 CURVE SMOOTH",
"129 549 OFFCURVE",
"43 482 OFFCURVE",
"43 375 CURVE SMOOTH",
"43 278 OFFCURVE",
"104 226 OFFCURVE",
"227 203 CURVE SMOOTH",
"303 189 LINE SMOOTH",
"346 181 OFFCURVE",
"358 171 OFFCURVE",
"358 148 CURVE SMOOTH",
"358 124 OFFCURVE",
"338 115 OFFCURVE",
"311 115 CURVE SMOOTH",
"270 115 OFFCURVE",
"254 131 OFFCURVE",
"239 170 CURVE",
"35 150 LINE",
"47 52 OFFCURVE",
"123 -15 OFFCURVE",
"298 -15 CURVE SMOOTH"
);
}
);
width = 591;
}
);
unicode = 0073;
userData = {
RMXScaler = {
source = s;
};
};
},
{
color = 4;
glyphname = t;
lastChange = "2017-07-26 11:21:07 +0000";
layers = (
{
background = {
paths = (
{
closed = 1;
nodes = (
"15 410 LINE",
"398 410 LINE",
"398 525 LINE",
"15 525 LINE"
);
},
{
closed = 1;
nodes = (
"393 111 LINE",
"383 109 OFFCURVE",
"345 106 OFFCURVE",
"325 106 CURVE SMOOTH",
"275 106 OFFCURVE",
"250 128 OFFCURVE",
"250 190 CURVE SMOOTH",
"250 665 LINE",
"134 665 LINE",
"110 525 LINE",
"110 167 LINE SMOOTH",
"110 47 OFFCURVE",
"169 -9 OFFCURVE",
"294 -9 CURVE SMOOTH",
"335 -9 OFFCURVE",
"374 -3 OFFCURVE",
"393 1 CURVE"
);
}
);
};
layerId = "C76CAC8E-7AD6-478C-8F7E-02FEF6F1EA84";
paths = (
{
closed = 1;
nodes = (
"15 410 LINE",
"398 410 LINE",
"398 525 LINE",
"15 525 LINE"
);
},
{
closed = 1;
nodes = (
"383 110 LINE",
"376 109 OFFCURVE",
"345 106 OFFCURVE",
"325 106 CURVE SMOOTH",
"275 106 OFFCURVE",
"250 128 OFFCURVE",
"250 190 CURVE SMOOTH",
"250 665 LINE",
"134 665 LINE",
"110 525 LINE",
"110 167 LINE SMOOTH",
"110 47 OFFCURVE",
"169 -9 OFFCURVE",
"294 -9 CURVE SMOOTH",
"335 -9 OFFCURVE",
"374 -3 OFFCURVE",
"393 1 CURVE"
);
}
);
width = 433;
},
{
background = {
paths = (
{
closed = 1;
nodes = (
"13 464 LINE",
"362 464 LINE",
"362 514 LINE",
"13 514 LINE"
);
},
{
closed = 1;
nodes = (
"362 47 LINE",
"342 44 OFFCURVE",
"315 39 OFFCURVE",
"287 39 CURVE SMOOTH",
"220 39 OFFCURVE",
"184 66 OFFCURVE",
"184 147 CURVE SMOOTH",
"184 665 LINE",
"144 665 LINE",
"129 514 LINE",
"129 146 LINE SMOOTH",
"129 36 OFFCURVE",
"180 -10 OFFCURVE",
"285 -10 CURVE SMOOTH",
"318 -10 OFFCURVE",
"349 -3 OFFCURVE",
"362 0 CURVE"
);
}
);
};
layerId = "0A1AFE58-107D-4787-BDA0-D82FB635C3A6";
paths = (
{
closed = 1;
nodes = (
"13 464 LINE",
"362 464 LINE",
"362 514 LINE",
"13 514 LINE"
);
},
{
closed = 1;
nodes = (
"357 45 LINE",
"337 42 OFFCURVE",
"315 39 OFFCURVE",
"287 39 CURVE SMOOTH",
"220 39 OFFCURVE",
"184 66 OFFCURVE",
"184 147 CURVE SMOOTH",
"184 665 LINE",
"144 665 LINE",
"129 514 LINE",
"129 146 LINE SMOOTH",
"129 36 OFFCURVE",
"180 -10 OFFCURVE",
"285 -10 CURVE SMOOTH",
"318 -10 OFFCURVE",
"352 -3 OFFCURVE",
"365 0 CURVE"
);
}
);
width = 383;
},
{
background = {
paths = (
{
closed = 1;
nodes = (
"11 380 LINE",
"413 380 LINE",
"413 534 LINE",
"11 534 LINE"
);
},
{
closed = 1;
nodes = (
"413 158 LINE",
"396 155 OFFCURVE",
"372 154 OFFCURVE",
"357 154 CURVE SMOOTH",
"309 154 OFFCURVE",
"294 171 OFFCURVE",
"294 222 CURVE SMOOTH",
"294 675 LINE",
"118 675 LINE",
"89 534 LINE",
"89 167 LINE SMOOTH",
"89 47 OFFCURVE",
"147 -9 OFFCURVE",
"288 -9 CURVE SMOOTH",
"336 -9 OFFCURVE",
"390 -1 OFFCURVE",
"413 4 CURVE"
);
}
);
};
layerId = "84435905-EDCB-4949-A8A3-0E53308A2F50";
paths = (
{
closed = 1;
nodes = (
"11 380 LINE",
"413 380 LINE",
"413 534 LINE",
"11 534 LINE"
);
},
{
closed = 1;
nodes = (
"403 158 LINE",
"388 156 OFFCURVE",
"372 154 OFFCURVE",
"357 154 CURVE SMOOTH",
"309 154 OFFCURVE",
"294 171 OFFCURVE",
"294 222 CURVE SMOOTH",
"294 675 LINE",
"118 675 LINE",
"89 534 LINE",
"89 167 LINE SMOOTH",
"89 47 OFFCURVE",
"147 -9 OFFCURVE",
"288 -9 CURVE SMOOTH",
"336 -9 OFFCURVE",
"395 -1 OFFCURVE",
"418 4 CURVE"
);
}
);
width = 462;
}
);
unicode = 0074;
userData = {
RMXScaler = {
source = t;
};
};
},
{
color = 4;
glyphname = u;
lastChange = "2017-07-31 10:51:12 +0000";
layers = (
{
anchors = (
{
name = top;
position = "{313, 525}";
}
);
background = {
components = (
{
name = n;
transform = "{-1, 0, 0, -1, 636, 525}";
}
);
};
layerId = "C76CAC8E-7AD6-478C-8F7E-02FEF6F1EA84";
paths = (
{
closed = 1;
nodes = (
"413 525 LINE",
"413 237 LINE SMOOTH",
"413 157 OFFCURVE",
"367 110 OFFCURVE",
"301 110 CURVE SMOOTH",
"243 110 OFFCURVE",
"215 144 OFFCURVE",
"215 223 CURVE SMOOTH",
"215 525 LINE",
"75 525 LINE",
"75 175 LINE SMOOTH",
"75 54 OFFCURVE",
"132 -15 OFFCURVE",
"244 -15 CURVE SMOOTH",
"333 -15 OFFCURVE",
"379 31 OFFCURVE",
"416 101 CURVE",
"396 88 LINE",
"431 88 LINE",
"413 98 LINE",
"430 0 LINE",
"553 0 LINE",
"553 525 LINE"
);
}
);
width = 630;
},
{
anchors = (
{
name = top;
position = "{293, 514}";
}
);
background = {
paths = (
{
closed = 1;
nodes = (
"444 514 LINE",
"444 236 LINE SMOOTH",
"444 123 OFFCURVE",
"374 37 OFFCURVE",
"280 37 CURVE SMOOTH",
"201 37 OFFCURVE",
"155 82 OFFCURVE",
"155 198 CURVE SMOOTH",
"155 514 LINE",
"100 514 LINE",
"100 169 LINE SMOOTH",
"100 41 OFFCURVE",
"173 -15 OFFCURVE",
"274 -15 CURVE SMOOTH",
"370 -15 OFFCURVE",
"422 44 OFFCURVE",
"455 119 CURVE",
"420 94 LINE",
"459 94 LINE",
"443 114 LINE",
"457 0 LINE",
"499 0 LINE",
"499 514 LINE"
);
}
);
};
layerId = "0A1AFE58-107D-4787-BDA0-D82FB635C3A6";
paths = (
{
closed = 1;
nodes = (
"444 514 LINE",
"444 236 LINE SMOOTH",
"444 123 OFFCURVE",
"364 37 OFFCURVE",
"270 37 CURVE SMOOTH",
"191 37 OFFCURVE",
"145 82 OFFCURVE",
"145 198 CURVE SMOOTH",
"145 514 LINE",
"90 514 LINE",
"90 169 LINE SMOOTH",
"90 41 OFFCURVE",
"163 -15 OFFCURVE",
"264 -15 CURVE SMOOTH",
"360 -15 OFFCURVE",
"422 44 OFFCURVE",
"455 119 CURVE",
"420 94 LINE",
"459 94 LINE",
"443 114 LINE",
"457 0 LINE",
"499 0 LINE",
"499 514 LINE"
);
}
);
width = 594;
},
{
anchors = (
{
name = top;
position = "{331, 534}";
}
);
layerId = "84435905-EDCB-4949-A8A3-0E53308A2F50";
paths = (
{
closed = 1;
nodes = (
"402 534 LINE",
"402 254 LINE SMOOTH",
"402 199 OFFCURVE",
"365 166 OFFCURVE",
"320 166 CURVE SMOOTH",
"277 166 OFFCURVE",
"262 192 OFFCURVE",
"262 242 CURVE SMOOTH",
"262 534 LINE",
"57 534 LINE",
"57 187 LINE SMOOTH",
"57 64 OFFCURVE",
"103 -15 OFFCURVE",
"228 -15 CURVE SMOOTH",
"332 -15 OFFCURVE",
"377 46 OFFCURVE",
"413 137 CURVE",
"392 106 LINE",
"420 106 LINE",
"402 128 LINE",
"426 0 LINE",
"607 0 LINE",
"607 534 LINE"
);
}
);
width = 667;
}
);
leftMetricsKey = "=|n";
rightMetricsKey = "=|n";
unicode = 0075;
userData = {
RMXScaler = {
source = u;
};
};
},
{
color = 4;
glyphname = v;
lastChange = "2017-07-18 15:16:54 +0000";
layers = (
{
background = {
paths = (
{
closed = 0;
nodes = (
"376 0 LINE",
"564 525 LINE",
"414 525 LINE",
"273 79 LINE"
);
}
);
};
layerId = "C76CAC8E-7AD6-478C-8F7E-02FEF6F1EA84";
paths = (
{
closed = 1;
nodes = (
"273 79 LINE",
"331 120 LINE",
"234 120 LINE",
"293 79 LINE",
"155 525 LINE",
"5 525 LINE",
"190 0 LINE",
"376 0 LINE",
"561 525 LINE",
"411 525 LINE"
);
}
);
width = 566;
},
{
layerId = "0A1AFE58-107D-4787-BDA0-D82FB635C3A6";
paths = (
{
closed = 1;
nodes = (
"244 38 LINE",
"271 63 LINE",
"234 63 LINE",
"259 38 LINE",
"71 514 LINE",
"11 514 LINE",
"222 0 LINE",
"280 0 LINE",
"492 514 LINE",
"432 514 LINE"
);
}
);
width = 503;
},
{
layerId = "84435905-EDCB-4949-A8A3-0E53308A2F50";
paths = (
{
closed = 1;
nodes = (
"303 128 LINE",
"354 163 LINE",
"259 163 LINE",
"313 128 LINE",
"215 534 LINE",
"0 534 LINE",
"172 0 LINE",
"445 0 LINE",
"616 534 LINE",
"402 534 LINE"
);
}
);
width = 616;
}
);
unicode = 0076;
userData = {
RMXScaler = {
source = v;
};
};
},
{
color = 4;
glyphname = w;
lastChange = "2017-07-18 15:16:54 +0000";
layers = (
{
background = {
paths = (
{
closed = 1;
nodes = (
"329 0 LINE",
"438 371 LINE",
"410 371 LINE",
"519 0 LINE",
"679 0 LINE",
"838 525 LINE",
"687 525 LINE",
"543 12 LINE",
"629 12 LINE",
"490 525 LINE",
"358 525 LINE",
"246 112 LINE",
"277 112 LINE",
"161 525 LINE",
"10 525 LINE",
"169 0 LINE"
);
}
);
};
layerId = "C76CAC8E-7AD6-478C-8F7E-02FEF6F1EA84";
paths = (
{
closed = 1;
nodes = (
"620 113 LINE",
"657 130 LINE",
"562 130 LINE",
"619 113 LINE",
"526 525 LINE",
"344 525 LINE",
"254 113 LINE",
"311 130 LINE",
"216 130 LINE",
"253 113 LINE",
"155 525 LINE",
"5 525 LINE",
"157 0 LINE",
"340 0 LINE",
"441 432 LINE",
"383 395 LINE",
"477 395 LINE",
"429 431 LINE",
"530 0 LINE",
"713 0 LINE",
"865 525 LINE",
"715 525 LINE"
);
}
);
width = 870;
},
{
layerId = "0A1AFE58-107D-4787-BDA0-D82FB635C3A6";
paths = (
{
closed = 1;
nodes = (
"563 44 LINE",
"573 60 LINE",
"557 60 LINE",
"569 44 LINE",
"427 514 LINE",
"357 514 LINE",
"211 27 LINE",
"238 60 LINE",
"197 60 LINE",
"229 26 LINE",
"71 514 LINE",
"11 514 LINE",
"184 0 LINE",
"253 0 LINE",
"398 484 LINE",
"377 457 LINE",
"407 457 LINE",
"386 484 LINE",
"531 0 LINE",
"601 0 LINE",
"773 514 LINE",
"713 514 LINE"
);
}
);
width = 784;
},
{
layerId = "84435905-EDCB-4949-A8A3-0E53308A2F50";
paths = (
{
closed = 1;
nodes = (
"610 113 LINE",
"660 165 LINE",
"567 165 LINE",
"622 113 LINE",
"544 534 LINE",
"348 534 LINE",
"272 113 LINE",
"328 165 LINE",
"236 165 LINE",
"285 113 LINE",
"219 534 LINE",
"0 534 LINE",
"129 0 LINE",
"383 0 LINE",
"461 441 LINE",
"395 343 LINE",
"487 343 LINE",
"431 440 LINE",
"508 0 LINE",
"762 0 LINE",
"893 534 LINE",
"673 534 LINE"
);
}
);
width = 893;
}
);
leftMetricsKey = v;
rightMetricsKey = v;
unicode = 0077;
userData = {
RMXScaler = {
source = w;
};
};
},
{
color = 4;
glyphname = x;
lastChange = "2017-07-18 15:16:54 +0000";
layers = (
{
background = {
paths = (
{
closed = 1;
nodes = (
"170 0 LINE",
"291 224 LINE",
"364 224 LINE",
"538 525 LINE",
"383 525 LINE",
"267 306 LINE",
"192 306 LINE",
"15 0 LINE"
);
},
{
closed = 1;
nodes = (
"538 0 LINE",
"364 306 LINE",
"284 306 LINE",
"170 525 LINE",
"15 525 LINE",
"184 224 LINE",
"262 224 LINE",
"383 0 LINE"
);
}
);
};
layerId = "C76CAC8E-7AD6-478C-8F7E-02FEF6F1EA84";
paths = (
{
closed = 1;
nodes = (
"170 0 LINE",
"291 224 LINE",
"364 224 LINE",
"538 525 LINE",
"383 525 LINE",
"267 306 LINE",
"192 306 LINE",
"15 0 LINE"
);
},
{
closed = 1;
nodes = (
"538 0 LINE",
"352 327 LINE",
"273 327 LINE",
"170 525 LINE",
"15 525 LINE",
"202 192 LINE",
"279 192 LINE",
"383 0 LINE"
);
}
);
width = 553;
},
{
layerId = "0A1AFE58-107D-4787-BDA0-D82FB635C3A6";
paths = (
{
closed = 1;
nodes = (
"103 0 LINE",
"254 221 LINE",
"273 221 LINE",
"477 514 LINE",
"411 514 LINE",
"245 265 LINE",
"226 265 LINE",
"38 0 LINE"
);
},
{
closed = 1;
nodes = (
"477 0 LINE",
"276 285 LINE",
"257 285 LINE",
"103 514 LINE",
"38 514 LINE",
"233 229 LINE",
"252 229 LINE",
"411 0 LINE"
);
}
);
width = 515;
},
{
layerId = "84435905-EDCB-4949-A8A3-0E53308A2F50";
paths = (
{
closed = 1;
nodes = (
"222 0 LINE",
"346 247 LINE",
"446 247 LINE",
"613 534 LINE",
"397 534 LINE",
"282 304 LINE",
"183 304 LINE",
"6 0 LINE"
);
},
{
closed = 1;
nodes = (
"614 0 LINE",
"401 364 LINE",
"308 364 LINE",
"224 534 LINE",
"8 534 LINE",
"220 171 LINE",
"314 171 LINE",
"399 0 LINE"
);
}
);
width = 621;
}
);
unicode = 0078;
userData = {
RMXScaler = {
source = x;
};
};
},
{
color = 4;
glyphname = y;
lastChange = "2017-07-31 10:51:15 +0000";
layers = (
{
anchors = (
{
name = top;
position = "{287, 525}";
}
);
background = {
paths = (
{
closed = 1;
nodes = (
"285 81 LINE",
"343 124 LINE",
"246 124 LINE",
"304 81 LINE",
"157 525 LINE",
"7 525 LINE",
"202 0 LINE",
"307 0 LINE",
"278 43 LINE",
"242 -59 OFFCURVE",
"211 -95 OFFCURVE",
"139 -95 CURVE SMOOTH",
"115 -95 OFFCURVE",
"81 -92 OFFCURVE",
"52 -87 CURVE",
"52 -199 LINE",
"85 -206 OFFCURVE",
"109 -210 OFFCURVE",
"152 -210 CURVE SMOOTH",
"294 -210 OFFCURVE",
"345 -124 OFFCURVE",
"387 0 CURVE SMOOTH",
"563 525 LINE",
"413 525 LINE"
);
}
);
};
guideLines = (
{
angle = 90;
position = "{285, 393}";
}
);
layerId = "C76CAC8E-7AD6-478C-8F7E-02FEF6F1EA84";
paths = (
{
closed = 1;
nodes = (
"285 81 LINE",
"343 124 LINE",
"246 124 LINE",
"304 81 LINE",
"157 525 LINE",
"7 525 LINE",
"202 0 LINE",
"307 0 LINE",
"278 43 LINE",
"242 -59 OFFCURVE",
"211 -95 OFFCURVE",
"139 -95 CURVE SMOOTH",
"115 -95 OFFCURVE",
"91 -93 OFFCURVE",
"62 -88 CURVE",
"52 -199 LINE",
"85 -206 OFFCURVE",
"109 -210 OFFCURVE",
"152 -210 CURVE SMOOTH",
"294 -210 OFFCURVE",
"345 -124 OFFCURVE",
"387 0 CURVE SMOOTH",
"563 525 LINE",
"413 525 LINE"
);
}
);
width = 568;
},
{
anchors = (
{
name = top;
position = "{273, 514}";
}
);
background = {
paths = (
{
closed = 1;
nodes = (
"273 38 LINE",
"292 53 LINE",
"255 53 LINE",
"280 38 LINE",
"92 514 LINE",
"32 514 LINE",
"240 0 LINE",
"268 0 LINE",
"270 30 LINE",
"217 -117 OFFCURVE",
"170 -161 OFFCURVE",
"106 -161 CURVE SMOOTH",
"92 -161 OFFCURVE",
"65 -159 OFFCURVE",
"44 -155 CURVE",
"44 -204 LINE",
"55 -206 OFFCURVE",
"86 -210 OFFCURVE",
"105 -210 CURVE SMOOTH",
"210 -210 OFFCURVE",
"256 -142 OFFCURVE",
"312 0 CURVE SMOOTH",
"513 514 LINE",
"453 514 LINE"
);
}
);
};
layerId = "0A1AFE58-107D-4787-BDA0-D82FB635C3A6";
paths = (
{
closed = 1;
nodes = (
"273 38 LINE",
"292 53 LINE",
"255 53 LINE",
"280 38 LINE",
"92 514 LINE",
"32 514 LINE",
"240 0 LINE",
"268 0 LINE",
"270 30 LINE",
"217 -117 OFFCURVE",
"170 -161 OFFCURVE",
"106 -161 CURVE SMOOTH",
"92 -161 OFFCURVE",
"70 -160 OFFCURVE",
"49 -156 CURVE",
"41 -203 LINE",
"60 -207 OFFCURVE",
"83 -210 OFFCURVE",
"105 -210 CURVE SMOOTH",
"210 -210 OFFCURVE",
"256 -142 OFFCURVE",
"312 0 CURVE SMOOTH",
"513 514 LINE",
"453 514 LINE"
);
}
);
width = 524;
},
{
anchors = (
{
name = top;
position = "{303, 534}";
}
);
background = {
paths = (
{
closed = 1;
nodes = (
"310 129 LINE",
"360 164 LINE",
"266 164 LINE",
"320 129 LINE",
"215 534 LINE",
"0 534 LINE",
"178 0 LINE",
"311 0 LINE",
"284 18 LINE",
"260 -43 OFFCURVE",
"229 -56 OFFCURVE",
"159 -56 CURVE SMOOTH",
"135 -56 OFFCURVE",
"102 -53 OFFCURVE",
"76 -50 CURVE",
"76 -196 LINE",
"111 -204 OFFCURVE",
"153 -210 OFFCURVE",
"198 -210 CURVE SMOOTH",
"344 -210 OFFCURVE",
"410 -140 OFFCURVE",
"452 0 CURVE SMOOTH",
"611 534 LINE",
"396 534 LINE"
);
}
);
};
layerId = "84435905-EDCB-4949-A8A3-0E53308A2F50";
paths = (
{
closed = 1;
nodes = (
"310 129 LINE",
"360 164 LINE",
"266 164 LINE",
"320 129 LINE",
"215 534 LINE",
"0 534 LINE",
"178 0 LINE",
"311 0 LINE",
"284 18 LINE",
"260 -43 OFFCURVE",
"229 -56 OFFCURVE",
"159 -56 CURVE SMOOTH",
"135 -56 OFFCURVE",
"112 -53 OFFCURVE",
"86 -50 CURVE",
"66 -194 LINE",
"101 -202 OFFCURVE",
"153 -210 OFFCURVE",
"198 -210 CURVE SMOOTH",
"344 -210 OFFCURVE",
"410 -140 OFFCURVE",
"452 0 CURVE SMOOTH",
"611 534 LINE",
"396 534 LINE"
);
}
);
width = 611;
}
);
rightMetricsKey = "=v";
unicode = 0079;
userData = {
RMXScaler = {
source = y;
};
};
},
{
color = 4;
glyphname = z;
lastChange = "2017-07-31 10:51:18 +0000";
layers = (
{
anchors = (
{
name = top;
position = "{260, 525}";
}
);
background = {
paths = (
{
closed = 1;
nodes = (
"476 415 LINE",
"476 525 LINE",
"60 525 LINE",
"60 410 LINE",
"304 410 LINE",
"50 110 LINE",
"50 0 LINE",
"476 0 LINE",
"476 115 LINE",
"222 115 LINE"
);
}
);
};
layerId = "C76CAC8E-7AD6-478C-8F7E-02FEF6F1EA84";
paths = (
{
closed = 1;
nodes = (
"226 120 LINE",
"476 415 LINE",
"476 525 LINE",
"60 525 LINE",
"60 410 LINE",
"309 410 LINE",
"298 424 LINE",
"298 403 LINE",
"50 110 LINE",
"50 0 LINE",
"476 0 LINE",
"476 115 LINE",
"207 115 LINE",
"226 101 LINE"
);
}
);
width = 521;
},
{
anchors = (
{
name = top;
position = "{233, 514}";
}
);
background = {
paths = (
{
closed = 1;
nodes = (
"115 53 LINE",
"415 469 LINE",
"415 514 LINE",
"63 514 LINE",
"63 464 LINE",
"364 464 LINE",
"352 481 LINE",
"352 460 LINE",
"53 45 LINE",
"53 0 LINE",
"409 0 LINE",
"409 50 LINE",
"87 50 LINE",
"115 34 LINE"
);
}
);
};
layerId = "0A1AFE58-107D-4787-BDA0-D82FB635C3A6";
paths = (
{
closed = 1;
nodes = (
"115 53 LINE",
"420 469 LINE",
"420 514 LINE",
"63 514 LINE",
"63 464 LINE",
"369 464 LINE",
"357 481 LINE",
"357 460 LINE",
"53 45 LINE",
"53 0 LINE",
"414 0 LINE",
"414 50 LINE",
"87 50 LINE",
"115 34 LINE"
);
}
);
width = 473;
},
{
anchors = (
{
name = top;
position = "{291, 534}";
}
);
layerId = "84435905-EDCB-4949-A8A3-0E53308A2F50";
paths = (
{
closed = 1;
nodes = (
"313 161 LINE",
"528 385 LINE",
"528 534 LINE",
"59 534 LINE",
"59 380 LINE",
"276 380 LINE",
"265 391 LINE",
"265 374 LINE",
"49 149 LINE",
"49 0 LINE",
"528 0 LINE",
"528 154 LINE",
"301 154 LINE",
"313 142 LINE"
);
}
);
width = 576;
}
);
unicode = 007A;
userData = {
RMXScaler = {
source = z;
};
};
},
{
color = 4;
glyphname = y.001;
lastChange = "2017-07-18 15:16:54 +0000";
layers = (
{
background = {
paths = (
{
closed = 1;
nodes = (
"277 79 LINE",
"335 120 LINE",
"238 120 LINE",
"297 79 LINE",
"155 525 LINE",
"5 525 LINE",
"194 0 LINE",
"380 0 LINE",
"569 525 LINE",
"419 525 LINE"
);
}
);
};
guideLines = (
{
angle = 90;
position = "{283, 393}";
}
);
layerId = "C76CAC8E-7AD6-478C-8F7E-02FEF6F1EA84";
paths = (
{
closed = 1;
nodes = (
"290 120 LINE",
"284 120 LINE",
"155 525 LINE",
"5 525 LINE",
"194 0 LINE",
"295 0 LINE",
"266 43 LINE",
"169 -195 LINE",
"309 -195 LINE",
"569 525 LINE",
"419 525 LINE"
);
}
);
width = 574;
},
{
background = {
paths = (
{
closed = 1;
nodes = (
"252 38 LINE",
"271 53 LINE",
"234 53 LINE",
"259 38 LINE",
"71 514 LINE",
"11 514 LINE",
"219 0 LINE",
"247 0 LINE",
"249 30 LINE",
"196 -117 OFFCURVE",
"149 -161 OFFCURVE",
"85 -161 CURVE SMOOTH",
"71 -161 OFFCURVE",
"44 -159 OFFCURVE",
"23 -155 CURVE",
"23 -204 LINE",
"34 -206 OFFCURVE",
"65 -210 OFFCURVE",
"84 -210 CURVE SMOOTH",
"189 -210 OFFCURVE",
"235 -142 OFFCURVE",
"291 0 CURVE SMOOTH",
"492 514 LINE",
"432 514 LINE"
);
}
);
};
layerId = "0A1AFE58-107D-4787-BDA0-D82FB635C3A6";
paths = (
{
closed = 1;
nodes = (
"257 53 LINE",
"254 53 LINE",
"71 514 LINE",
"11 514 LINE",
"219 0 LINE",
"250 0 LINE",
"245 17 LINE",
"154 -195 LINE",
"214 -195 LINE",
"492 514 LINE",
"432 514 LINE"
);
}
);
width = 503;
},
{
layerId = "84435905-EDCB-4949-A8A3-0E53308A2F50";
paths = (
{
closed = 1;
nodes = (
"313 163 LINE",
"305 163 LINE",
"215 534 LINE",
"0 534 LINE",
"172 0 LINE",
"309 0 LINE",
"270 27 LINE",
"185 -195 LINE",
"384 -195 LINE",
"618 534 LINE",
"403 534 LINE"
);
}
);
width = 618;
}
);
leftMetricsKey = "=v";
rightMetricsKey = "=v";
},
{
color = 11;
glyphname = zero;
lastChange = "2017-07-25 14:10:48 +0000";
layers = (
{
background = {
paths = (
{
closed = 1;
nodes = (
"511 -15 OFFCURVE",
"607 116 OFFCURVE",
"607 354 CURVE SMOOTH",
"607 595 OFFCURVE",
"511 725 OFFCURVE",
"341 725 CURVE SMOOTH",
"170 725 OFFCURVE",
"75 595 OFFCURVE",
"75 354 CURVE SMOOTH",
"75 116 OFFCURVE",
"170 -15 OFFCURVE",
"341 -15 CURVE SMOOTH"
);
},
{
closed = 1;
nodes = (
"194 36 OFFCURVE",
"137 154 OFFCURVE",
"137 354 CURVE SMOOTH",
"137 556 OFFCURVE",
"194 674 OFFCURVE",
"341 674 CURVE SMOOTH",
"487 674 OFFCURVE",
"545 556 OFFCURVE",
"545 354 CURVE SMOOTH",
"545 154 OFFCURVE",
"487 36 OFFCURVE",
"341 36 CURVE SMOOTH"
);
}
);
};
layerId = "0A1AFE58-107D-4787-BDA0-D82FB635C3A6";
paths = (
{
closed = 1;
nodes = (
"511 -15 OFFCURVE",
"602 116 OFFCURVE",
"602 354 CURVE SMOOTH",
"602 595 OFFCURVE",
"511 725 OFFCURVE",
"341 725 CURVE SMOOTH",
"170 725 OFFCURVE",
"80 595 OFFCURVE",
"80 354 CURVE SMOOTH",
"80 116 OFFCURVE",
"170 -15 OFFCURVE",
"341 -15 CURVE SMOOTH"
);
},
{
closed = 1;
nodes = (
"194 36 OFFCURVE",
"142 154 OFFCURVE",
"142 354 CURVE SMOOTH",
"142 556 OFFCURVE",
"194 674 OFFCURVE",
"341 674 CURVE SMOOTH",
"487 674 OFFCURVE",
"540 556 OFFCURVE",
"540 354 CURVE SMOOTH",
"540 154 OFFCURVE",
"487 36 OFFCURVE",
"341 36 CURVE SMOOTH"
);
}
);
width = 682;
},
{
background = {
paths = (
{
closed = 1;
nodes = (
"521 -15 OFFCURVE",
"632 89 OFFCURVE",
"632 335 CURVE SMOOTH",
"632 581 OFFCURVE",
"521 685 OFFCURVE",
"345 685 CURVE SMOOTH",
"169 685 OFFCURVE",
"58 581 OFFCURVE",
"58 335 CURVE SMOOTH",
"58 89 OFFCURVE",
"169 -15 OFFCURVE",
"345 -15 CURVE SMOOTH"
);
},
{
closed = 1;
nodes = (
"260 110 OFFCURVE",
"208 164 OFFCURVE",
"208 335 CURVE SMOOTH",
"208 506 OFFCURVE",
"260 560 OFFCURVE",
"345 560 CURVE SMOOTH",
"430 560 OFFCURVE",
"482 506 OFFCURVE",
"482 335 CURVE SMOOTH",
"482 164 OFFCURVE",
"430 110 OFFCURVE",
"345 110 CURVE SMOOTH"
);
}
);
};
layerId = "C76CAC8E-7AD6-478C-8F7E-02FEF6F1EA84";
paths = (
{
closed = 1;
nodes = (
"521 -15 OFFCURVE",
"630 89 OFFCURVE",
"630 355 CURVE SMOOTH",
"630 621 OFFCURVE",
"521 725 OFFCURVE",
"345 725 CURVE SMOOTH",
"169 725 OFFCURVE",
"60 621 OFFCURVE",
"60 355 CURVE SMOOTH",
"60 89 OFFCURVE",
"169 -15 OFFCURVE",
"345 -15 CURVE SMOOTH"
);
},
{
closed = 1;
nodes = (
"255 110 OFFCURVE",
"208 164 OFFCURVE",
"208 355 CURVE SMOOTH",
"208 546 OFFCURVE",
"255 600 OFFCURVE",
"345 600 CURVE SMOOTH",
"435 600 OFFCURVE",
"482 546 OFFCURVE",
"482 355 CURVE SMOOTH",
"482 164 OFFCURVE",
"435 110 OFFCURVE",
"345 110 CURVE SMOOTH"
);
}
);
width = 690;
},
{
background = {
paths = (
{
closed = 1;
nodes = (
"574 -15 OFFCURVE",
"677 117 OFFCURVE",
"677 355 CURVE SMOOTH",
"677 593 OFFCURVE",
"574 725 OFFCURVE",
"362 725 CURVE SMOOTH",
"152 725 OFFCURVE",
"50 593 OFFCURVE",
"50 355 CURVE SMOOTH",
"50 117 OFFCURVE",
"152 -15 OFFCURVE",
"362 -15 CURVE SMOOTH"
);
},
{
closed = 1;
nodes = (
"288 158 OFFCURVE",
"270 221 OFFCURVE",
"270 355 CURVE SMOOTH",
"270 489 OFFCURVE",
"288 552 OFFCURVE",
"362 552 CURVE SMOOTH",
"440 552 OFFCURVE",
"457 489 OFFCURVE",
"457 355 CURVE SMOOTH",
"457 221 OFFCURVE",
"440 158 OFFCURVE",
"362 158 CURVE SMOOTH"
);
}
);
};
layerId = "84435905-EDCB-4949-A8A3-0E53308A2F50";
paths = (
{
closed = 1;
nodes = (
"574 -15 OFFCURVE",
"677 107 OFFCURVE",
"677 355 CURVE SMOOTH",
"677 603 OFFCURVE",
"574 725 OFFCURVE",
"362 725 CURVE SMOOTH",
"152 725 OFFCURVE",
"50 603 OFFCURVE",
"50 355 CURVE SMOOTH",
"50 107 OFFCURVE",
"152 -15 OFFCURVE",
"362 -15 CURVE SMOOTH"
);
},
{
closed = 1;
nodes = (
"288 158 OFFCURVE",
"270 221 OFFCURVE",
"270 355 CURVE SMOOTH",
"270 489 OFFCURVE",
"288 552 OFFCURVE",
"362 552 CURVE SMOOTH",
"440 552 OFFCURVE",
"457 489 OFFCURVE",
"457 355 CURVE SMOOTH",
"457 221 OFFCURVE",
"440 158 OFFCURVE",
"362 158 CURVE SMOOTH"
);
}
);
width = 727;
}
);
unicode = 0030;
},
{
color = 11;
glyphname = one;
lastChange = "2017-07-25 14:12:30 +0000";
layers = (
{
background = {
paths = (
{
closed = 1;
nodes = (
"258 0 LINE",
"258 710 LINE",
"218 710 LINE",
"30 638 LINE",
"30 585 LINE",
"198 643 LINE",
"198 0 LINE"
);
},
{
closed = 1;
nodes = (
"390 0 LINE",
"390 53 LINE",
"10 53 LINE",
"10 0 LINE"
);
}
);
};
layerId = "0A1AFE58-107D-4787-BDA0-D82FB635C3A6";
paths = (
{
closed = 1;
nodes = (
"258 0 LINE",
"258 710 LINE",
"218 710 LINE",
"30 638 LINE",
"30 585 LINE",
"198 643 LINE",
"198 0 LINE"
);
}
);
width = 388;
},
{
background = {
paths = (
{
closed = 1;
nodes = (
"344 0 LINE",
"344 710 LINE",
"208 710 LINE",
"30 638 LINE",
"30 508 LINE",
"198 565 LINE",
"198 0 LINE"
);
},
{
closed = 1;
nodes = (
"476 0 LINE",
"476 125 LINE",
"10 125 LINE",
"10 0 LINE"
);
}
);
};
layerId = "C76CAC8E-7AD6-478C-8F7E-02FEF6F1EA84";
paths = (
{
closed = 1;
nodes = (
"344 0 LINE",
"344 710 LINE",
"208 710 LINE",
"30 638 LINE",
"30 508 LINE",
"198 565 LINE",
"198 0 LINE"
);
}
);
width = 454;
},
{
background = {
paths = (
{
closed = 1;
nodes = (
"344 0 LINE",
"344 710 LINE",
"208 710 LINE",
"30 638 LINE",
"30 508 LINE",
"198 565 LINE",
"198 0 LINE"
);
}
);
};
layerId = "84435905-EDCB-4949-A8A3-0E53308A2F50";
paths = (
{
closed = 1;
nodes = (
"418 0 LINE",
"418 710 LINE",
"208 710 LINE",
"30 638 LINE",
"30 468 LINE",
"198 525 LINE",
"198 0 LINE"
);
}
);
width = 518;
}
);
unicode = 0031;
},
{
color = 11;
glyphname = two;
lastChange = "2017-07-25 14:13:21 +0000";
layers = (
{
background = {
paths = (
{
closed = 1;
nodes = (
"172 490 LINE",
"182 603 OFFCURVE",
"233 674 OFFCURVE",
"340 674 CURVE SMOOTH",
"437 674 OFFCURVE",
"490 617 OFFCURVE",
"490 530 CURVE SMOOTH",
"490 424 OFFCURVE",
"417 361 OFFCURVE",
"300 246 CURVE SMOOTH",
"99 49 LINE",
"99 0 LINE",
"547 0 LINE",
"547 53 LINE",
"181 53 LINE",
"181 56 LINE",
"367 240 LINE SMOOTH",
"450 322 OFFCURVE",
"547 399 OFFCURVE",
"547 535 CURVE SMOOTH",
"547 636 OFFCURVE",
"480 725 OFFCURVE",
"340 725 CURVE SMOOTH",
"199 725 OFFCURVE",
"129 635 OFFCURVE",
"114 490 CURVE"
);
}
);
};
layerId = "0A1AFE58-107D-4787-BDA0-D82FB635C3A6";
paths = (
{
closed = 1;
nodes = (
"153 490 LINE",
"163 603 OFFCURVE",
"214 674 OFFCURVE",
"334 674 CURVE SMOOTH",
"444 674 OFFCURVE",
"496 617 OFFCURVE",
"496 530 CURVE SMOOTH",
"496 424 OFFCURVE",
"423 357 OFFCURVE",
"294 241 CURVE SMOOTH",
"80 49 LINE",
"80 0 LINE",
"554 0 LINE",
"554 53 LINE",
"162 53 LINE",
"162 56 LINE",
"361 231 LINE SMOOTH",
"456 315 OFFCURVE",
"554 399 OFFCURVE",
"554 535 CURVE SMOOTH",
"554 636 OFFCURVE",
"487 725 OFFCURVE",
"334 725 CURVE SMOOTH",
"180 725 OFFCURVE",
"110 635 OFFCURVE",
"95 490 CURVE"
);
}
);
width = 629;
},
{
background = {
paths = (
{
closed = 1;
nodes = (
"236 475 LINE",
"246 541 OFFCURVE",
"270 603 OFFCURVE",
"354 603 CURVE SMOOTH",
"425 603 OFFCURVE",
"456 568 OFFCURVE",
"456 506 CURVE SMOOTH",
"456 414 OFFCURVE",
"351 337 OFFCURVE",
"238 244 CURVE SMOOTH",
"88 120 LINE",
"88 0 LINE",
"598 0 LINE",
"598 125 LINE",
"277 125 LINE",
"277 131 LINE",
"368 198 LINE SMOOTH",
"490 288 OFFCURVE",
"603 363 OFFCURVE",
"603 508 CURVE SMOOTH",
"603 645 OFFCURVE",
"517 725 OFFCURVE",
"352 725 CURVE SMOOTH",
"172 725 OFFCURVE",
"103 611 OFFCURVE",
"93 475 CURVE"
);
}
);
};
layerId = "C76CAC8E-7AD6-478C-8F7E-02FEF6F1EA84";
paths = (
{
closed = 1;
nodes = (
"228 475 LINE",
"238 541 OFFCURVE",
"262 603 OFFCURVE",
"354 603 CURVE SMOOTH",
"433 603 OFFCURVE",
"464 568 OFFCURVE",
"464 506 CURVE SMOOTH",
"464 414 OFFCURVE",
"353 335 OFFCURVE",
"238 244 CURVE SMOOTH",
"80 120 LINE",
"80 0 LINE",
"606 0 LINE",
"606 125 LINE",
"269 125 LINE",
"269 131 LINE",
"368 198 LINE SMOOTH",
"500 287 OFFCURVE",
"611 363 OFFCURVE",
"611 508 CURVE SMOOTH",
"611 645 OFFCURVE",
"525 725 OFFCURVE",
"352 725 CURVE SMOOTH",
"164 725 OFFCURVE",
"95 611 OFFCURVE",
"85 475 CURVE"
);
}
);
width = 681;
},
{
background = {
paths = (
{
closed = 1;
nodes = (
"248 460 LINE",
"258 516 OFFCURVE",
"282 565 OFFCURVE",
"354 565 CURVE SMOOTH",
"408 565 OFFCURVE",
"439 543 OFFCURVE",
"439 491 CURVE SMOOTH",
"439 419 OFFCURVE",
"358 378 OFFCURVE",
"238 294 CURVE SMOOTH",
"60 170 LINE",
"60 0 LINE",
"631 0 LINE",
"631 175 LINE",
"339 175 LINE",
"339 181 LINE",
"413 228 LINE SMOOTH",
"569 327 OFFCURVE",
"636 363 OFFCURVE",
"636 508 CURVE SMOOTH",
"636 645 OFFCURVE",
"550 725 OFFCURVE",
"352 725 CURVE SMOOTH",
"144 725 OFFCURVE",
"75 596 OFFCURVE",
"65 460 CURVE"
);
}
);
};
layerId = "84435905-EDCB-4949-A8A3-0E53308A2F50";
paths = (
{
closed = 1;
nodes = (
"258 455 LINE",
"268 521 OFFCURVE",
"292 560 OFFCURVE",
"354 560 CURVE SMOOTH",
"405 560 OFFCURVE",
"431 539 OFFCURVE",
"431 494 CURVE SMOOTH",
"431 427 OFFCURVE",
"348 369 OFFCURVE",
"228 284 CURVE SMOOTH",
"60 165 LINE",
"60 0 LINE",
"631 0 LINE",
"631 175 LINE",
"339 175 LINE",
"339 181 LINE",
"413 223 LINE SMOOTH",
"559 306 OFFCURVE",
"636 363 OFFCURVE",
"636 498 CURVE SMOOTH",
"636 635 OFFCURVE",
"550 725 OFFCURVE",
"352 725 CURVE SMOOTH",
"144 725 OFFCURVE",
"75 611 OFFCURVE",
"65 455 CURVE"
);
}
);
width = 691;
}
);
unicode = 0032;
},
{
color = 11;
glyphname = three;
lastChange = "2017-07-25 14:13:10 +0000";
layers = (
{
background = {
paths = (
{
closed = 1;
nodes = (
"196 36 OFFCURVE",
"120 91 OFFCURVE",
"120 191 CURVE SMOOTH",
"120 283 OFFCURVE",
"196 346 OFFCURVE",
"331 346 CURVE SMOOTH",
"466 346 OFFCURVE",
"542 283 OFFCURVE",
"542 191 CURVE SMOOTH",
"542 91 OFFCURVE",
"466 36 OFFCURVE",
"331 36 CURVE SMOOTH"
);
},
{
closed = 1;
nodes = (
"211 387 OFFCURVE",
"147 453 OFFCURVE",
"147 533 CURVE SMOOTH",
"147 633 OFFCURVE",
"211 674 OFFCURVE",
"331 674 CURVE SMOOTH",
"451 674 OFFCURVE",
"516 633 OFFCURVE",
"516 533 CURVE SMOOTH",
"516 453 OFFCURVE",
"450 387 OFFCURVE",
"331 387 CURVE SMOOTH"
);
},
{
closed = 1;
nodes = (
"491 -15 OFFCURVE",
"597 58 OFFCURVE",
"597 188 CURVE SMOOTH",
"597 296 OFFCURVE",
"513 354 OFFCURVE",
"454 368 CURVE",
"454 372 LINE",
"498 386 OFFCURVE",
"571 433 OFFCURVE",
"571 538 CURVE SMOOTH",
"571 658 OFFCURVE",
"476 725 OFFCURVE",
"331 725 CURVE SMOOTH",
"186 725 OFFCURVE",
"92 658 OFFCURVE",
"92 538 CURVE SMOOTH",
"92 435 OFFCURVE",
"162 387 OFFCURVE",
"208 372 CURVE",
"208 368 LINE",
"150 354 OFFCURVE",
"65 299 OFFCURVE",
"65 188 CURVE SMOOTH",
"65 58 OFFCURVE",
"171 -15 OFFCURVE",
"331 -15 CURVE SMOOTH"
);
}
);
};
layerId = "0A1AFE58-107D-4787-BDA0-D82FB635C3A6";
paths = (
{
closed = 1;
nodes = (
"267 338 LINE",
"318 338 LINE SMOOTH",
"433 338 OFFCURVE",
"527 304 OFFCURVE",
"527 189 CURVE SMOOTH",
"527 94 OFFCURVE",
"458 35 OFFCURVE",
"338 36 CURVE SMOOTH",
"213 37 OFFCURVE",
"162 88 OFFCURVE",
"145 170 CURVE",
"85 170 LINE",
"95 63 OFFCURVE",
"174 -15 OFFCURVE",
"338 -15 CURVE SMOOTH",
"488 -15 OFFCURVE",
"584 60 OFFCURVE",
"584 190 CURVE SMOOTH",
"584 333 OFFCURVE",
"462 357 OFFCURVE",
"426 363 CURVE",
"426 366 LINE",
"463 374 OFFCURVE",
"564 420 OFFCURVE",
"564 543 CURVE SMOOTH",
"564 664 OFFCURVE",
"478 725 OFFCURVE",
"338 725 CURVE SMOOTH",
"191 725 OFFCURVE",
"122 639 OFFCURVE",
"105 535 CURVE",
"165 535 LINE",
"180 618 OFFCURVE",
"231 674 OFFCURVE",
"338 674 CURVE SMOOTH",
"448 674 OFFCURVE",
"508 630 OFFCURVE",
"508 540 CURVE SMOOTH",
"508 452 OFFCURVE",
"433 387 OFFCURVE",
"318 387 CURVE SMOOTH",
"267 387 LINE"
);
}
);
width = 664;
},
{
background = {
paths = (
{
closed = 1;
nodes = (
"270 310 LINE",
"320 310 LINE SMOOTH",
"425 310 OFFCURVE",
"481 282 OFFCURVE",
"481 206 CURVE SMOOTH",
"481 138 OFFCURVE",
"433 101 OFFCURVE",
"350 102 CURVE SMOOTH",
"274 103 OFFCURVE",
"235 127 OFFCURVE",
"222 195 CURVE",
"80 195 LINE",
"82 62 OFFCURVE",
"178 -15 OFFCURVE",
"350 -15 CURVE SMOOTH",
"524 -15 OFFCURVE",
"627 55 OFFCURVE",
"627 190 CURVE SMOOTH",
"627 300 OFFCURVE",
"548 343 OFFCURVE",
"468 358 CURVE",
"468 366 LINE",
"528 374 OFFCURVE",
"608 434 OFFCURVE",
"607 534 CURVE SMOOTH",
"606 650 OFFCURVE",
"515 725 OFFCURVE",
"357 725 CURVE SMOOTH",
"181 725 OFFCURVE",
"105 641 OFFCURVE",
"95 515 CURVE",
"237 515 LINE",
"247 578 OFFCURVE",
"284 608 OFFCURVE",
"356 608 CURVE SMOOTH",
"426 608 OFFCURVE",
"465 580 OFFCURVE",
"465 513 CURVE SMOOTH",
"465 442 OFFCURVE",
"410 406 OFFCURVE",
"310 406 CURVE SMOOTH",
"270 406 LINE"
);
}
);
};
layerId = "C76CAC8E-7AD6-478C-8F7E-02FEF6F1EA84";
paths = (
{
closed = 1;
nodes = (
"270 310 LINE",
"320 310 LINE SMOOTH",
"430 310 OFFCURVE",
"486 282 OFFCURVE",
"486 206 CURVE SMOOTH",
"486 138 OFFCURVE",
"438 101 OFFCURVE",
"350 102 CURVE SMOOTH",
"269 103 OFFCURVE",
"225 127 OFFCURVE",
"212 195 CURVE",
"70 195 LINE",
"72 62 OFFCURVE",
"173 -15 OFFCURVE",
"350 -15 CURVE SMOOTH",
"529 -15 OFFCURVE",
"632 55 OFFCURVE",
"632 190 CURVE SMOOTH",
"632 310 OFFCURVE",
"543 348 OFFCURVE",
"473 358 CURVE",
"473 366 LINE",
"533 374 OFFCURVE",
"613 434 OFFCURVE",
"612 534 CURVE SMOOTH",
"611 650 OFFCURVE",
"517 725 OFFCURVE",
"354 725 CURVE SMOOTH",
"173 725 OFFCURVE",
"95 641 OFFCURVE",
"85 515 CURVE",
"227 515 LINE",
"237 578 OFFCURVE",
"276 608 OFFCURVE",
"353 608 CURVE SMOOTH",
"428 608 OFFCURVE",
"470 580 OFFCURVE",
"470 513 CURVE SMOOTH",
"470 442 OFFCURVE",
"410 406 OFFCURVE",
"310 406 CURVE SMOOTH",
"270 406 LINE"
);
}
);
width = 697;
},
{
background = {
paths = (
{
closed = 1;
nodes = (
"274 298 LINE",
"324 298 LINE SMOOTH",
"414 298 OFFCURVE",
"460 282 OFFCURVE",
"460 216 CURVE SMOOTH",
"460 158 OFFCURVE",
"417 134 OFFCURVE",
"354 135 CURVE SMOOTH",
"293 136 OFFCURVE",
"259 157 OFFCURVE",
"246 215 CURVE",
"50 215 LINE",
"52 62 OFFCURVE",
"153 -15 OFFCURVE",
"354 -15 CURVE SMOOTH",
"567 -15 OFFCURVE",
"670 55 OFFCURVE",
"670 190 CURVE SMOOTH",
"670 310 OFFCURVE",
"581 355 OFFCURVE",
"477 358 CURVE",
"477 366 LINE",
"571 374 OFFCURVE",
"651 424 OFFCURVE",
"650 524 CURVE SMOOTH",
"649 660 OFFCURVE",
"555 725 OFFCURVE",
"358 725 CURVE SMOOTH",
"153 725 OFFCURVE",
"75 641 OFFCURVE",
"65 495 CURVE",
"257 495 LINE",
"267 558 OFFCURVE",
"300 575 OFFCURVE",
"357 575 CURVE SMOOTH",
"412 575 OFFCURVE",
"444 555 OFFCURVE",
"444 498 CURVE SMOOTH",
"444 437 OFFCURVE",
"394 418 OFFCURVE",
"314 418 CURVE SMOOTH",
"274 418 LINE"
);
}
);
};
layerId = "84435905-EDCB-4949-A8A3-0E53308A2F50";
paths = (
{
closed = 1;
nodes = (
"274 298 LINE",
"324 298 LINE SMOOTH",
"414 298 OFFCURVE",
"460 287 OFFCURVE",
"460 221 CURVE SMOOTH",
"460 163 OFFCURVE",
"417 139 OFFCURVE",
"354 140 CURVE SMOOTH",
"290 141 OFFCURVE",
"256 162 OFFCURVE",
"243 220 CURVE",
"50 220 LINE",
"52 62 OFFCURVE",
"153 -15 OFFCURVE",
"354 -15 CURVE SMOOTH",
"567 -15 OFFCURVE",
"670 55 OFFCURVE",
"670 190 CURVE SMOOTH",
"670 310 OFFCURVE",
"581 355 OFFCURVE",
"477 358 CURVE",
"477 366 LINE",
"571 374 OFFCURVE",
"651 424 OFFCURVE",
"650 524 CURVE SMOOTH",
"649 660 OFFCURVE",
"555 725 OFFCURVE",
"358 725 CURVE SMOOTH",
"153 725 OFFCURVE",
"75 641 OFFCURVE",
"65 490 CURVE",
"257 490 LINE",
"267 553 OFFCURVE",
"300 570 OFFCURVE",
"357 570 CURVE SMOOTH",
"412 570 OFFCURVE",
"444 550 OFFCURVE",
"444 493 CURVE SMOOTH",
"444 432 OFFCURVE",
"394 418 OFFCURVE",
"314 418 CURVE SMOOTH",
"274 418 LINE"
);
}
);
width = 715;
}
);
unicode = 0033;
},
{
color = 11;
glyphname = four;
lastChange = "2017-07-25 14:12:56 +0000";
layers = (
{
background = {
paths = (
{
closed = 1;
nodes = (
"366 710 LINE",
"40 219 LINE",
"40 172 LINE",
"397 172 LINE",
"397 0 LINE",
"456 0 LINE",
"456 172 LINE",
"526 172 LINE",
"526 223 LINE",
"456 223 LINE",
"456 710 LINE"
);
},
{
closed = 1;
nodes = (
"109 223 LINE",
"109 230 LINE",
"393 654 LINE",
"397 654 LINE",
"397 223 LINE"
);
}
);
};
layerId = "0A1AFE58-107D-4787-BDA0-D82FB635C3A6";
paths = (
{
closed = 1;
nodes = (
"366 710 LINE",
"10 219 LINE",
"10 172 LINE",
"397 172 LINE",
"397 0 LINE",
"456 0 LINE",
"456 172 LINE",
"546 172 LINE",
"546 223 LINE",
"456 223 LINE",
"456 710 LINE"
);
},
{
closed = 1;
nodes = (
"79 223 LINE",
"79 230 LINE",
"393 654 LINE",
"397 654 LINE",
"397 223 LINE"
);
}
);
width = 606;
},
{
background = {
paths = (
{
closed = 1;
nodes = (
"321 710 LINE",
"30 246 LINE",
"30 136 LINE",
"397 136 LINE",
"397 0 LINE",
"538 0 LINE",
"538 136 LINE",
"618 136 LINE",
"618 251 LINE",
"538 251 LINE",
"538 710 LINE"
);
},
{
closed = 1;
nodes = (
"179 251 LINE",
"179 258 LINE",
"388 599 LINE",
"397 599 LINE",
"397 251 LINE"
);
}
);
};
layerId = "C76CAC8E-7AD6-478C-8F7E-02FEF6F1EA84";
paths = (
{
closed = 1;
nodes = (
"321 710 LINE",
"20 246 LINE",
"20 136 LINE",
"398 136 LINE",
"398 0 LINE",
"538 0 LINE",
"538 136 LINE",
"618 136 LINE",
"618 251 LINE",
"538 251 LINE",
"538 710 LINE"
);
},
{
closed = 1;
nodes = (
"169 251 LINE",
"169 258 LINE",
"389 599 LINE",
"398 599 LINE",
"398 251 LINE"
);
}
);
width = 678;
},
{
background = {
paths = (
{
closed = 1;
nodes = (
"311 710 LINE",
"10 258 LINE",
"10 111 LINE",
"388 111 LINE",
"388 0 LINE",
"588 0 LINE",
"588 111 LINE",
"658 111 LINE",
"658 263 LINE",
"588 263 LINE",
"588 710 LINE"
);
},
{
closed = 1;
nodes = (
"209 263 LINE",
"209 270 LINE",
"379 549 LINE",
"388 549 LINE",
"388 263 LINE"
);
}
);
};
layerId = "84435905-EDCB-4949-A8A3-0E53308A2F50";
paths = (
{
closed = 1;
nodes = (
"301 710 LINE",
"10 258 LINE",
"10 111 LINE",
"388 111 LINE",
"388 0 LINE",
"593 0 LINE",
"593 111 LINE",
"663 111 LINE",
"663 263 LINE",
"593 263 LINE",
"593 710 LINE"
);
},
{
closed = 1;
nodes = (
"219 263 LINE",
"219 270 LINE",
"379 539 LINE",
"388 539 LINE",
"388 263 LINE"
);
}
);
width = 713;
}
);
unicode = 0034;
},
{
color = 11;
glyphname = five;
lastChange = "2017-07-25 14:19:59 +0000";
layers = (
{
background = {
paths = (
{
closed = 1;
nodes = (
"95 150 LINE",
"108 45 OFFCURVE",
"198 -15 OFFCURVE",
"324 -15 CURVE SMOOTH",
"462 -15 OFFCURVE",
"553 67 OFFCURVE",
"553 230 CURVE SMOOTH",
"553 372 OFFCURVE",
"469 453 OFFCURVE",
"342 453 CURVE SMOOTH",
"252 453 OFFCURVE",
"206 407 OFFCURVE",
"172 363 CURVE",
"170 363 LINE",
"200 657 LINE",
"522 657 LINE",
"522 710 LINE",
"152 710 LINE",
"115 304 LINE",
"167 304 LINE",
"198 348 OFFCURVE",
"254 401 OFFCURVE",
"334 401 CURVE SMOOTH",
"437 401 OFFCURVE",
"494 347 OFFCURVE",
"494 226 CURVE SMOOTH",
"494 92 OFFCURVE",
"424 36 OFFCURVE",
"324 36 CURVE SMOOTH",
"231 36 OFFCURVE",
"174 73 OFFCURVE",
"155 150 CURVE"
);
}
);
};
layerId = "0A1AFE58-107D-4787-BDA0-D82FB635C3A6";
paths = (
{
closed = 1;
nodes = (
"85 150 LINE",
"98 45 OFFCURVE",
"193 -15 OFFCURVE",
"324 -15 CURVE SMOOTH",
"472 -15 OFFCURVE",
"571 67 OFFCURVE",
"571 230 CURVE SMOOTH",
"571 372 OFFCURVE",
"484 453 OFFCURVE",
"347 453 CURVE SMOOTH",
"257 453 OFFCURVE",
"195 404 OFFCURVE",
"161 360 CURVE",
"159 360 LINE",
"190 657 LINE",
"527 657 LINE",
"527 710 LINE",
"142 710 LINE",
"105 304 LINE",
"157 304 LINE",
"188 348 OFFCURVE",
"259 401 OFFCURVE",
"339 401 CURVE SMOOTH",
"452 401 OFFCURVE",
"514 347 OFFCURVE",
"514 226 CURVE SMOOTH",
"514 92 OFFCURVE",
"434 35 OFFCURVE",
"324 35 CURVE SMOOTH",
"226 35 OFFCURVE",
"164 73 OFFCURVE",
"145 150 CURVE"
);
}
);
width = 636;
},
{
background = {
paths = (
{
closed = 1;
nodes = (
"80 180 LINE",
"83 55 OFFCURVE",
"171 -15 OFFCURVE",
"337 -15 CURVE SMOOTH",
"505 -15 OFFCURVE",
"602 67 OFFCURVE",
"602 230 CURVE SMOOTH",
"602 393 OFFCURVE",
"524 473 OFFCURVE",
"387 473 CURVE SMOOTH",
"304 473 OFFCURVE",
"263 442 OFFCURVE",
"226 393 CURVE",
"219 393 LINE",
"238 585 LINE",
"567 585 LINE",
"567 710 LINE",
"127 710 LINE",
"90 294 LINE",
"212 294 LINE",
"243 328 OFFCURVE",
"279 361 OFFCURVE",
"339 361 CURVE SMOOTH",
"422 361 OFFCURVE",
"459 327 OFFCURVE",
"459 226 CURVE SMOOTH",
"459 142 OFFCURVE",
"419 102 OFFCURVE",
"339 102 CURVE SMOOTH",
"266 102 OFFCURVE",
"236 123 OFFCURVE",
"222 180 CURVE"
);
}
);
};
layerId = "C76CAC8E-7AD6-478C-8F7E-02FEF6F1EA84";
paths = (
{
closed = 1;
nodes = (
"80 180 LINE",
"83 55 OFFCURVE",
"176 -15 OFFCURVE",
"342 -15 CURVE SMOOTH",
"515 -15 OFFCURVE",
"627 67 OFFCURVE",
"627 230 CURVE SMOOTH",
"627 393 OFFCURVE",
"534 473 OFFCURVE",
"392 473 CURVE SMOOTH",
"309 473 OFFCURVE",
"263 442 OFFCURVE",
"226 393 CURVE",
"219 393 LINE",
"238 585 LINE",
"577 585 LINE",
"577 710 LINE",
"127 710 LINE",
"90 294 LINE",
"212 294 LINE",
"243 328 OFFCURVE",
"289 361 OFFCURVE",
"349 361 CURVE SMOOTH",
"437 361 OFFCURVE",
"484 327 OFFCURVE",
"484 226 CURVE SMOOTH",
"484 142 OFFCURVE",
"424 102 OFFCURVE",
"344 102 CURVE SMOOTH",
"271 102 OFFCURVE",
"236 123 OFFCURVE",
"222 180 CURVE"
);
}
);
width = 682;
},
{
background = {
paths = (
{
closed = 1;
nodes = (
"60 200 LINE",
"63 55 OFFCURVE",
"176 -15 OFFCURVE",
"362 -15 CURVE SMOOTH",
"545 -15 OFFCURVE",
"662 62 OFFCURVE",
"662 235 CURVE SMOOTH",
"662 408 OFFCURVE",
"574 483 OFFCURVE",
"432 483 CURVE SMOOTH",
"329 483 OFFCURVE",
"285 423 OFFCURVE",
"255 383 CURVE",
"248 383 LINE",
"263 535 LINE",
"597 535 LINE",
"597 710 LINE",
"107 710 LINE",
"70 274 LINE",
"242 274 LINE",
"273 308 OFFCURVE",
"314 341 OFFCURVE",
"364 341 CURVE SMOOTH",
"432 341 OFFCURVE",
"469 307 OFFCURVE",
"469 226 CURVE SMOOTH",
"469 162 OFFCURVE",
"424 132 OFFCURVE",
"364 132 CURVE SMOOTH",
"311 132 OFFCURVE",
"266 153 OFFCURVE",
"252 200 CURVE"
);
}
);
};
layerId = "84435905-EDCB-4949-A8A3-0E53308A2F50";
paths = (
{
closed = 1;
nodes = (
"60 208 LINE",
"63 63 OFFCURVE",
"176 -15 OFFCURVE",
"362 -15 CURVE SMOOTH",
"545 -15 OFFCURVE",
"662 62 OFFCURVE",
"662 235 CURVE SMOOTH",
"662 408 OFFCURVE",
"574 480 OFFCURVE",
"432 480 CURVE SMOOTH",
"319 480 OFFCURVE",
"278 423 OFFCURVE",
"255 383 CURVE",
"248 383 LINE",
"263 535 LINE",
"607 535 LINE",
"607 710 LINE",
"107 710 LINE",
"70 279 LINE",
"242 279 LINE",
"273 313 OFFCURVE",
"314 346 OFFCURVE",
"364 346 CURVE SMOOTH",
"432 346 OFFCURVE",
"469 317 OFFCURVE",
"469 241 CURVE SMOOTH",
"469 167 OFFCURVE",
"424 140 OFFCURVE",
"364 140 CURVE SMOOTH",
"311 140 OFFCURVE",
"266 161 OFFCURVE",
"252 208 CURVE"
);
}
);
width = 702;
}
);
unicode = 0035;
},
{
color = 11;
glyphname = six;
lastChange = "2017-07-25 14:10:55 +0000";
layers = (
{
background = {
paths = (
{
closed = 1;
nodes = (
"554 565 LINE",
"535 653 OFFCURVE",
"473 725 OFFCURVE",
"345 725 CURVE SMOOTH",
"172 725 OFFCURVE",
"90 619 OFFCURVE",
"90 311 CURVE SMOOTH",
"90 83 OFFCURVE",
"187 -15 OFFCURVE",
"332 -15 CURVE SMOOTH",
"477 -15 OFFCURVE",
"566 74 OFFCURVE",
"566 224 CURVE SMOOTH",
"566 374 OFFCURVE",
"482 453 OFFCURVE",
"337 453 CURVE SMOOTH",
"230 453 OFFCURVE",
"168 380 OFFCURVE",
"145 324 CURVE",
"141 324 LINE",
"149 586 OFFCURVE",
"195 674 OFFCURVE",
"342 674 CURVE SMOOTH",
"438 674 OFFCURVE",
"476 629 OFFCURVE",
"494 565 CURVE"
);
},
{
closed = 1;
nodes = (
"157 333 OFFCURVE",
"237 404 OFFCURVE",
"337 404 CURVE SMOOTH",
"447 404 OFFCURVE",
"510 344 OFFCURVE",
"510 219 CURVE SMOOTH",
"510 94 OFFCURVE",
"442 35 OFFCURVE",
"332 35 CURVE SMOOTH",
"222 35 OFFCURVE",
"157 119 OFFCURVE",
"157 219 CURVE SMOOTH"
);
}
);
};
layerId = "0A1AFE58-107D-4787-BDA0-D82FB635C3A6";
paths = (
{
closed = 1;
nodes = (
"554 565 LINE",
"535 653 OFFCURVE",
"473 725 OFFCURVE",
"345 725 CURVE SMOOTH",
"177 725 OFFCURVE",
"80 619 OFFCURVE",
"80 311 CURVE SMOOTH",
"80 83 OFFCURVE",
"177 -15 OFFCURVE",
"327 -15 CURVE SMOOTH",
"477 -15 OFFCURVE",
"571 74 OFFCURVE",
"571 224 CURVE SMOOTH",
"571 374 OFFCURVE",
"487 453 OFFCURVE",
"342 453 CURVE SMOOTH",
"235 453 OFFCURVE",
"165 394 OFFCURVE",
"135 324 CURVE",
"131 324 LINE",
"143 586 OFFCURVE",
"200 674 OFFCURVE",
"342 674 CURVE SMOOTH",
"438 674 OFFCURVE",
"476 629 OFFCURVE",
"494 565 CURVE"
);
},
{
closed = 1;
nodes = (
"147 333 OFFCURVE",
"242 404 OFFCURVE",
"342 404 CURVE SMOOTH",
"452 404 OFFCURVE",
"515 344 OFFCURVE",
"515 219 CURVE SMOOTH",
"515 94 OFFCURVE",
"442 35 OFFCURVE",
"327 35 CURVE SMOOTH",
"212 35 OFFCURVE",
"147 119 OFFCURVE",
"147 219 CURVE SMOOTH"
);
}
);
width = 641;
},
{
background = {
paths = (
{
closed = 1;
nodes = (
"598 533 LINE",
"583 639 OFFCURVE",
"506 725 OFFCURVE",
"347 725 CURVE SMOOTH",
"158 725 OFFCURVE",
"60 602 OFFCURVE",
"60 342 CURVE SMOOTH",
"60 111 OFFCURVE",
"152 -15 OFFCURVE",
"339 -15 CURVE SMOOTH",
"494 -15 OFFCURVE",
"604 77 OFFCURVE",
"604 233 CURVE SMOOTH",
"604 386 OFFCURVE",
"511 464 OFFCURVE",
"377 464 CURVE SMOOTH",
"291 464 OFFCURVE",
"232 423 OFFCURVE",
"201 356 CURVE",
"192 356 LINE",
"202 517 OFFCURVE",
"240 605 OFFCURVE",
"339 605 CURVE SMOOTH",
"408 605 OFFCURVE",
"443 569 OFFCURVE",
"453 533 CURVE"
);
},
{
closed = 1;
nodes = (
"223 307 OFFCURVE",
"271 354 OFFCURVE",
"344 354 CURVE SMOOTH",
"417 354 OFFCURVE",
"466 307 OFFCURVE",
"466 227 CURVE SMOOTH",
"466 147 OFFCURVE",
"417 102 OFFCURVE",
"344 102 CURVE SMOOTH",
"271 102 OFFCURVE",
"223 147 OFFCURVE",
"223 227 CURVE SMOOTH"
);
}
);
};
layerId = "C76CAC8E-7AD6-478C-8F7E-02FEF6F1EA84";
paths = (
{
closed = 1;
nodes = (
"595 533 LINE",
"590 639 OFFCURVE",
"506 725 OFFCURVE",
"347 725 CURVE SMOOTH",
"158 725 OFFCURVE",
"60 602 OFFCURVE",
"60 342 CURVE SMOOTH",
"60 106 OFFCURVE",
"157 -15 OFFCURVE",
"344 -15 CURVE SMOOTH",
"519 -15 OFFCURVE",
"615 77 OFFCURVE",
"615 228 CURVE SMOOTH",
"615 376 OFFCURVE",
"524 454 OFFCURVE",
"385 454 CURVE SMOOTH",
"299 454 OFFCURVE",
"234 413 OFFCURVE",
"201 351 CURVE",
"192 351 LINE",
"192 507 OFFCURVE",
"235 608 OFFCURVE",
"344 608 CURVE SMOOTH",
"413 608 OFFCURVE",
"443 579 OFFCURVE",
"453 533 CURVE"
);
},
{
closed = 1;
nodes = (
"221 302 OFFCURVE",
"274 351 OFFCURVE",
"347 351 CURVE SMOOTH",
"425 351 OFFCURVE",
"477 302 OFFCURVE",
"477 222 CURVE SMOOTH",
"477 142 OFFCURVE",
"425 97 OFFCURVE",
"347 97 CURVE SMOOTH",
"274 97 OFFCURVE",
"221 142 OFFCURVE",
"221 222 CURVE SMOOTH"
);
}
);
width = 670;
},
{
background = {
paths = (
{
closed = 1;
nodes = (
"648 513 LINE",
"643 639 OFFCURVE",
"559 725 OFFCURVE",
"370 725 CURVE SMOOTH",
"156 725 OFFCURVE",
"53 602 OFFCURVE",
"53 342 CURVE SMOOTH",
"53 106 OFFCURVE",
"150 -15 OFFCURVE",
"367 -15 CURVE SMOOTH",
"567 -15 OFFCURVE",
"663 77 OFFCURVE",
"663 233 CURVE SMOOTH",
"663 381 OFFCURVE",
"582 459 OFFCURVE",
"428 459 CURVE SMOOTH",
"332 459 OFFCURVE",
"277 418 OFFCURVE",
"244 356 CURVE",
"235 356 LINE",
"235 507 OFFCURVE",
"268 575 OFFCURVE",
"367 575 CURVE SMOOTH",
"426 575 OFFCURVE",
"456 549 OFFCURVE",
"466 513 CURVE"
);
},
{
closed = 1;
nodes = (
"266 302 OFFCURVE",
"319 334 OFFCURVE",
"372 334 CURVE SMOOTH",
"435 334 OFFCURVE",
"477 302 OFFCURVE",
"477 232 CURVE SMOOTH",
"477 172 OFFCURVE",
"435 135 OFFCURVE",
"372 135 CURVE SMOOTH",
"309 135 OFFCURVE",
"266 172 OFFCURVE",
"266 232 CURVE SMOOTH"
);
}
);
};
layerId = "84435905-EDCB-4949-A8A3-0E53308A2F50";
paths = (
{
closed = 1;
nodes = (
"651 505 LINE",
"646 621 OFFCURVE",
"562 725 OFFCURVE",
"370 725 CURVE SMOOTH",
"153 725 OFFCURVE",
"50 597 OFFCURVE",
"50 337 CURVE SMOOTH",
"50 101 OFFCURVE",
"157 -15 OFFCURVE",
"367 -15 CURVE SMOOTH",
"570 -15 OFFCURVE",
"666 77 OFFCURVE",
"666 233 CURVE SMOOTH",
"666 381 OFFCURVE",
"585 459 OFFCURVE",
"428 459 CURVE SMOOTH",
"332 459 OFFCURVE",
"274 408 OFFCURVE",
"251 346 CURVE",
"242 346 LINE",
"247 507 OFFCURVE",
"275 570 OFFCURVE",
"367 570 CURVE SMOOTH",
"424 570 OFFCURVE",
"449 536 OFFCURVE",
"459 505 CURVE"
);
},
{
closed = 1;
nodes = (
"268 292 OFFCURVE",
"311 329 OFFCURVE",
"367 329 CURVE SMOOTH",
"433 329 OFFCURVE",
"475 292 OFFCURVE",
"475 232 CURVE SMOOTH",
"475 172 OFFCURVE",
"433 135 OFFCURVE",
"367 135 CURVE SMOOTH",
"301 135 OFFCURVE",
"268 172 OFFCURVE",
"268 232 CURVE SMOOTH"
);
}
);
width = 711;
}
);
unicode = 0036;
},
{
color = 11;
glyphname = seven;
lastChange = "2017-07-25 14:05:27 +0000";
layers = (
{
background = {
paths = (
{
closed = 1;
nodes = (
"-20 709 LINE",
"-20 584 LINE",
"315 584 LINE",
"315 578 LINE",
"22 0 LINE",
"184 0 LINE",
"469 594 LINE",
"469 709 LINE"
);
}
);
};
layerId = "0A1AFE58-107D-4787-BDA0-D82FB635C3A6";
paths = (
{
closed = 1;
nodes = (
"50 709 LINE",
"50 656 LINE",
"435 656 LINE",
"435 650 LINE",
"132 0 LINE",
"194 0 LINE",
"503 664 LINE",
"503 709 LINE"
);
}
);
width = 533;
},
{
background = {
paths = (
{
closed = 1;
nodes = (
"40 709 LINE",
"40 584 LINE",
"375 584 LINE",
"375 578 LINE",
"82 0 LINE",
"244 0 LINE",
"529 594 LINE",
"529 709 LINE"
);
}
);
};
layerId = "C76CAC8E-7AD6-478C-8F7E-02FEF6F1EA84";
paths = (
{
closed = 1;
nodes = (
"40 709 LINE",
"40 584 LINE",
"385 584 LINE",
"385 578 LINE",
"92 0 LINE",
"254 0 LINE",
"539 594 LINE",
"539 709 LINE"
);
}
);
width = 559;
},
{
background = {
paths = (
{
closed = 1;
nodes = (
"20 709 LINE",
"20 584 LINE",
"365 584 LINE",
"365 578 LINE",
"72 0 LINE",
"234 0 LINE",
"519 594 LINE",
"519 709 LINE"
);
}
);
};
layerId = "84435905-EDCB-4949-A8A3-0E53308A2F50";
paths = (
{
closed = 1;
nodes = (
"20 709 LINE",
"20 534 LINE",
"345 534 LINE",
"345 528 LINE",
"72 0 LINE",
"314 0 LINE",
"579 544 LINE",
"579 709 LINE"
);
}
);
width = 600;
}
);
unicode = 0037;
},
